<?xml version="1.0" encoding="UTF-8" standalone="no"?>
<!DOCTYPE svg PUBLIC "-//W3C//DTD SVG 1.1//EN"
 "http://www.w3.org/Graphics/SVG/1.1/DTD/svg11.dtd">
<!-- Generated by graphviz version 2.43.0 (0)
 -->
<!-- Title: G Pages: 1 -->
<svg width="1546pt" height="2187pt"
 viewBox="0.00 0.00 1546.20 2187.20" xmlns="http://www.w3.org/2000/svg" xmlns:xlink="http://www.w3.org/1999/xlink">
<g id="graph0" class="graph" transform="scale(1 1) rotate(0) translate(21.6 2165.6)">
<title>G</title>
<polygon fill="#111111" stroke="transparent" points="-21.6,21.6 -21.6,-2165.6 1524.6,-2165.6 1524.6,21.6 -21.6,21.6"/>
<!-- app.component.ts -->
<g id="node1" class="node">
<title>app.component.ts</title>
<path fill="none" stroke="#cfffac" d="M243.83,-23C243.83,-23 134.17,-23 134.17,-23 130.33,-23 126.5,-19.17 126.5,-15.33 126.5,-15.33 126.5,-7.67 126.5,-7.67 126.5,-3.83 130.33,0 134.17,0 134.17,0 243.83,0 243.83,0 247.67,0 251.5,-3.83 251.5,-7.67 251.5,-7.67 251.5,-15.33 251.5,-15.33 251.5,-19.17 247.67,-23 243.83,-23"/>
<text text-anchor="middle" x="189" y="-7.8" font-family="Arial" font-size="14.00" fill="#cfffac">app.component.ts</text>
</g>
<!-- app.routes.ts -->
<g id="node2" class="node">
<title>app.routes.ts</title>
<path fill="none" stroke="#c6c5fe" d="M228.83,-64C228.83,-64 149.17,-64 149.17,-64 145.33,-64 141.5,-60.17 141.5,-56.33 141.5,-56.33 141.5,-48.67 141.5,-48.67 141.5,-44.83 145.33,-41 149.17,-41 149.17,-41 228.83,-41 228.83,-41 232.67,-41 236.5,-44.83 236.5,-48.67 236.5,-48.67 236.5,-56.33 236.5,-56.33 236.5,-60.17 232.67,-64 228.83,-64"/>
<text text-anchor="middle" x="189" y="-48.8" font-family="Arial" font-size="14.00" fill="#c6c5fe">app.routes.ts</text>
</g>
<!-- core/guards/auth.guard.ts -->
<g id="node3" class="node">
<title>core/guards/auth.guard.ts</title>
<path fill="none" stroke="#cfffac" d="M675.33,-105C675.33,-105 520.67,-105 520.67,-105 516.83,-105 513,-101.17 513,-97.33 513,-97.33 513,-89.67 513,-89.67 513,-85.83 516.83,-82 520.67,-82 520.67,-82 675.33,-82 675.33,-82 679.17,-82 683,-85.83 683,-89.67 683,-89.67 683,-97.33 683,-97.33 683,-101.17 679.17,-105 675.33,-105"/>
<text text-anchor="middle" x="598" y="-89.8" font-family="Arial" font-size="14.00" fill="#cfffac">core/guards/auth.guard.ts</text>
</g>
<!-- app.routes.ts&#45;&gt;core/guards/auth.guard.ts -->
<g id="edge1" class="edge">
<title>app.routes.ts&#45;&gt;core/guards/auth.guard.ts</title>
<path fill="none" stroke="#757575" d="M236.69,-57.2C301.3,-63.71 419.41,-75.61 502.76,-84.01"/>
<polygon fill="#757575" stroke="#757575" points="502.45,-87.49 512.75,-85.01 503.15,-80.53 502.45,-87.49"/>
</g>
<!-- core/layout/home/home.routes.ts -->
<g id="node4" class="node">
<title>core/layout/home/home.routes.ts</title>
<path fill="none" stroke="#cfffac" d="M697.83,-64C697.83,-64 498.17,-64 498.17,-64 494.33,-64 490.5,-60.17 490.5,-56.33 490.5,-56.33 490.5,-48.67 490.5,-48.67 490.5,-44.83 494.33,-41 498.17,-41 498.17,-41 697.83,-41 697.83,-41 701.67,-41 705.5,-44.83 705.5,-48.67 705.5,-48.67 705.5,-56.33 705.5,-56.33 705.5,-60.17 701.67,-64 697.83,-64"/>
<text text-anchor="middle" x="598" y="-48.8" font-family="Arial" font-size="14.00" fill="#cfffac">core/layout/home/home.routes.ts</text>
</g>
<!-- app.routes.ts&#45;&gt;core/layout/home/home.routes.ts -->
<g id="edge2" class="edge">
<title>app.routes.ts&#45;&gt;core/layout/home/home.routes.ts</title>
<path fill="none" stroke="#757575" d="M236.69,-52.5C295.66,-52.5 399.2,-52.5 480.2,-52.5"/>
<polygon fill="#757575" stroke="#757575" points="480.47,-56 490.47,-52.5 480.47,-49 480.47,-56"/>
</g>
<!-- modules/upload/file&#45;upload.routes.ts -->
<g id="node5" class="node">
<title>modules/upload/file&#45;upload.routes.ts</title>
<path fill="none" stroke="#cfffac" d="M707.33,-23C707.33,-23 488.67,-23 488.67,-23 484.83,-23 481,-19.17 481,-15.33 481,-15.33 481,-7.67 481,-7.67 481,-3.83 484.83,0 488.67,0 488.67,0 707.33,0 707.33,0 711.17,0 715,-3.83 715,-7.67 715,-7.67 715,-15.33 715,-15.33 715,-19.17 711.17,-23 707.33,-23"/>
<text text-anchor="middle" x="598" y="-7.8" font-family="Arial" font-size="14.00" fill="#cfffac">modules/upload/file&#45;upload.routes.ts</text>
</g>
<!-- app.routes.ts&#45;&gt;modules/upload/file&#45;upload.routes.ts -->
<g id="edge3" class="edge">
<title>app.routes.ts&#45;&gt;modules/upload/file&#45;upload.routes.ts</title>
<path fill="none" stroke="#757575" d="M236.69,-47.8C293.76,-42.05 392.57,-32.09 472.3,-24.06"/>
<polygon fill="#757575" stroke="#757575" points="472.82,-27.53 482.42,-23.04 472.12,-20.56 472.82,-27.53"/>
</g>
<!-- core/auth/auth&#45;config.ts -->
<g id="node6" class="node">
<title>core/auth/auth&#45;config.ts</title>
<path fill="none" stroke="#cfffac" d="M260.33,-105C260.33,-105 117.67,-105 117.67,-105 113.83,-105 110,-101.17 110,-97.33 110,-97.33 110,-89.67 110,-89.67 110,-85.83 113.83,-82 117.67,-82 117.67,-82 260.33,-82 260.33,-82 264.17,-82 268,-85.83 268,-89.67 268,-89.67 268,-97.33 268,-97.33 268,-101.17 264.17,-105 260.33,-105"/>
<text text-anchor="middle" x="189" y="-89.8" font-family="Arial" font-size="14.00" fill="#cfffac">core/auth/auth&#45;config.ts</text>
</g>
<!-- core/auth/auth.service.ts -->
<g id="node7" class="node">
<title>core/auth/auth.service.ts</title>
<path fill="none" stroke="#cfffac" d="M263.33,-146C263.33,-146 114.67,-146 114.67,-146 110.83,-146 107,-142.17 107,-138.33 107,-138.33 107,-130.67 107,-130.67 107,-126.83 110.83,-123 114.67,-123 114.67,-123 263.33,-123 263.33,-123 267.17,-123 271,-126.83 271,-130.67 271,-130.67 271,-138.33 271,-138.33 271,-142.17 267.17,-146 263.33,-146"/>
<text text-anchor="middle" x="189" y="-130.8" font-family="Arial" font-size="14.00" fill="#cfffac">core/auth/auth.service.ts</text>
</g>
<!-- core/auth/seguranca/models/usuario.model.ts -->
<g id="node8" class="node">
<title>core/auth/seguranca/models/usuario.model.ts</title>
<path fill="none" stroke="#cfffac" d="M326.83,-187C326.83,-187 51.17,-187 51.17,-187 47.33,-187 43.5,-183.17 43.5,-179.33 43.5,-179.33 43.5,-171.67 43.5,-171.67 43.5,-167.83 47.33,-164 51.17,-164 51.17,-164 326.83,-164 326.83,-164 330.67,-164 334.5,-167.83 334.5,-171.67 334.5,-171.67 334.5,-179.33 334.5,-179.33 334.5,-183.17 330.67,-187 326.83,-187"/>
<text text-anchor="middle" x="189" y="-171.8" font-family="Arial" font-size="14.00" fill="#cfffac">core/auth/seguranca/models/usuario.model.ts</text>
</g>
<!-- core/components/base.component.ts -->
<g id="node9" class="node">
<title>core/components/base.component.ts</title>
<path fill="none" stroke="#cfffac" d="M300.83,-228C300.83,-228 77.17,-228 77.17,-228 73.33,-228 69.5,-224.17 69.5,-220.33 69.5,-220.33 69.5,-212.67 69.5,-212.67 69.5,-208.83 73.33,-205 77.17,-205 77.17,-205 300.83,-205 300.83,-205 304.67,-205 308.5,-208.83 308.5,-212.67 308.5,-212.67 308.5,-220.33 308.5,-220.33 308.5,-224.17 304.67,-228 300.83,-228"/>
<text text-anchor="middle" x="189" y="-212.8" font-family="Arial" font-size="14.00" fill="#cfffac">core/components/base.component.ts</text>
</g>
<!-- core/components/buttons/action&#45;button.component.ts -->
<g id="node10" class="node">
<title>core/components/buttons/action&#45;button.component.ts</title>
<path fill="none" stroke="#cfffac" d="M349.33,-269C349.33,-269 28.67,-269 28.67,-269 24.83,-269 21,-265.17 21,-261.33 21,-261.33 21,-253.67 21,-253.67 21,-249.83 24.83,-246 28.67,-246 28.67,-246 349.33,-246 349.33,-246 353.17,-246 357,-249.83 357,-253.67 357,-253.67 357,-261.33 357,-261.33 357,-265.17 353.17,-269 349.33,-269"/>
<text text-anchor="middle" x="189" y="-253.8" font-family="Arial" font-size="14.00" fill="#cfffac">core/components/buttons/action&#45;button.component.ts</text>
</g>
<!-- core/components/form/form&#45;data.component.ts -->
<g id="node11" class="node">
<title>core/components/form/form&#45;data.component.ts</title>
<path fill="none" stroke="#cfffac" d="M331.33,-310C331.33,-310 46.67,-310 46.67,-310 42.83,-310 39,-306.17 39,-302.33 39,-302.33 39,-294.67 39,-294.67 39,-290.83 42.83,-287 46.67,-287 46.67,-287 331.33,-287 331.33,-287 335.17,-287 339,-290.83 339,-294.67 339,-294.67 339,-302.33 339,-302.33 339,-306.17 335.17,-310 331.33,-310"/>
<text text-anchor="middle" x="189" y="-294.8" font-family="Arial" font-size="14.00" fill="#cfffac">core/components/form/form&#45;data.component.ts</text>
</g>
<!-- core/components/form/form&#45;header.component.ts -->
<g id="node12" class="node">
<title>core/components/form/form&#45;header.component.ts</title>
<path fill="none" stroke="#cfffac" d="M338.83,-351C338.83,-351 39.17,-351 39.17,-351 35.33,-351 31.5,-347.17 31.5,-343.33 31.5,-343.33 31.5,-335.67 31.5,-335.67 31.5,-331.83 35.33,-328 39.17,-328 39.17,-328 338.83,-328 338.83,-328 342.67,-328 346.5,-331.83 346.5,-335.67 346.5,-335.67 346.5,-343.33 346.5,-343.33 346.5,-347.17 342.67,-351 338.83,-351"/>
<text text-anchor="middle" x="189" y="-335.8" font-family="Arial" font-size="14.00" fill="#cfffac">core/components/form/form&#45;header.component.ts</text>
</g>
<!-- core/components/models/entity.model.ts -->
<g id="node13" class="node">
<title>core/components/models/entity.model.ts</title>
<path fill="none" stroke="#cfffac" d="M311.33,-392C311.33,-392 66.67,-392 66.67,-392 62.83,-392 59,-388.17 59,-384.33 59,-384.33 59,-376.67 59,-376.67 59,-372.83 62.83,-369 66.67,-369 66.67,-369 311.33,-369 311.33,-369 315.17,-369 319,-372.83 319,-376.67 319,-376.67 319,-384.33 319,-384.33 319,-388.17 315.17,-392 311.33,-392"/>
<text text-anchor="middle" x="189" y="-376.8" font-family="Arial" font-size="14.00" fill="#cfffac">core/components/models/entity.model.ts</text>
</g>
<!-- core/components/models/menu&#45;item.model.ts -->
<g id="node14" class="node">
<title>core/components/models/menu&#45;item.model.ts</title>
<path fill="none" stroke="#cfffac" d="M327.83,-433C327.83,-433 50.17,-433 50.17,-433 46.33,-433 42.5,-429.17 42.5,-425.33 42.5,-425.33 42.5,-417.67 42.5,-417.67 42.5,-413.83 46.33,-410 50.17,-410 50.17,-410 327.83,-410 327.83,-410 331.67,-410 335.5,-413.83 335.5,-417.67 335.5,-417.67 335.5,-425.33 335.5,-425.33 335.5,-429.17 331.67,-433 327.83,-433"/>
<text text-anchor="middle" x="189" y="-417.8" font-family="Arial" font-size="14.00" fill="#cfffac">core/components/models/menu&#45;item.model.ts</text>
</g>
<!-- core/components/models/user.model.ts -->
<g id="node15" class="node">
<title>core/components/models/user.model.ts</title>
<path fill="none" stroke="#cfffac" d="M308.33,-474C308.33,-474 69.67,-474 69.67,-474 65.83,-474 62,-470.17 62,-466.33 62,-466.33 62,-458.67 62,-458.67 62,-454.83 65.83,-451 69.67,-451 69.67,-451 308.33,-451 308.33,-451 312.17,-451 316,-454.83 316,-458.67 316,-458.67 316,-466.33 316,-466.33 316,-470.17 312.17,-474 308.33,-474"/>
<text text-anchor="middle" x="189" y="-458.8" font-family="Arial" font-size="14.00" fill="#cfffac">core/components/models/user.model.ts</text>
</g>
<!-- core/components/page&#45;layout/empty&#45;page.component.ts -->
<g id="node16" class="node">
<title>core/components/page&#45;layout/empty&#45;page.component.ts</title>
<path fill="none" stroke="#cfffac" d="M359.33,-515C359.33,-515 18.67,-515 18.67,-515 14.83,-515 11,-511.17 11,-507.33 11,-507.33 11,-499.67 11,-499.67 11,-495.83 14.83,-492 18.67,-492 18.67,-492 359.33,-492 359.33,-492 363.17,-492 367,-495.83 367,-499.67 367,-499.67 367,-507.33 367,-507.33 367,-511.17 363.17,-515 359.33,-515"/>
<text text-anchor="middle" x="189" y="-499.8" font-family="Arial" font-size="14.00" fill="#cfffac">core/components/page&#45;layout/empty&#45;page.component.ts</text>
</g>
<!-- core/components/refreshable.component.ts -->
<g id="node17" class="node">
<title>core/components/refreshable.component.ts</title>
<path fill="none" stroke="#cfffac" d="M320.33,-556C320.33,-556 57.67,-556 57.67,-556 53.83,-556 50,-552.17 50,-548.33 50,-548.33 50,-540.67 50,-540.67 50,-536.83 53.83,-533 57.67,-533 57.67,-533 320.33,-533 320.33,-533 324.17,-533 328,-536.83 328,-540.67 328,-540.67 328,-548.33 328,-548.33 328,-552.17 324.17,-556 320.33,-556"/>
<text text-anchor="middle" x="189" y="-540.8" font-family="Arial" font-size="14.00" fill="#cfffac">core/components/refreshable.component.ts</text>
</g>
<!-- core/constants/app.constants.ts -->
<g id="node18" class="node">
<title>core/constants/app.constants.ts</title>
<path fill="none" stroke="#cfffac" d="M693.33,-597C693.33,-597 502.67,-597 502.67,-597 498.83,-597 495,-593.17 495,-589.33 495,-589.33 495,-581.67 495,-581.67 495,-577.83 498.83,-574 502.67,-574 502.67,-574 693.33,-574 693.33,-574 697.17,-574 701,-577.83 701,-581.67 701,-581.67 701,-589.33 701,-589.33 701,-593.17 697.17,-597 693.33,-597"/>
<text text-anchor="middle" x="598" y="-581.8" font-family="Arial" font-size="14.00" fill="#cfffac">core/constants/app.constants.ts</text>
</g>
<!-- core/interceptors/auth.interceptor.ts -->
<g id="node19" class="node">
<title>core/interceptors/auth.interceptor.ts</title>
<path fill="none" stroke="#cfffac" d="M295.33,-638C295.33,-638 82.67,-638 82.67,-638 78.83,-638 75,-634.17 75,-630.33 75,-630.33 75,-622.67 75,-622.67 75,-618.83 78.83,-615 82.67,-615 82.67,-615 295.33,-615 295.33,-615 299.17,-615 303,-618.83 303,-622.67 303,-622.67 303,-630.33 303,-630.33 303,-634.17 299.17,-638 295.33,-638"/>
<text text-anchor="middle" x="189" y="-622.8" font-family="Arial" font-size="14.00" fill="#cfffac">core/interceptors/auth.interceptor.ts</text>
</g>
<!-- core/layout/home/home.component.ts -->
<g id="node20" class="node">
<title>core/layout/home/home.component.ts</title>
<path fill="none" stroke="#cfffac" d="M303.83,-679C303.83,-679 74.17,-679 74.17,-679 70.33,-679 66.5,-675.17 66.5,-671.33 66.5,-671.33 66.5,-663.67 66.5,-663.67 66.5,-659.83 70.33,-656 74.17,-656 74.17,-656 303.83,-656 303.83,-656 307.67,-656 311.5,-659.83 311.5,-663.67 311.5,-663.67 311.5,-671.33 311.5,-671.33 311.5,-675.17 307.67,-679 303.83,-679"/>
<text text-anchor="middle" x="189" y="-663.8" font-family="Arial" font-size="14.00" fill="#cfffac">core/layout/home/home.component.ts</text>
</g>
<!-- core/layout/menu&#45;item/menu&#45;item.component.ts -->
<g id="node21" class="node">
<title>core/layout/menu&#45;item/menu&#45;item.component.ts</title>
<path fill="none" stroke="#cfffac" d="M334.33,-720C334.33,-720 43.67,-720 43.67,-720 39.83,-720 36,-716.17 36,-712.33 36,-712.33 36,-704.67 36,-704.67 36,-700.83 39.83,-697 43.67,-697 43.67,-697 334.33,-697 334.33,-697 338.17,-697 342,-700.83 342,-704.67 342,-704.67 342,-712.33 342,-712.33 342,-716.17 338.17,-720 334.33,-720"/>
<text text-anchor="middle" x="189" y="-704.8" font-family="Arial" font-size="14.00" fill="#cfffac">core/layout/menu&#45;item/menu&#45;item.component.ts</text>
</g>
<!-- core/layout/menu/menu.component.ts -->
<g id="node22" class="node">
<title>core/layout/menu/menu.component.ts</title>
<path fill="none" stroke="#cfffac" d="M303.83,-761C303.83,-761 74.17,-761 74.17,-761 70.33,-761 66.5,-757.17 66.5,-753.33 66.5,-753.33 66.5,-745.67 66.5,-745.67 66.5,-741.83 70.33,-738 74.17,-738 74.17,-738 303.83,-738 303.83,-738 307.67,-738 311.5,-741.83 311.5,-745.67 311.5,-745.67 311.5,-753.33 311.5,-753.33 311.5,-757.17 307.67,-761 303.83,-761"/>
<text text-anchor="middle" x="189" y="-745.8" font-family="Arial" font-size="14.00" fill="#cfffac">core/layout/menu/menu.component.ts</text>
</g>
<!-- core/services/config.service.ts -->
<g id="node23" class="node">
<title>core/services/config.service.ts</title>
<path fill="none" stroke="#c6c5fe" d="M279.83,-597C279.83,-597 98.17,-597 98.17,-597 94.33,-597 90.5,-593.17 90.5,-589.33 90.5,-589.33 90.5,-581.67 90.5,-581.67 90.5,-577.83 94.33,-574 98.17,-574 98.17,-574 279.83,-574 279.83,-574 283.67,-574 287.5,-577.83 287.5,-581.67 287.5,-581.67 287.5,-589.33 287.5,-589.33 287.5,-593.17 283.67,-597 279.83,-597"/>
<text text-anchor="middle" x="189" y="-581.8" font-family="Arial" font-size="14.00" fill="#c6c5fe">core/services/config.service.ts</text>
</g>
<!-- core/services/config.service.ts&#45;&gt;core/constants/app.constants.ts -->
<g id="edge4" class="edge">
<title>core/services/config.service.ts&#45;&gt;core/constants/app.constants.ts</title>
<path fill="none" stroke="#757575" d="M287.75,-585.5C347.01,-585.5 422.84,-585.5 484.58,-585.5"/>
<polygon fill="#757575" stroke="#757575" points="484.76,-589 494.76,-585.5 484.76,-582 484.76,-589"/>
</g>
<!-- core/services/crud.service.ts -->
<g id="node24" class="node">
<title>core/services/crud.service.ts</title>
<path fill="none" stroke="#cfffac" d="M274.83,-802C274.83,-802 103.17,-802 103.17,-802 99.33,-802 95.5,-798.17 95.5,-794.33 95.5,-794.33 95.5,-786.67 95.5,-786.67 95.5,-782.83 99.33,-779 103.17,-779 103.17,-779 274.83,-779 274.83,-779 278.67,-779 282.5,-782.83 282.5,-786.67 282.5,-786.67 282.5,-794.33 282.5,-794.33 282.5,-798.17 278.67,-802 274.83,-802"/>
<text text-anchor="middle" x="189" y="-786.8" font-family="Arial" font-size="14.00" fill="#cfffac">core/services/crud.service.ts</text>
</g>
<!-- core/services/query.service.ts -->
<g id="node25" class="node">
<title>core/services/query.service.ts</title>
<path fill="none" stroke="#cfffac" d="M278.33,-843C278.33,-843 99.67,-843 99.67,-843 95.83,-843 92,-839.17 92,-835.33 92,-835.33 92,-827.67 92,-827.67 92,-823.83 95.83,-820 99.67,-820 99.67,-820 278.33,-820 278.33,-820 282.17,-820 286,-823.83 286,-827.67 286,-827.67 286,-835.33 286,-835.33 286,-839.17 282.17,-843 278.33,-843"/>
<text text-anchor="middle" x="189" y="-827.8" font-family="Arial" font-size="14.00" fill="#cfffac">core/services/query.service.ts</text>
</g>
<!-- core/store/data&#45;store.ts -->
<g id="node26" class="node">
<title>core/store/data&#45;store.ts</title>
<path fill="none" stroke="#cfffac" d="M258.83,-884C258.83,-884 119.17,-884 119.17,-884 115.33,-884 111.5,-880.17 111.5,-876.33 111.5,-876.33 111.5,-868.67 111.5,-868.67 111.5,-864.83 115.33,-861 119.17,-861 119.17,-861 258.83,-861 258.83,-861 262.67,-861 266.5,-864.83 266.5,-868.67 266.5,-868.67 266.5,-876.33 266.5,-876.33 266.5,-880.17 262.67,-884 258.83,-884"/>
<text text-anchor="middle" x="189" y="-868.8" font-family="Arial" font-size="14.00" fill="#cfffac">core/store/data&#45;store.ts</text>
</g>
<!-- core/store/unique&#45;data.store.ts -->
<g id="node27" class="node">
<title>core/store/unique&#45;data.store.ts</title>
<path fill="none" stroke="#cfffac" d="M281.33,-925C281.33,-925 96.67,-925 96.67,-925 92.83,-925 89,-921.17 89,-917.33 89,-917.33 89,-909.67 89,-909.67 89,-905.83 92.83,-902 96.67,-902 96.67,-902 281.33,-902 281.33,-902 285.17,-902 289,-905.83 289,-909.67 289,-909.67 289,-917.33 289,-917.33 289,-921.17 285.17,-925 281.33,-925"/>
<text text-anchor="middle" x="189" y="-909.8" font-family="Arial" font-size="14.00" fill="#cfffac">core/store/unique&#45;data.store.ts</text>
</g>
<!-- core/translate/translate&#45;loader&#45;factory.ts -->
<g id="node28" class="node">
<title>core/translate/translate&#45;loader&#45;factory.ts</title>
<path fill="none" stroke="#cfffac" d="M308.33,-966C308.33,-966 69.67,-966 69.67,-966 65.83,-966 62,-962.17 62,-958.33 62,-958.33 62,-950.67 62,-950.67 62,-946.83 65.83,-943 69.67,-943 69.67,-943 308.33,-943 308.33,-943 312.17,-943 316,-946.83 316,-950.67 316,-950.67 316,-958.33 316,-958.33 316,-962.17 312.17,-966 308.33,-966"/>
<text text-anchor="middle" x="189" y="-950.8" font-family="Arial" font-size="14.00" fill="#cfffac">core/translate/translate&#45;loader&#45;factory.ts</text>
</g>
<!-- core/util/icon&#45;util.ts -->
<g id="node29" class="node">
<title>core/util/icon&#45;util.ts</title>
<path fill="none" stroke="#cfffac" d="M245.33,-1007C245.33,-1007 132.67,-1007 132.67,-1007 128.83,-1007 125,-1003.17 125,-999.33 125,-999.33 125,-991.67 125,-991.67 125,-987.83 128.83,-984 132.67,-984 132.67,-984 245.33,-984 245.33,-984 249.17,-984 253,-987.83 253,-991.67 253,-991.67 253,-999.33 253,-999.33 253,-1003.17 249.17,-1007 245.33,-1007"/>
<text text-anchor="middle" x="189" y="-991.8" font-family="Arial" font-size="14.00" fill="#cfffac">core/util/icon&#45;util.ts</text>
</g>
<!-- layout/layout.component.ts -->
<g id="node30" class="node">
<title>layout/layout.component.ts</title>
<path fill="none" stroke="#cfffac" d="M270.33,-1048C270.33,-1048 107.67,-1048 107.67,-1048 103.83,-1048 100,-1044.17 100,-1040.33 100,-1040.33 100,-1032.67 100,-1032.67 100,-1028.83 103.83,-1025 107.67,-1025 107.67,-1025 270.33,-1025 270.33,-1025 274.17,-1025 278,-1028.83 278,-1032.67 278,-1032.67 278,-1040.33 278,-1040.33 278,-1044.17 274.17,-1048 270.33,-1048"/>
<text text-anchor="middle" x="189" y="-1032.8" font-family="Arial" font-size="14.00" fill="#cfffac">layout/layout.component.ts</text>
</g>
<!-- layout/pages/error/bad&#45;request.component.ts -->
<g id="node31" class="node">
<title>layout/pages/error/bad&#45;request.component.ts</title>
<path fill="none" stroke="#cfffac" d="M324.83,-1089C324.83,-1089 53.17,-1089 53.17,-1089 49.33,-1089 45.5,-1085.17 45.5,-1081.33 45.5,-1081.33 45.5,-1073.67 45.5,-1073.67 45.5,-1069.83 49.33,-1066 53.17,-1066 53.17,-1066 324.83,-1066 324.83,-1066 328.67,-1066 332.5,-1069.83 332.5,-1073.67 332.5,-1073.67 332.5,-1081.33 332.5,-1081.33 332.5,-1085.17 328.67,-1089 324.83,-1089"/>
<text text-anchor="middle" x="189" y="-1073.8" font-family="Arial" font-size="14.00" fill="#cfffac">layout/pages/error/bad&#45;request.component.ts</text>
</g>
<!-- layout/pages/error/components/error&#45;details.component.ts -->
<g id="node32" class="node">
<title>layout/pages/error/components/error&#45;details.component.ts</title>
<path fill="none" stroke="#cfffac" d="M363.83,-1130C363.83,-1130 14.17,-1130 14.17,-1130 10.33,-1130 6.5,-1126.17 6.5,-1122.33 6.5,-1122.33 6.5,-1114.67 6.5,-1114.67 6.5,-1110.83 10.33,-1107 14.17,-1107 14.17,-1107 363.83,-1107 363.83,-1107 367.67,-1107 371.5,-1110.83 371.5,-1114.67 371.5,-1114.67 371.5,-1122.33 371.5,-1122.33 371.5,-1126.17 367.67,-1130 363.83,-1130"/>
<text text-anchor="middle" x="189" y="-1114.8" font-family="Arial" font-size="14.00" fill="#cfffac">layout/pages/error/components/error&#45;details.component.ts</text>
</g>
<!-- layout/pages/error/empty&#45;page&#45;layout.component.ts -->
<g id="node33" class="node">
<title>layout/pages/error/empty&#45;page&#45;layout.component.ts</title>
<path fill="none" stroke="#cfffac" d="M344.83,-1171C344.83,-1171 33.17,-1171 33.17,-1171 29.33,-1171 25.5,-1167.17 25.5,-1163.33 25.5,-1163.33 25.5,-1155.67 25.5,-1155.67 25.5,-1151.83 29.33,-1148 33.17,-1148 33.17,-1148 344.83,-1148 344.83,-1148 348.67,-1148 352.5,-1151.83 352.5,-1155.67 352.5,-1155.67 352.5,-1163.33 352.5,-1163.33 352.5,-1167.17 348.67,-1171 344.83,-1171"/>
<text text-anchor="middle" x="189" y="-1155.8" font-family="Arial" font-size="14.00" fill="#cfffac">layout/pages/error/empty&#45;page&#45;layout.component.ts</text>
</g>
<!-- layout/pages/error/page&#45;not&#45;found.component.ts -->
<g id="node34" class="node">
<title>layout/pages/error/page&#45;not&#45;found.component.ts</title>
<path fill="none" stroke="#cfffac" d="M334.33,-1212C334.33,-1212 43.67,-1212 43.67,-1212 39.83,-1212 36,-1208.17 36,-1204.33 36,-1204.33 36,-1196.67 36,-1196.67 36,-1192.83 39.83,-1189 43.67,-1189 43.67,-1189 334.33,-1189 334.33,-1189 338.17,-1189 342,-1192.83 342,-1196.67 342,-1196.67 342,-1204.33 342,-1204.33 342,-1208.17 338.17,-1212 334.33,-1212"/>
<text text-anchor="middle" x="189" y="-1196.8" font-family="Arial" font-size="14.00" fill="#cfffac">layout/pages/error/page&#45;not&#45;found.component.ts</text>
</g>
<!-- models/alterarQuantidade.model.ts -->
<g id="node35" class="node">
<title>models/alterarQuantidade.model.ts</title>
<path fill="none" stroke="#cfffac" d="M295.83,-1253C295.83,-1253 82.17,-1253 82.17,-1253 78.33,-1253 74.5,-1249.17 74.5,-1245.33 74.5,-1245.33 74.5,-1237.67 74.5,-1237.67 74.5,-1233.83 78.33,-1230 82.17,-1230 82.17,-1230 295.83,-1230 295.83,-1230 299.67,-1230 303.5,-1233.83 303.5,-1237.67 303.5,-1237.67 303.5,-1245.33 303.5,-1245.33 303.5,-1249.17 299.67,-1253 295.83,-1253"/>
<text text-anchor="middle" x="189" y="-1237.8" font-family="Arial" font-size="14.00" fill="#cfffac">models/alterarQuantidade.model.ts</text>
</g>
<!-- models/criarPedido.model.ts -->
<g id="node36" class="node">
<title>models/criarPedido.model.ts</title>
<path fill="none" stroke="#cfffac" d="M684.33,-1447C684.33,-1447 511.67,-1447 511.67,-1447 507.83,-1447 504,-1443.17 504,-1439.33 504,-1439.33 504,-1431.67 504,-1431.67 504,-1427.83 507.83,-1424 511.67,-1424 511.67,-1424 684.33,-1424 684.33,-1424 688.17,-1424 692,-1427.83 692,-1431.67 692,-1431.67 692,-1439.33 692,-1439.33 692,-1443.17 688.17,-1447 684.33,-1447"/>
<text text-anchor="middle" x="598" y="-1431.8" font-family="Arial" font-size="14.00" fill="#cfffac">models/criarPedido.model.ts</text>
</g>
<!-- models/itemCarrinho.model.ts -->
<g id="node37" class="node">
<title>models/itemCarrinho.model.ts</title>
<path fill="none" stroke="#c6c5fe" d="M1041.83,-1345C1041.83,-1345 859.17,-1345 859.17,-1345 855.33,-1345 851.5,-1341.17 851.5,-1337.33 851.5,-1337.33 851.5,-1329.67 851.5,-1329.67 851.5,-1325.83 855.33,-1322 859.17,-1322 859.17,-1322 1041.83,-1322 1041.83,-1322 1045.67,-1322 1049.5,-1325.83 1049.5,-1329.67 1049.5,-1329.67 1049.5,-1337.33 1049.5,-1337.33 1049.5,-1341.17 1045.67,-1345 1041.83,-1345"/>
<text text-anchor="middle" x="950.5" y="-1329.8" font-family="Arial" font-size="14.00" fill="#c6c5fe">models/itemCarrinho.model.ts</text>
</g>
<!-- models/produto.model.ts -->
<g id="node38" class="node">
<title>models/produto.model.ts</title>
<path fill="none" stroke="#cfffac" d="M1386.33,-1304C1386.33,-1304 1235.67,-1304 1235.67,-1304 1231.83,-1304 1228,-1300.17 1228,-1296.33 1228,-1296.33 1228,-1288.67 1228,-1288.67 1228,-1284.83 1231.83,-1281 1235.67,-1281 1235.67,-1281 1386.33,-1281 1386.33,-1281 1390.17,-1281 1394,-1284.83 1394,-1288.67 1394,-1288.67 1394,-1296.33 1394,-1296.33 1394,-1300.17 1390.17,-1304 1386.33,-1304"/>
<text text-anchor="middle" x="1311" y="-1288.8" font-family="Arial" font-size="14.00" fill="#cfffac">models/produto.model.ts</text>
</g>
<!-- models/itemCarrinho.model.ts&#45;&gt;models/produto.model.ts -->
<g id="edge5" class="edge">
<title>models/itemCarrinho.model.ts&#45;&gt;models/produto.model.ts</title>
<path fill="none" stroke="#757575" d="M1049.94,-1322.24C1102.31,-1316.25 1166.32,-1308.93 1217.73,-1303.05"/>
<polygon fill="#757575" stroke="#757575" points="1218.3,-1306.51 1227.84,-1301.9 1217.51,-1299.56 1218.3,-1306.51"/>
</g>
<!-- models/itemPedido.model.ts -->
<g id="node39" class="node">
<title>models/itemPedido.model.ts</title>
<path fill="none" stroke="#cfffac" d="M275.33,-1447C275.33,-1447 102.67,-1447 102.67,-1447 98.83,-1447 95,-1443.17 95,-1439.33 95,-1439.33 95,-1431.67 95,-1431.67 95,-1427.83 98.83,-1424 102.67,-1424 102.67,-1424 275.33,-1424 275.33,-1424 279.17,-1424 283,-1427.83 283,-1431.67 283,-1431.67 283,-1439.33 283,-1439.33 283,-1443.17 279.17,-1447 275.33,-1447"/>
<text text-anchor="middle" x="189" y="-1431.8" font-family="Arial" font-size="14.00" fill="#cfffac">models/itemPedido.model.ts</text>
</g>
<!-- models/pedido.model.ts -->
<g id="node40" class="node">
<title>models/pedido.model.ts</title>
<path fill="none" stroke="#cfffac" d="M670.83,-1406C670.83,-1406 525.17,-1406 525.17,-1406 521.33,-1406 517.5,-1402.17 517.5,-1398.33 517.5,-1398.33 517.5,-1390.67 517.5,-1390.67 517.5,-1386.83 521.33,-1383 525.17,-1383 525.17,-1383 670.83,-1383 670.83,-1383 674.67,-1383 678.5,-1386.83 678.5,-1390.67 678.5,-1390.67 678.5,-1398.33 678.5,-1398.33 678.5,-1402.17 674.67,-1406 670.83,-1406"/>
<text text-anchor="middle" x="598" y="-1390.8" font-family="Arial" font-size="14.00" fill="#cfffac">models/pedido.model.ts</text>
</g>
<!-- modules/cardapio/cardapio.component.ts -->
<g id="node41" class="node">
<title>modules/cardapio/cardapio.component.ts</title>
<path fill="none" stroke="#c6c5fe" d="M1075.33,-1224C1075.33,-1224 825.67,-1224 825.67,-1224 821.83,-1224 818,-1220.17 818,-1216.33 818,-1216.33 818,-1208.67 818,-1208.67 818,-1204.83 821.83,-1201 825.67,-1201 825.67,-1201 1075.33,-1201 1075.33,-1201 1079.17,-1201 1083,-1204.83 1083,-1208.67 1083,-1208.67 1083,-1216.33 1083,-1216.33 1083,-1220.17 1079.17,-1224 1075.33,-1224"/>
<text text-anchor="middle" x="950.5" y="-1208.8" font-family="Arial" font-size="14.00" fill="#c6c5fe">modules/cardapio/cardapio.component.ts</text>
</g>
<!-- modules/cardapio/cardapio.component.ts&#45;&gt;models/produto.model.ts -->
<g id="edge6" class="edge">
<title>modules/cardapio/cardapio.component.ts&#45;&gt;models/produto.model.ts</title>
<path fill="none" stroke="#757575" d="M1021.66,-1224.01C1041.65,-1227.92 1063.34,-1232.78 1083,-1238.5 1099.48,-1243.29 1102.54,-1247.61 1119,-1252.5 1155.36,-1263.3 1196.44,-1272.3 1231.17,-1279.01"/>
<polygon fill="#757575" stroke="#757575" points="1230.78,-1282.5 1241.25,-1280.93 1232.09,-1275.63 1230.78,-1282.5"/>
</g>
<!-- modules/cardapio/categoria/cardapio&#45;categoria.component.ts -->
<g id="node42" class="node">
<title>modules/cardapio/categoria/cardapio&#45;categoria.component.ts</title>
<path fill="none" stroke="#cfffac" d="M1495.33,-1203C1495.33,-1203 1126.67,-1203 1126.67,-1203 1122.83,-1203 1119,-1199.17 1119,-1195.33 1119,-1195.33 1119,-1187.67 1119,-1187.67 1119,-1183.83 1122.83,-1180 1126.67,-1180 1126.67,-1180 1495.33,-1180 1495.33,-1180 1499.17,-1180 1503,-1183.83 1503,-1187.67 1503,-1187.67 1503,-1195.33 1503,-1195.33 1503,-1199.17 1499.17,-1203 1495.33,-1203"/>
<text text-anchor="middle" x="1311" y="-1187.8" font-family="Arial" font-size="14.00" fill="#cfffac">modules/cardapio/categoria/cardapio&#45;categoria.component.ts</text>
</g>
<!-- modules/cardapio/cardapio.component.ts&#45;&gt;modules/cardapio/categoria/cardapio&#45;categoria.component.ts -->
<g id="edge7" class="edge">
<title>modules/cardapio/cardapio.component.ts&#45;&gt;modules/cardapio/categoria/cardapio&#45;categoria.component.ts</title>
<path fill="none" stroke="#757575" d="M1083.21,-1204.78C1091.61,-1204.29 1100.16,-1203.79 1108.78,-1203.29"/>
<polygon fill="#757575" stroke="#757575" points="1109.14,-1206.77 1118.92,-1202.69 1108.73,-1199.78 1109.14,-1206.77"/>
</g>
<!-- modules/cardapio/menu/cardapio&#45;menu.component.ts -->
<g id="node43" class="node">
<title>modules/cardapio/menu/cardapio&#45;menu.component.ts</title>
<path fill="none" stroke="#cfffac" d="M1474.33,-1244C1474.33,-1244 1147.67,-1244 1147.67,-1244 1143.83,-1244 1140,-1240.17 1140,-1236.33 1140,-1236.33 1140,-1228.67 1140,-1228.67 1140,-1224.83 1143.83,-1221 1147.67,-1221 1147.67,-1221 1474.33,-1221 1474.33,-1221 1478.17,-1221 1482,-1224.83 1482,-1228.67 1482,-1228.67 1482,-1236.33 1482,-1236.33 1482,-1240.17 1478.17,-1244 1474.33,-1244"/>
<text text-anchor="middle" x="1311" y="-1228.8" font-family="Arial" font-size="14.00" fill="#cfffac">modules/cardapio/menu/cardapio&#45;menu.component.ts</text>
</g>
<!-- modules/cardapio/cardapio.component.ts&#45;&gt;modules/cardapio/menu/cardapio&#45;menu.component.ts -->
<g id="edge8" class="edge">
<title>modules/cardapio/cardapio.component.ts&#45;&gt;modules/cardapio/menu/cardapio&#45;menu.component.ts</title>
<path fill="none" stroke="#757575" d="M1083.21,-1219.85C1098.37,-1220.69 1114.01,-1221.57 1129.67,-1222.44"/>
<polygon fill="#757575" stroke="#757575" points="1129.77,-1225.95 1139.95,-1223.01 1130.16,-1218.96 1129.77,-1225.95"/>
</g>
<!-- modules/cardapio/cardapio.routes.ts -->
<g id="node44" class="node">
<title>modules/cardapio/cardapio.routes.ts</title>
<path fill="none" stroke="#c6c5fe" d="M707.83,-1224C707.83,-1224 488.17,-1224 488.17,-1224 484.33,-1224 480.5,-1220.17 480.5,-1216.33 480.5,-1216.33 480.5,-1208.67 480.5,-1208.67 480.5,-1204.83 484.33,-1201 488.17,-1201 488.17,-1201 707.83,-1201 707.83,-1201 711.67,-1201 715.5,-1204.83 715.5,-1208.67 715.5,-1208.67 715.5,-1216.33 715.5,-1216.33 715.5,-1220.17 711.67,-1224 707.83,-1224"/>
<text text-anchor="middle" x="598" y="-1208.8" font-family="Arial" font-size="14.00" fill="#c6c5fe">modules/cardapio/cardapio.routes.ts</text>
</g>
<!-- modules/cardapio/cardapio.routes.ts&#45;&gt;modules/cardapio/cardapio.component.ts -->
<g id="edge9" class="edge">
<title>modules/cardapio/cardapio.routes.ts&#45;&gt;modules/cardapio/cardapio.component.ts</title>
<path fill="none" stroke="#757575" d="M715.71,-1212.5C745.14,-1212.5 777.06,-1212.5 807.58,-1212.5"/>
<polygon fill="#757575" stroke="#757575" points="807.87,-1216 817.87,-1212.5 807.87,-1209 807.87,-1216"/>
</g>
<!-- modules/contato/contato.component.ts -->
<g id="node45" class="node">
<title>modules/contato/contato.component.ts</title>
<path fill="none" stroke="#cfffac" d="M715.33,-1488C715.33,-1488 480.67,-1488 480.67,-1488 476.83,-1488 473,-1484.17 473,-1480.33 473,-1480.33 473,-1472.67 473,-1472.67 473,-1468.83 476.83,-1465 480.67,-1465 480.67,-1465 715.33,-1465 715.33,-1465 719.17,-1465 723,-1468.83 723,-1472.67 723,-1472.67 723,-1480.33 723,-1480.33 723,-1484.17 719.17,-1488 715.33,-1488"/>
<text text-anchor="middle" x="598" y="-1472.8" font-family="Arial" font-size="14.00" fill="#cfffac">modules/contato/contato.component.ts</text>
</g>
<!-- modules/contato/contato.routes.ts -->
<g id="node46" class="node">
<title>modules/contato/contato.routes.ts</title>
<path fill="none" stroke="#c6c5fe" d="M291.33,-1488C291.33,-1488 86.67,-1488 86.67,-1488 82.83,-1488 79,-1484.17 79,-1480.33 79,-1480.33 79,-1472.67 79,-1472.67 79,-1468.83 82.83,-1465 86.67,-1465 86.67,-1465 291.33,-1465 291.33,-1465 295.17,-1465 299,-1468.83 299,-1472.67 299,-1472.67 299,-1480.33 299,-1480.33 299,-1484.17 295.17,-1488 291.33,-1488"/>
<text text-anchor="middle" x="189" y="-1472.8" font-family="Arial" font-size="14.00" fill="#c6c5fe">modules/contato/contato.routes.ts</text>
</g>
<!-- modules/contato/contato.routes.ts&#45;&gt;modules/contato/contato.component.ts -->
<g id="edge10" class="edge">
<title>modules/contato/contato.routes.ts&#45;&gt;modules/contato/contato.component.ts</title>
<path fill="none" stroke="#757575" d="M299.07,-1476.5C349.39,-1476.5 409.62,-1476.5 462.71,-1476.5"/>
<polygon fill="#757575" stroke="#757575" points="462.88,-1480 472.88,-1476.5 462.88,-1473 462.88,-1480"/>
</g>
<!-- modules/footer/footer.component.ts -->
<g id="node47" class="node">
<title>modules/footer/footer.component.ts</title>
<path fill="none" stroke="#cfffac" d="M705.33,-1529C705.33,-1529 490.67,-1529 490.67,-1529 486.83,-1529 483,-1525.17 483,-1521.33 483,-1521.33 483,-1513.67 483,-1513.67 483,-1509.83 486.83,-1506 490.67,-1506 490.67,-1506 705.33,-1506 705.33,-1506 709.17,-1506 713,-1509.83 713,-1513.67 713,-1513.67 713,-1521.33 713,-1521.33 713,-1525.17 709.17,-1529 705.33,-1529"/>
<text text-anchor="middle" x="598" y="-1513.8" font-family="Arial" font-size="14.00" fill="#cfffac">modules/footer/footer.component.ts</text>
</g>
<!-- modules/footer/footer.routes.ts -->
<g id="node48" class="node">
<title>modules/footer/footer.routes.ts</title>
<path fill="none" stroke="#c6c5fe" d="M281.33,-1529C281.33,-1529 96.67,-1529 96.67,-1529 92.83,-1529 89,-1525.17 89,-1521.33 89,-1521.33 89,-1513.67 89,-1513.67 89,-1509.83 92.83,-1506 96.67,-1506 96.67,-1506 281.33,-1506 281.33,-1506 285.17,-1506 289,-1509.83 289,-1513.67 289,-1513.67 289,-1521.33 289,-1521.33 289,-1525.17 285.17,-1529 281.33,-1529"/>
<text text-anchor="middle" x="189" y="-1513.8" font-family="Arial" font-size="14.00" fill="#c6c5fe">modules/footer/footer.routes.ts</text>
</g>
<!-- modules/footer/footer.routes.ts&#45;&gt;modules/footer/footer.component.ts -->
<g id="edge11" class="edge">
<title>modules/footer/footer.routes.ts&#45;&gt;modules/footer/footer.component.ts</title>
<path fill="none" stroke="#757575" d="M289.04,-1517.5C344.32,-1517.5 413.7,-1517.5 472.6,-1517.5"/>
<polygon fill="#757575" stroke="#757575" points="472.72,-1521 482.72,-1517.5 472.72,-1514 472.72,-1521"/>
</g>
<!-- modules/header/header.Component.ts -->
<g id="node49" class="node">
<title>modules/header/header.Component.ts</title>
<path fill="none" stroke="#cfffac" d="M305.33,-1570C305.33,-1570 72.67,-1570 72.67,-1570 68.83,-1570 65,-1566.17 65,-1562.33 65,-1562.33 65,-1554.67 65,-1554.67 65,-1550.83 68.83,-1547 72.67,-1547 72.67,-1547 305.33,-1547 305.33,-1547 309.17,-1547 313,-1550.83 313,-1554.67 313,-1554.67 313,-1562.33 313,-1562.33 313,-1566.17 309.17,-1570 305.33,-1570"/>
<text text-anchor="middle" x="189" y="-1554.8" font-family="Arial" font-size="14.00" fill="#cfffac">modules/header/header.Component.ts</text>
</g>
<!-- modules/upload/file&#45;upload.component.ts -->
<g id="node50" class="node">
<title>modules/upload/file&#45;upload.component.ts</title>
<path fill="none" stroke="#cfffac" d="M313.33,-1611C313.33,-1611 64.67,-1611 64.67,-1611 60.83,-1611 57,-1607.17 57,-1603.33 57,-1603.33 57,-1595.67 57,-1595.67 57,-1591.83 60.83,-1588 64.67,-1588 64.67,-1588 313.33,-1588 313.33,-1588 317.17,-1588 321,-1591.83 321,-1595.67 321,-1595.67 321,-1603.33 321,-1603.33 321,-1607.17 317.17,-1611 313.33,-1611"/>
<text text-anchor="middle" x="189" y="-1595.8" font-family="Arial" font-size="14.00" fill="#cfffac">modules/upload/file&#45;upload.component.ts</text>
</g>
<!-- modules/upload/upload&#45;footer.component.ts -->
<g id="node51" class="node">
<title>modules/upload/upload&#45;footer.component.ts</title>
<path fill="none" stroke="#cfffac" d="M321.83,-1652C321.83,-1652 56.17,-1652 56.17,-1652 52.33,-1652 48.5,-1648.17 48.5,-1644.33 48.5,-1644.33 48.5,-1636.67 48.5,-1636.67 48.5,-1632.83 52.33,-1629 56.17,-1629 56.17,-1629 321.83,-1629 321.83,-1629 325.67,-1629 329.5,-1632.83 329.5,-1636.67 329.5,-1636.67 329.5,-1644.33 329.5,-1644.33 329.5,-1648.17 325.67,-1652 321.83,-1652"/>
<text text-anchor="middle" x="189" y="-1636.8" font-family="Arial" font-size="14.00" fill="#cfffac">modules/upload/upload&#45;footer.component.ts</text>
</g>
<!-- modules/upload/upload&#45;header.component.ts -->
<g id="node52" class="node">
<title>modules/upload/upload&#45;header.component.ts</title>
<path fill="none" stroke="#cfffac" d="M325.33,-1693C325.33,-1693 52.67,-1693 52.67,-1693 48.83,-1693 45,-1689.17 45,-1685.33 45,-1685.33 45,-1677.67 45,-1677.67 45,-1673.83 48.83,-1670 52.67,-1670 52.67,-1670 325.33,-1670 325.33,-1670 329.17,-1670 333,-1673.83 333,-1677.67 333,-1677.67 333,-1685.33 333,-1685.33 333,-1689.17 329.17,-1693 325.33,-1693"/>
<text text-anchor="middle" x="189" y="-1677.8" font-family="Arial" font-size="14.00" fill="#cfffac">modules/upload/upload&#45;header.component.ts</text>
</g>
<!-- modules/upload/upload.component.ts -->
<g id="node53" class="node">
<title>modules/upload/upload.component.ts</title>
<path fill="none" stroke="#cfffac" d="M302.33,-1734C302.33,-1734 75.67,-1734 75.67,-1734 71.83,-1734 68,-1730.17 68,-1726.33 68,-1726.33 68,-1718.67 68,-1718.67 68,-1714.83 71.83,-1711 75.67,-1711 75.67,-1711 302.33,-1711 302.33,-1711 306.17,-1711 310,-1714.83 310,-1718.67 310,-1718.67 310,-1726.33 310,-1726.33 310,-1730.17 306.17,-1734 302.33,-1734"/>
<text text-anchor="middle" x="189" y="-1718.8" font-family="Arial" font-size="14.00" fill="#cfffac">modules/upload/upload.component.ts</text>
</g>
<!-- services/cardapio.service.ts -->
<g id="node54" class="node">
<title>services/cardapio.service.ts</title>
<path fill="none" stroke="#c6c5fe" d="M1033.83,-1386C1033.83,-1386 867.17,-1386 867.17,-1386 863.33,-1386 859.5,-1382.17 859.5,-1378.33 859.5,-1378.33 859.5,-1370.67 859.5,-1370.67 859.5,-1366.83 863.33,-1363 867.17,-1363 867.17,-1363 1033.83,-1363 1033.83,-1363 1037.67,-1363 1041.5,-1366.83 1041.5,-1370.67 1041.5,-1370.67 1041.5,-1378.33 1041.5,-1378.33 1041.5,-1382.17 1037.67,-1386 1033.83,-1386"/>
<text text-anchor="middle" x="950.5" y="-1370.8" font-family="Arial" font-size="14.00" fill="#c6c5fe">services/cardapio.service.ts</text>
</g>
<!-- services/cardapio.service.ts&#45;&gt;models/produto.model.ts -->
<g id="edge12" class="edge">
<title>services/cardapio.service.ts&#45;&gt;models/produto.model.ts</title>
<path fill="none" stroke="#757575" d="M1032.07,-1363C1048.95,-1360.2 1066.61,-1357 1083,-1353.5 1145.46,-1340.16 1216.4,-1320.33 1262.1,-1306.93"/>
<polygon fill="#757575" stroke="#757575" points="1263.13,-1310.28 1271.74,-1304.09 1261.16,-1303.56 1263.13,-1310.28"/>
</g>
<!-- services/carrinho.interface.ts -->
<g id="node55" class="node">
<title>services/carrinho.interface.ts</title>
<path fill="none" stroke="#c6c5fe" d="M684.33,-1324C684.33,-1324 511.67,-1324 511.67,-1324 507.83,-1324 504,-1320.17 504,-1316.33 504,-1316.33 504,-1308.67 504,-1308.67 504,-1304.83 507.83,-1301 511.67,-1301 511.67,-1301 684.33,-1301 684.33,-1301 688.17,-1301 692,-1304.83 692,-1308.67 692,-1308.67 692,-1316.33 692,-1316.33 692,-1320.17 688.17,-1324 684.33,-1324"/>
<text text-anchor="middle" x="598" y="-1308.8" font-family="Arial" font-size="14.00" fill="#c6c5fe">services/carrinho.interface.ts</text>
</g>
<!-- services/carrinho.interface.ts&#45;&gt;models/itemCarrinho.model.ts -->
<g id="edge13" class="edge">
<title>services/carrinho.interface.ts&#45;&gt;models/itemCarrinho.model.ts</title>
<path fill="none" stroke="#757575" d="M692.01,-1318.07C737.92,-1320.82 793.58,-1324.16 841.38,-1327.02"/>
<polygon fill="#757575" stroke="#757575" points="841.27,-1330.52 851.46,-1327.63 841.68,-1323.53 841.27,-1330.52"/>
</g>
<!-- services/carrinho.service.ts -->
<g id="node56" class="node">
<title>services/carrinho.service.ts</title>
<path fill="none" stroke="#c6c5fe" d="M270.83,-1294C270.83,-1294 107.17,-1294 107.17,-1294 103.33,-1294 99.5,-1290.17 99.5,-1286.33 99.5,-1286.33 99.5,-1278.67 99.5,-1278.67 99.5,-1274.83 103.33,-1271 107.17,-1271 107.17,-1271 270.83,-1271 270.83,-1271 274.67,-1271 278.5,-1274.83 278.5,-1278.67 278.5,-1278.67 278.5,-1286.33 278.5,-1286.33 278.5,-1290.17 274.67,-1294 270.83,-1294"/>
<text text-anchor="middle" x="189" y="-1278.8" font-family="Arial" font-size="14.00" fill="#c6c5fe">services/carrinho.service.ts</text>
</g>
<!-- services/carrinho.service.ts&#45;&gt;models/produto.model.ts -->
<g id="edge14" class="edge">
<title>services/carrinho.service.ts&#45;&gt;models/produto.model.ts</title>
<path fill="none" stroke="#757575" d="M278.78,-1277.98C439.36,-1270.56 788.72,-1257.92 1083,-1271.5 1127.47,-1273.55 1176.68,-1277.86 1217.88,-1282.03"/>
<polygon fill="#757575" stroke="#757575" points="1217.6,-1285.52 1227.91,-1283.06 1218.32,-1278.56 1217.6,-1285.52"/>
</g>
<!-- services/carrinho.service.ts&#45;&gt;services/carrinho.interface.ts -->
<g id="edge15" class="edge">
<title>services/carrinho.service.ts&#45;&gt;services/carrinho.interface.ts</title>
<path fill="none" stroke="#757575" d="M278.56,-1289.03C341.84,-1293.69 427.19,-1299.98 493.59,-1304.88"/>
<polygon fill="#757575" stroke="#757575" points="493.44,-1308.38 503.67,-1305.62 493.95,-1301.39 493.44,-1308.38"/>
</g>
<!-- services/checkout.service.ts -->
<g id="node57" class="node">
<title>services/checkout.service.ts</title>
<path fill="none" stroke="#c6c5fe" d="M273.83,-1406C273.83,-1406 104.17,-1406 104.17,-1406 100.33,-1406 96.5,-1402.17 96.5,-1398.33 96.5,-1398.33 96.5,-1390.67 96.5,-1390.67 96.5,-1386.83 100.33,-1383 104.17,-1383 104.17,-1383 273.83,-1383 273.83,-1383 277.67,-1383 281.5,-1386.83 281.5,-1390.67 281.5,-1390.67 281.5,-1398.33 281.5,-1398.33 281.5,-1402.17 277.67,-1406 273.83,-1406"/>
<text text-anchor="middle" x="189" y="-1390.8" font-family="Arial" font-size="14.00" fill="#c6c5fe">services/checkout.service.ts</text>
</g>
<!-- services/checkout.service.ts&#45;&gt;models/criarPedido.model.ts -->
<g id="edge16" class="edge">
<title>services/checkout.service.ts&#45;&gt;models/criarPedido.model.ts</title>
<path fill="none" stroke="#757575" d="M281.59,-1403.73C344.56,-1410.07 428.28,-1418.5 493.64,-1425.09"/>
<polygon fill="#757575" stroke="#757575" points="493.66,-1428.61 503.97,-1426.13 494.37,-1421.64 493.66,-1428.61"/>
</g>
<!-- services/checkout.service.ts&#45;&gt;models/pedido.model.ts -->
<g id="edge17" class="edge">
<title>services/checkout.service.ts&#45;&gt;models/pedido.model.ts</title>
<path fill="none" stroke="#757575" d="M281.59,-1394.5C349.04,-1394.5 440.29,-1394.5 507.29,-1394.5"/>
<polygon fill="#757575" stroke="#757575" points="507.41,-1398 517.41,-1394.5 507.41,-1391 507.41,-1398"/>
</g>
<!-- services/checkout.service.ts&#45;&gt;services/carrinho.interface.ts -->
<g id="edge18" class="edge">
<title>services/checkout.service.ts&#45;&gt;services/carrinho.interface.ts</title>
<path fill="none" stroke="#757575" d="M281.91,-1397.53C313.82,-1395.21 348.88,-1388.69 378,-1373.5 399.5,-1362.29 392.49,-1343.69 414,-1332.5 438.14,-1319.95 466.46,-1313.53 493.51,-1310.56"/>
<polygon fill="#757575" stroke="#757575" points="494.18,-1314.01 503.8,-1309.58 493.52,-1307.04 494.18,-1314.01"/>
</g>
<!-- services/pedido.interface.ts -->
<g id="node58" class="node">
<title>services/pedido.interface.ts</title>
<path fill="none" stroke="#cfffac" d="M680.33,-1365C680.33,-1365 515.67,-1365 515.67,-1365 511.83,-1365 508,-1361.17 508,-1357.33 508,-1357.33 508,-1349.67 508,-1349.67 508,-1345.83 511.83,-1342 515.67,-1342 515.67,-1342 680.33,-1342 680.33,-1342 684.17,-1342 688,-1345.83 688,-1349.67 688,-1349.67 688,-1357.33 688,-1357.33 688,-1361.17 684.17,-1365 680.33,-1365"/>
<text text-anchor="middle" x="598" y="-1349.8" font-family="Arial" font-size="14.00" fill="#cfffac">services/pedido.interface.ts</text>
</g>
<!-- services/checkout.service.ts&#45;&gt;services/pedido.interface.ts -->
<g id="edge19" class="edge">
<title>services/checkout.service.ts&#45;&gt;services/pedido.interface.ts</title>
<path fill="none" stroke="#757575" d="M281.59,-1385.27C345.92,-1378.79 431.89,-1370.13 497.84,-1363.49"/>
<polygon fill="#757575" stroke="#757575" points="498.23,-1366.97 507.83,-1362.48 497.53,-1360 498.23,-1366.97"/>
</g>
<!-- services/estoque.service.ts -->
<g id="node59" class="node">
<title>services/estoque.service.ts</title>
<path fill="none" stroke="#c6c5fe" d="M1032.33,-1304C1032.33,-1304 868.67,-1304 868.67,-1304 864.83,-1304 861,-1300.17 861,-1296.33 861,-1296.33 861,-1288.67 861,-1288.67 861,-1284.83 864.83,-1281 868.67,-1281 868.67,-1281 1032.33,-1281 1032.33,-1281 1036.17,-1281 1040,-1284.83 1040,-1288.67 1040,-1288.67 1040,-1296.33 1040,-1296.33 1040,-1300.17 1036.17,-1304 1032.33,-1304"/>
<text text-anchor="middle" x="950.5" y="-1288.8" font-family="Arial" font-size="14.00" fill="#c6c5fe">services/estoque.service.ts</text>
</g>
<!-- services/estoque.service.ts&#45;&gt;models/produto.model.ts -->
<g id="edge20" class="edge">
<title>services/estoque.service.ts&#45;&gt;models/produto.model.ts</title>
<path fill="none" stroke="#757575" d="M1040.12,-1292.5C1094.19,-1292.5 1163.19,-1292.5 1217.89,-1292.5"/>
<polygon fill="#757575" stroke="#757575" points="1217.93,-1296 1227.92,-1292.5 1217.92,-1289 1217.93,-1296"/>
</g>
<!-- services/pedido.service.ts -->
<g id="node60" class="node">
<title>services/pedido.service.ts</title>
<path fill="none" stroke="#c6c5fe" d="M266.83,-1365C266.83,-1365 111.17,-1365 111.17,-1365 107.33,-1365 103.5,-1361.17 103.5,-1357.33 103.5,-1357.33 103.5,-1349.67 103.5,-1349.67 103.5,-1345.83 107.33,-1342 111.17,-1342 111.17,-1342 266.83,-1342 266.83,-1342 270.67,-1342 274.5,-1345.83 274.5,-1349.67 274.5,-1349.67 274.5,-1357.33 274.5,-1357.33 274.5,-1361.17 270.67,-1365 266.83,-1365"/>
<text text-anchor="middle" x="189" y="-1349.8" font-family="Arial" font-size="14.00" fill="#c6c5fe">services/pedido.service.ts</text>
</g>
<!-- services/pedido.service.ts&#45;&gt;services/pedido.interface.ts -->
<g id="edge21" class="edge">
<title>services/pedido.service.ts&#45;&gt;services/pedido.interface.ts</title>
<path fill="none" stroke="#757575" d="M274.83,-1353.5C339.64,-1353.5 429.15,-1353.5 497.37,-1353.5"/>
<polygon fill="#757575" stroke="#757575" points="497.7,-1357 507.7,-1353.5 497.7,-1350 497.7,-1357"/>
</g>
<!-- services/usuario.service.ts -->
<g id="node61" class="node">
<title>services/usuario.service.ts</title>
<path fill="none" stroke="#cfffac" d="M268.83,-1775C268.83,-1775 109.17,-1775 109.17,-1775 105.33,-1775 101.5,-1771.17 101.5,-1767.33 101.5,-1767.33 101.5,-1759.67 101.5,-1759.67 101.5,-1755.83 105.33,-1752 109.17,-1752 109.17,-1752 268.83,-1752 268.83,-1752 272.67,-1752 276.5,-1755.83 276.5,-1759.67 276.5,-1759.67 276.5,-1767.33 276.5,-1767.33 276.5,-1771.17 272.67,-1775 268.83,-1775"/>
<text text-anchor="middle" x="189" y="-1759.8" font-family="Arial" font-size="14.00" fill="#cfffac">services/usuario.service.ts</text>
</g>
<!-- shared/components/carrinho/carrinho&#45;modal.component.ts -->
<g id="node62" class="node">
<title>shared/components/carrinho/carrinho&#45;modal.component.ts</title>
<path fill="none" stroke="#cfffac" d="M774.33,-1816C774.33,-1816 421.67,-1816 421.67,-1816 417.83,-1816 414,-1812.17 414,-1808.33 414,-1808.33 414,-1800.67 414,-1800.67 414,-1796.83 417.83,-1793 421.67,-1793 421.67,-1793 774.33,-1793 774.33,-1793 778.17,-1793 782,-1796.83 782,-1800.67 782,-1800.67 782,-1808.33 782,-1808.33 782,-1812.17 778.17,-1816 774.33,-1816"/>
<text text-anchor="middle" x="598" y="-1800.8" font-family="Arial" font-size="14.00" fill="#cfffac">shared/components/carrinho/carrinho&#45;modal.component.ts</text>
</g>
<!-- shared/components/carrinho/carrinho.component.ts -->
<g id="node63" class="node">
<title>shared/components/carrinho/carrinho.component.ts</title>
<path fill="none" stroke="#c6c5fe" d="M344.33,-1816C344.33,-1816 33.67,-1816 33.67,-1816 29.83,-1816 26,-1812.17 26,-1808.33 26,-1808.33 26,-1800.67 26,-1800.67 26,-1796.83 29.83,-1793 33.67,-1793 33.67,-1793 344.33,-1793 344.33,-1793 348.17,-1793 352,-1796.83 352,-1800.67 352,-1800.67 352,-1808.33 352,-1808.33 352,-1812.17 348.17,-1816 344.33,-1816"/>
<text text-anchor="middle" x="189" y="-1800.8" font-family="Arial" font-size="14.00" fill="#c6c5fe">shared/components/carrinho/carrinho.component.ts</text>
</g>
<!-- shared/components/carrinho/carrinho.component.ts&#45;&gt;shared/components/carrinho/carrinho&#45;modal.component.ts -->
<g id="edge22" class="edge">
<title>shared/components/carrinho/carrinho.component.ts&#45;&gt;shared/components/carrinho/carrinho&#45;modal.component.ts</title>
<path fill="none" stroke="#757575" d="M352.03,-1804.5C368.98,-1804.5 386.34,-1804.5 403.6,-1804.5"/>
<polygon fill="#757575" stroke="#757575" points="403.75,-1808 413.75,-1804.5 403.75,-1801 403.75,-1808"/>
</g>
<!-- shared/components/depoimentos/depoimento.component.ts -->
<g id="node64" class="node">
<title>shared/components/depoimentos/depoimento.component.ts</title>
<path fill="none" stroke="#cfffac" d="M370.33,-1857C370.33,-1857 7.67,-1857 7.67,-1857 3.83,-1857 0,-1853.17 0,-1849.33 0,-1849.33 0,-1841.67 0,-1841.67 0,-1837.83 3.83,-1834 7.67,-1834 7.67,-1834 370.33,-1834 370.33,-1834 374.17,-1834 378,-1837.83 378,-1841.67 378,-1841.67 378,-1849.33 378,-1849.33 378,-1853.17 374.17,-1857 370.33,-1857"/>
<text text-anchor="middle" x="189" y="-1841.8" font-family="Arial" font-size="14.00" fill="#cfffac">shared/components/depoimentos/depoimento.component.ts</text>
</g>
<!-- shared/components/newsletter/newsletter.component.ts -->
<g id="node65" class="node">
<title>shared/components/newsletter/newsletter.component.ts</title>
<path fill="none" stroke="#cfffac" d="M356.83,-1898C356.83,-1898 21.17,-1898 21.17,-1898 17.33,-1898 13.5,-1894.17 13.5,-1890.33 13.5,-1890.33 13.5,-1882.67 13.5,-1882.67 13.5,-1878.83 17.33,-1875 21.17,-1875 21.17,-1875 356.83,-1875 356.83,-1875 360.67,-1875 364.5,-1878.83 364.5,-1882.67 364.5,-1882.67 364.5,-1890.33 364.5,-1890.33 364.5,-1894.17 360.67,-1898 356.83,-1898"/>
<text text-anchor="middle" x="189" y="-1882.8" font-family="Arial" font-size="14.00" fill="#cfffac">shared/components/newsletter/newsletter.component.ts</text>
</g>
<!-- shared/components/sobre/sobre.component.ts -->
<g id="node66" class="node">
<title>shared/components/sobre/sobre.component.ts</title>
<path fill="none" stroke="#cfffac" d="M329.33,-1939C329.33,-1939 48.67,-1939 48.67,-1939 44.83,-1939 41,-1935.17 41,-1931.33 41,-1931.33 41,-1923.67 41,-1923.67 41,-1919.83 44.83,-1916 48.67,-1916 48.67,-1916 329.33,-1916 329.33,-1916 333.17,-1916 337,-1919.83 337,-1923.67 337,-1923.67 337,-1931.33 337,-1931.33 337,-1935.17 333.17,-1939 329.33,-1939"/>
<text text-anchor="middle" x="189" y="-1923.8" font-family="Arial" font-size="14.00" fill="#cfffac">shared/components/sobre/sobre.component.ts</text>
</g>
<!-- shared/enums/statusEnum.enum.ts -->
<g id="node67" class="node">
<title>shared/enums/statusEnum.enum.ts</title>
<path fill="none" stroke="#cfffac" d="M296.83,-1980C296.83,-1980 81.17,-1980 81.17,-1980 77.33,-1980 73.5,-1976.17 73.5,-1972.33 73.5,-1972.33 73.5,-1964.67 73.5,-1964.67 73.5,-1960.83 77.33,-1957 81.17,-1957 81.17,-1957 296.83,-1957 296.83,-1957 300.67,-1957 304.5,-1960.83 304.5,-1964.67 304.5,-1964.67 304.5,-1972.33 304.5,-1972.33 304.5,-1976.17 300.67,-1980 296.83,-1980"/>
<text text-anchor="middle" x="189" y="-1964.8" font-family="Arial" font-size="14.00" fill="#cfffac">shared/enums/statusEnum.enum.ts</text>
</g>
<!-- shared/icons.ts -->
<g id="node68" class="node">
<title>shared/icons.ts</title>
<path fill="none" stroke="#cfffac" d="M234.83,-2021C234.83,-2021 143.17,-2021 143.17,-2021 139.33,-2021 135.5,-2017.17 135.5,-2013.33 135.5,-2013.33 135.5,-2005.67 135.5,-2005.67 135.5,-2001.83 139.33,-1998 143.17,-1998 143.17,-1998 234.83,-1998 234.83,-1998 238.67,-1998 242.5,-2001.83 242.5,-2005.67 242.5,-2005.67 242.5,-2013.33 242.5,-2013.33 242.5,-2017.17 238.67,-2021 234.83,-2021"/>
<text text-anchor="middle" x="189" y="-2005.8" font-family="Arial" font-size="14.00" fill="#cfffac">shared/icons.ts</text>
</g>
<!-- shared/shared.module.ts -->
<g id="node69" class="node">
<title>shared/shared.module.ts</title>
<path fill="none" stroke="#cfffac" d="M264.33,-2062C264.33,-2062 113.67,-2062 113.67,-2062 109.83,-2062 106,-2058.17 106,-2054.33 106,-2054.33 106,-2046.67 106,-2046.67 106,-2042.83 109.83,-2039 113.67,-2039 113.67,-2039 264.33,-2039 264.33,-2039 268.17,-2039 272,-2042.83 272,-2046.67 272,-2046.67 272,-2054.33 272,-2054.33 272,-2058.17 268.17,-2062 264.33,-2062"/>
<text text-anchor="middle" x="189" y="-2046.8" font-family="Arial" font-size="14.00" fill="#cfffac">shared/shared.module.ts</text>
</g>
<!-- shared/util/card/card&#45;footer.component.ts -->
<g id="node70" class="node">
<title>shared/util/card/card&#45;footer.component.ts</title>
<path fill="none" stroke="#cfffac" d="M312.83,-2103C312.83,-2103 65.17,-2103 65.17,-2103 61.33,-2103 57.5,-2099.17 57.5,-2095.33 57.5,-2095.33 57.5,-2087.67 57.5,-2087.67 57.5,-2083.83 61.33,-2080 65.17,-2080 65.17,-2080 312.83,-2080 312.83,-2080 316.67,-2080 320.5,-2083.83 320.5,-2087.67 320.5,-2087.67 320.5,-2095.33 320.5,-2095.33 320.5,-2099.17 316.67,-2103 312.83,-2103"/>
<text text-anchor="middle" x="189" y="-2087.8" font-family="Arial" font-size="14.00" fill="#cfffac">shared/util/card/card&#45;footer.component.ts</text>
</g>
<!-- shared/util/card/card.component.ts -->
<g id="node71" class="node">
<title>shared/util/card/card.component.ts</title>
<path fill="none" stroke="#cfffac" d="M293.33,-2144C293.33,-2144 84.67,-2144 84.67,-2144 80.83,-2144 77,-2140.17 77,-2136.33 77,-2136.33 77,-2128.67 77,-2128.67 77,-2124.83 80.83,-2121 84.67,-2121 84.67,-2121 293.33,-2121 293.33,-2121 297.17,-2121 301,-2124.83 301,-2128.67 301,-2128.67 301,-2136.33 301,-2136.33 301,-2140.17 297.17,-2144 293.33,-2144"/>
<text text-anchor="middle" x="189" y="-2128.8" font-family="Arial" font-size="14.00" fill="#cfffac">shared/util/card/card.component.ts</text>
</g>
</g>
</svg>
