<?xml version="1.0" encoding="UTF-8" standalone="no"?>
<!DOCTYPE svg PUBLIC "-//W3C//DTD SVG 1.1//EN"
 "http://www.w3.org/Graphics/SVG/1.1/DTD/svg11.dtd">
<!-- Generated by graphviz version 2.43.0 (0)
 -->
<!-- Title: G Pages: 1 -->
<svg width="1245pt" height="2321pt"
 viewBox="0.00 0.00 1245.20 2321.20" xmlns="http://www.w3.org/2000/svg" xmlns:xlink="http://www.w3.org/1999/xlink">
<g id="graph0" class="graph" transform="scale(1 1) rotate(0) translate(21.6 2299.6)">
<title>G</title>
<polygon fill="#111111" stroke="transparent" points="-21.6,21.6 -21.6,-2299.6 1223.6,-2299.6 1223.6,21.6 -21.6,21.6"/>
<!-- app.component.ts -->
<g id="node1" class="node">
<title>app.component.ts</title>
<path fill="none" stroke="#cfffac" d="M243.83,-23C243.83,-23 134.17,-23 134.17,-23 130.33,-23 126.5,-19.17 126.5,-15.33 126.5,-15.33 126.5,-7.67 126.5,-7.67 126.5,-3.83 130.33,0 134.17,0 134.17,0 243.83,0 243.83,0 247.67,0 251.5,-3.83 251.5,-7.67 251.5,-7.67 251.5,-15.33 251.5,-15.33 251.5,-19.17 247.67,-23 243.83,-23"/>
<text text-anchor="middle" x="189" y="-7.8" font-family="Arial" font-size="14.00" fill="#cfffac">app.component.ts</text>
</g>
<!-- app.routes.ts -->
<g id="node2" class="node">
<title>app.routes.ts</title>
<path fill="none" stroke="#c6c5fe" d="M228.83,-64C228.83,-64 149.17,-64 149.17,-64 145.33,-64 141.5,-60.17 141.5,-56.33 141.5,-56.33 141.5,-48.67 141.5,-48.67 141.5,-44.83 145.33,-41 149.17,-41 149.17,-41 228.83,-41 228.83,-41 232.67,-41 236.5,-44.83 236.5,-48.67 236.5,-48.67 236.5,-56.33 236.5,-56.33 236.5,-60.17 232.67,-64 228.83,-64"/>
<text text-anchor="middle" x="189" y="-48.8" font-family="Arial" font-size="14.00" fill="#c6c5fe">app.routes.ts</text>
</g>
<!-- core/guards/auth.guard.ts -->
<g id="node3" class="node">
<title>core/guards/auth.guard.ts</title>
<path fill="none" stroke="#cfffac" d="M675.33,-105C675.33,-105 520.67,-105 520.67,-105 516.83,-105 513,-101.17 513,-97.33 513,-97.33 513,-89.67 513,-89.67 513,-85.83 516.83,-82 520.67,-82 520.67,-82 675.33,-82 675.33,-82 679.17,-82 683,-85.83 683,-89.67 683,-89.67 683,-97.33 683,-97.33 683,-101.17 679.17,-105 675.33,-105"/>
<text text-anchor="middle" x="598" y="-89.8" font-family="Arial" font-size="14.00" fill="#cfffac">core/guards/auth.guard.ts</text>
</g>
<!-- app.routes.ts&#45;&gt;core/guards/auth.guard.ts -->
<g id="edge1" class="edge">
<title>app.routes.ts&#45;&gt;core/guards/auth.guard.ts</title>
<path fill="none" stroke="#757575" d="M236.69,-57.2C301.3,-63.71 419.41,-75.61 502.76,-84.01"/>
<polygon fill="#757575" stroke="#757575" points="502.45,-87.49 512.75,-85.01 503.15,-80.53 502.45,-87.49"/>
</g>
<!-- core/layout/home/home.routes.ts -->
<g id="node4" class="node">
<title>core/layout/home/home.routes.ts</title>
<path fill="none" stroke="#cfffac" d="M697.83,-64C697.83,-64 498.17,-64 498.17,-64 494.33,-64 490.5,-60.17 490.5,-56.33 490.5,-56.33 490.5,-48.67 490.5,-48.67 490.5,-44.83 494.33,-41 498.17,-41 498.17,-41 697.83,-41 697.83,-41 701.67,-41 705.5,-44.83 705.5,-48.67 705.5,-48.67 705.5,-56.33 705.5,-56.33 705.5,-60.17 701.67,-64 697.83,-64"/>
<text text-anchor="middle" x="598" y="-48.8" font-family="Arial" font-size="14.00" fill="#cfffac">core/layout/home/home.routes.ts</text>
</g>
<!-- app.routes.ts&#45;&gt;core/layout/home/home.routes.ts -->
<g id="edge2" class="edge">
<title>app.routes.ts&#45;&gt;core/layout/home/home.routes.ts</title>
<path fill="none" stroke="#757575" d="M236.69,-52.5C295.66,-52.5 399.2,-52.5 480.2,-52.5"/>
<polygon fill="#757575" stroke="#757575" points="480.47,-56 490.47,-52.5 480.47,-49 480.47,-56"/>
</g>
<!-- modules/upload/file&#45;upload.routes.ts -->
<g id="node5" class="node">
<title>modules/upload/file&#45;upload.routes.ts</title>
<path fill="none" stroke="#cfffac" d="M707.33,-23C707.33,-23 488.67,-23 488.67,-23 484.83,-23 481,-19.17 481,-15.33 481,-15.33 481,-7.67 481,-7.67 481,-3.83 484.83,0 488.67,0 488.67,0 707.33,0 707.33,0 711.17,0 715,-3.83 715,-7.67 715,-7.67 715,-15.33 715,-15.33 715,-19.17 711.17,-23 707.33,-23"/>
<text text-anchor="middle" x="598" y="-7.8" font-family="Arial" font-size="14.00" fill="#cfffac">modules/upload/file&#45;upload.routes.ts</text>
</g>
<!-- app.routes.ts&#45;&gt;modules/upload/file&#45;upload.routes.ts -->
<g id="edge3" class="edge">
<title>app.routes.ts&#45;&gt;modules/upload/file&#45;upload.routes.ts</title>
<path fill="none" stroke="#757575" d="M236.69,-47.8C293.76,-42.05 392.57,-32.09 472.3,-24.06"/>
<polygon fill="#757575" stroke="#757575" points="472.82,-27.53 482.42,-23.04 472.12,-20.56 472.82,-27.53"/>
</g>
<!-- core/auth/auth&#45;config.ts -->
<g id="node6" class="node">
<title>core/auth/auth&#45;config.ts</title>
<path fill="none" stroke="#cfffac" d="M260.33,-105C260.33,-105 117.67,-105 117.67,-105 113.83,-105 110,-101.17 110,-97.33 110,-97.33 110,-89.67 110,-89.67 110,-85.83 113.83,-82 117.67,-82 117.67,-82 260.33,-82 260.33,-82 264.17,-82 268,-85.83 268,-89.67 268,-89.67 268,-97.33 268,-97.33 268,-101.17 264.17,-105 260.33,-105"/>
<text text-anchor="middle" x="189" y="-89.8" font-family="Arial" font-size="14.00" fill="#cfffac">core/auth/auth&#45;config.ts</text>
</g>
<!-- core/auth/auth.service.ts -->
<g id="node7" class="node">
<title>core/auth/auth.service.ts</title>
<path fill="none" stroke="#cfffac" d="M263.33,-146C263.33,-146 114.67,-146 114.67,-146 110.83,-146 107,-142.17 107,-138.33 107,-138.33 107,-130.67 107,-130.67 107,-126.83 110.83,-123 114.67,-123 114.67,-123 263.33,-123 263.33,-123 267.17,-123 271,-126.83 271,-130.67 271,-130.67 271,-138.33 271,-138.33 271,-142.17 267.17,-146 263.33,-146"/>
<text text-anchor="middle" x="189" y="-130.8" font-family="Arial" font-size="14.00" fill="#cfffac">core/auth/auth.service.ts</text>
</g>
<!-- core/auth/seguranca/models/usuario.model.ts -->
<g id="node8" class="node">
<title>core/auth/seguranca/models/usuario.model.ts</title>
<path fill="none" stroke="#cfffac" d="M326.83,-187C326.83,-187 51.17,-187 51.17,-187 47.33,-187 43.5,-183.17 43.5,-179.33 43.5,-179.33 43.5,-171.67 43.5,-171.67 43.5,-167.83 47.33,-164 51.17,-164 51.17,-164 326.83,-164 326.83,-164 330.67,-164 334.5,-167.83 334.5,-171.67 334.5,-171.67 334.5,-179.33 334.5,-179.33 334.5,-183.17 330.67,-187 326.83,-187"/>
<text text-anchor="middle" x="189" y="-171.8" font-family="Arial" font-size="14.00" fill="#cfffac">core/auth/seguranca/models/usuario.model.ts</text>
</g>
<!-- core/components/base.component.ts -->
<g id="node9" class="node">
<title>core/components/base.component.ts</title>
<path fill="none" stroke="#cfffac" d="M300.83,-228C300.83,-228 77.17,-228 77.17,-228 73.33,-228 69.5,-224.17 69.5,-220.33 69.5,-220.33 69.5,-212.67 69.5,-212.67 69.5,-208.83 73.33,-205 77.17,-205 77.17,-205 300.83,-205 300.83,-205 304.67,-205 308.5,-208.83 308.5,-212.67 308.5,-212.67 308.5,-220.33 308.5,-220.33 308.5,-224.17 304.67,-228 300.83,-228"/>
<text text-anchor="middle" x="189" y="-212.8" font-family="Arial" font-size="14.00" fill="#cfffac">core/components/base.component.ts</text>
</g>
<!-- core/components/buttons/action&#45;button.component.ts -->
<g id="node10" class="node">
<title>core/components/buttons/action&#45;button.component.ts</title>
<path fill="none" stroke="#cfffac" d="M349.33,-269C349.33,-269 28.67,-269 28.67,-269 24.83,-269 21,-265.17 21,-261.33 21,-261.33 21,-253.67 21,-253.67 21,-249.83 24.83,-246 28.67,-246 28.67,-246 349.33,-246 349.33,-246 353.17,-246 357,-249.83 357,-253.67 357,-253.67 357,-261.33 357,-261.33 357,-265.17 353.17,-269 349.33,-269"/>
<text text-anchor="middle" x="189" y="-253.8" font-family="Arial" font-size="14.00" fill="#cfffac">core/components/buttons/action&#45;button.component.ts</text>
</g>
<!-- core/components/form/form&#45;data.component.ts -->
<g id="node11" class="node">
<title>core/components/form/form&#45;data.component.ts</title>
<path fill="none" stroke="#cfffac" d="M331.33,-310C331.33,-310 46.67,-310 46.67,-310 42.83,-310 39,-306.17 39,-302.33 39,-302.33 39,-294.67 39,-294.67 39,-290.83 42.83,-287 46.67,-287 46.67,-287 331.33,-287 331.33,-287 335.17,-287 339,-290.83 339,-294.67 339,-294.67 339,-302.33 339,-302.33 339,-306.17 335.17,-310 331.33,-310"/>
<text text-anchor="middle" x="189" y="-294.8" font-family="Arial" font-size="14.00" fill="#cfffac">core/components/form/form&#45;data.component.ts</text>
</g>
<!-- core/components/form/form&#45;header.component.ts -->
<g id="node12" class="node">
<title>core/components/form/form&#45;header.component.ts</title>
<path fill="none" stroke="#cfffac" d="M338.83,-351C338.83,-351 39.17,-351 39.17,-351 35.33,-351 31.5,-347.17 31.5,-343.33 31.5,-343.33 31.5,-335.67 31.5,-335.67 31.5,-331.83 35.33,-328 39.17,-328 39.17,-328 338.83,-328 338.83,-328 342.67,-328 346.5,-331.83 346.5,-335.67 346.5,-335.67 346.5,-343.33 346.5,-343.33 346.5,-347.17 342.67,-351 338.83,-351"/>
<text text-anchor="middle" x="189" y="-335.8" font-family="Arial" font-size="14.00" fill="#cfffac">core/components/form/form&#45;header.component.ts</text>
</g>
<!-- core/components/models/entity.model.ts -->
<g id="node13" class="node">
<title>core/components/models/entity.model.ts</title>
<path fill="none" stroke="#cfffac" d="M311.33,-392C311.33,-392 66.67,-392 66.67,-392 62.83,-392 59,-388.17 59,-384.33 59,-384.33 59,-376.67 59,-376.67 59,-372.83 62.83,-369 66.67,-369 66.67,-369 311.33,-369 311.33,-369 315.17,-369 319,-372.83 319,-376.67 319,-376.67 319,-384.33 319,-384.33 319,-388.17 315.17,-392 311.33,-392"/>
<text text-anchor="middle" x="189" y="-376.8" font-family="Arial" font-size="14.00" fill="#cfffac">core/components/models/entity.model.ts</text>
</g>
<!-- core/components/models/menu&#45;item.model.ts -->
<g id="node14" class="node">
<title>core/components/models/menu&#45;item.model.ts</title>
<path fill="none" stroke="#cfffac" d="M327.83,-433C327.83,-433 50.17,-433 50.17,-433 46.33,-433 42.5,-429.17 42.5,-425.33 42.5,-425.33 42.5,-417.67 42.5,-417.67 42.5,-413.83 46.33,-410 50.17,-410 50.17,-410 327.83,-410 327.83,-410 331.67,-410 335.5,-413.83 335.5,-417.67 335.5,-417.67 335.5,-425.33 335.5,-425.33 335.5,-429.17 331.67,-433 327.83,-433"/>
<text text-anchor="middle" x="189" y="-417.8" font-family="Arial" font-size="14.00" fill="#cfffac">core/components/models/menu&#45;item.model.ts</text>
</g>
<!-- core/components/models/user.model.ts -->
<g id="node15" class="node">
<title>core/components/models/user.model.ts</title>
<path fill="none" stroke="#cfffac" d="M308.33,-474C308.33,-474 69.67,-474 69.67,-474 65.83,-474 62,-470.17 62,-466.33 62,-466.33 62,-458.67 62,-458.67 62,-454.83 65.83,-451 69.67,-451 69.67,-451 308.33,-451 308.33,-451 312.17,-451 316,-454.83 316,-458.67 316,-458.67 316,-466.33 316,-466.33 316,-470.17 312.17,-474 308.33,-474"/>
<text text-anchor="middle" x="189" y="-458.8" font-family="Arial" font-size="14.00" fill="#cfffac">core/components/models/user.model.ts</text>
</g>
<!-- core/components/page&#45;layout/empty&#45;page.component.ts -->
<g id="node16" class="node">
<title>core/components/page&#45;layout/empty&#45;page.component.ts</title>
<path fill="none" stroke="#cfffac" d="M359.33,-515C359.33,-515 18.67,-515 18.67,-515 14.83,-515 11,-511.17 11,-507.33 11,-507.33 11,-499.67 11,-499.67 11,-495.83 14.83,-492 18.67,-492 18.67,-492 359.33,-492 359.33,-492 363.17,-492 367,-495.83 367,-499.67 367,-499.67 367,-507.33 367,-507.33 367,-511.17 363.17,-515 359.33,-515"/>
<text text-anchor="middle" x="189" y="-499.8" font-family="Arial" font-size="14.00" fill="#cfffac">core/components/page&#45;layout/empty&#45;page.component.ts</text>
</g>
<!-- core/components/refreshable.component.ts -->
<g id="node17" class="node">
<title>core/components/refreshable.component.ts</title>
<path fill="none" stroke="#cfffac" d="M320.33,-556C320.33,-556 57.67,-556 57.67,-556 53.83,-556 50,-552.17 50,-548.33 50,-548.33 50,-540.67 50,-540.67 50,-536.83 53.83,-533 57.67,-533 57.67,-533 320.33,-533 320.33,-533 324.17,-533 328,-536.83 328,-540.67 328,-540.67 328,-548.33 328,-548.33 328,-552.17 324.17,-556 320.33,-556"/>
<text text-anchor="middle" x="189" y="-540.8" font-family="Arial" font-size="14.00" fill="#cfffac">core/components/refreshable.component.ts</text>
</g>
<!-- core/constants/app.constants.ts -->
<g id="node18" class="node">
<title>core/constants/app.constants.ts</title>
<path fill="none" stroke="#cfffac" d="M693.33,-597C693.33,-597 502.67,-597 502.67,-597 498.83,-597 495,-593.17 495,-589.33 495,-589.33 495,-581.67 495,-581.67 495,-577.83 498.83,-574 502.67,-574 502.67,-574 693.33,-574 693.33,-574 697.17,-574 701,-577.83 701,-581.67 701,-581.67 701,-589.33 701,-589.33 701,-593.17 697.17,-597 693.33,-597"/>
<text text-anchor="middle" x="598" y="-581.8" font-family="Arial" font-size="14.00" fill="#cfffac">core/constants/app.constants.ts</text>
</g>
<!-- core/interceptors/auth.interceptor.ts -->
<g id="node19" class="node">
<title>core/interceptors/auth.interceptor.ts</title>
<path fill="none" stroke="#cfffac" d="M295.33,-638C295.33,-638 82.67,-638 82.67,-638 78.83,-638 75,-634.17 75,-630.33 75,-630.33 75,-622.67 75,-622.67 75,-618.83 78.83,-615 82.67,-615 82.67,-615 295.33,-615 295.33,-615 299.17,-615 303,-618.83 303,-622.67 303,-622.67 303,-630.33 303,-630.33 303,-634.17 299.17,-638 295.33,-638"/>
<text text-anchor="middle" x="189" y="-622.8" font-family="Arial" font-size="14.00" fill="#cfffac">core/interceptors/auth.interceptor.ts</text>
</g>
<!-- core/layout/home/home.component.ts -->
<g id="node20" class="node">
<title>core/layout/home/home.component.ts</title>
<path fill="none" stroke="#cfffac" d="M303.83,-679C303.83,-679 74.17,-679 74.17,-679 70.33,-679 66.5,-675.17 66.5,-671.33 66.5,-671.33 66.5,-663.67 66.5,-663.67 66.5,-659.83 70.33,-656 74.17,-656 74.17,-656 303.83,-656 303.83,-656 307.67,-656 311.5,-659.83 311.5,-663.67 311.5,-663.67 311.5,-671.33 311.5,-671.33 311.5,-675.17 307.67,-679 303.83,-679"/>
<text text-anchor="middle" x="189" y="-663.8" font-family="Arial" font-size="14.00" fill="#cfffac">core/layout/home/home.component.ts</text>
</g>
<!-- core/layout/menu&#45;item/menu&#45;item.component.ts -->
<g id="node21" class="node">
<title>core/layout/menu&#45;item/menu&#45;item.component.ts</title>
<path fill="none" stroke="#cfffac" d="M334.33,-720C334.33,-720 43.67,-720 43.67,-720 39.83,-720 36,-716.17 36,-712.33 36,-712.33 36,-704.67 36,-704.67 36,-700.83 39.83,-697 43.67,-697 43.67,-697 334.33,-697 334.33,-697 338.17,-697 342,-700.83 342,-704.67 342,-704.67 342,-712.33 342,-712.33 342,-716.17 338.17,-720 334.33,-720"/>
<text text-anchor="middle" x="189" y="-704.8" font-family="Arial" font-size="14.00" fill="#cfffac">core/layout/menu&#45;item/menu&#45;item.component.ts</text>
</g>
<!-- core/layout/menu/menu.component.ts -->
<g id="node22" class="node">
<title>core/layout/menu/menu.component.ts</title>
<path fill="none" stroke="#cfffac" d="M303.83,-761C303.83,-761 74.17,-761 74.17,-761 70.33,-761 66.5,-757.17 66.5,-753.33 66.5,-753.33 66.5,-745.67 66.5,-745.67 66.5,-741.83 70.33,-738 74.17,-738 74.17,-738 303.83,-738 303.83,-738 307.67,-738 311.5,-741.83 311.5,-745.67 311.5,-745.67 311.5,-753.33 311.5,-753.33 311.5,-757.17 307.67,-761 303.83,-761"/>
<text text-anchor="middle" x="189" y="-745.8" font-family="Arial" font-size="14.00" fill="#cfffac">core/layout/menu/menu.component.ts</text>
</g>
<!-- core/services/config.service.ts -->
<g id="node23" class="node">
<title>core/services/config.service.ts</title>
<path fill="none" stroke="#c6c5fe" d="M279.83,-597C279.83,-597 98.17,-597 98.17,-597 94.33,-597 90.5,-593.17 90.5,-589.33 90.5,-589.33 90.5,-581.67 90.5,-581.67 90.5,-577.83 94.33,-574 98.17,-574 98.17,-574 279.83,-574 279.83,-574 283.67,-574 287.5,-577.83 287.5,-581.67 287.5,-581.67 287.5,-589.33 287.5,-589.33 287.5,-593.17 283.67,-597 279.83,-597"/>
<text text-anchor="middle" x="189" y="-581.8" font-family="Arial" font-size="14.00" fill="#c6c5fe">core/services/config.service.ts</text>
</g>
<!-- core/services/config.service.ts&#45;&gt;core/constants/app.constants.ts -->
<g id="edge4" class="edge">
<title>core/services/config.service.ts&#45;&gt;core/constants/app.constants.ts</title>
<path fill="none" stroke="#757575" d="M287.75,-585.5C347.01,-585.5 422.84,-585.5 484.58,-585.5"/>
<polygon fill="#757575" stroke="#757575" points="484.76,-589 494.76,-585.5 484.76,-582 484.76,-589"/>
</g>
<!-- core/services/crud.service.ts -->
<g id="node24" class="node">
<title>core/services/crud.service.ts</title>
<path fill="none" stroke="#cfffac" d="M274.83,-802C274.83,-802 103.17,-802 103.17,-802 99.33,-802 95.5,-798.17 95.5,-794.33 95.5,-794.33 95.5,-786.67 95.5,-786.67 95.5,-782.83 99.33,-779 103.17,-779 103.17,-779 274.83,-779 274.83,-779 278.67,-779 282.5,-782.83 282.5,-786.67 282.5,-786.67 282.5,-794.33 282.5,-794.33 282.5,-798.17 278.67,-802 274.83,-802"/>
<text text-anchor="middle" x="189" y="-786.8" font-family="Arial" font-size="14.00" fill="#cfffac">core/services/crud.service.ts</text>
</g>
<!-- core/services/query.service.ts -->
<g id="node25" class="node">
<title>core/services/query.service.ts</title>
<path fill="none" stroke="#cfffac" d="M278.33,-843C278.33,-843 99.67,-843 99.67,-843 95.83,-843 92,-839.17 92,-835.33 92,-835.33 92,-827.67 92,-827.67 92,-823.83 95.83,-820 99.67,-820 99.67,-820 278.33,-820 278.33,-820 282.17,-820 286,-823.83 286,-827.67 286,-827.67 286,-835.33 286,-835.33 286,-839.17 282.17,-843 278.33,-843"/>
<text text-anchor="middle" x="189" y="-827.8" font-family="Arial" font-size="14.00" fill="#cfffac">core/services/query.service.ts</text>
</g>
<!-- core/store/data&#45;store.ts -->
<g id="node26" class="node">
<title>core/store/data&#45;store.ts</title>
<path fill="none" stroke="#cfffac" d="M258.83,-884C258.83,-884 119.17,-884 119.17,-884 115.33,-884 111.5,-880.17 111.5,-876.33 111.5,-876.33 111.5,-868.67 111.5,-868.67 111.5,-864.83 115.33,-861 119.17,-861 119.17,-861 258.83,-861 258.83,-861 262.67,-861 266.5,-864.83 266.5,-868.67 266.5,-868.67 266.5,-876.33 266.5,-876.33 266.5,-880.17 262.67,-884 258.83,-884"/>
<text text-anchor="middle" x="189" y="-868.8" font-family="Arial" font-size="14.00" fill="#cfffac">core/store/data&#45;store.ts</text>
</g>
<!-- core/store/unique&#45;data.store.ts -->
<g id="node27" class="node">
<title>core/store/unique&#45;data.store.ts</title>
<path fill="none" stroke="#cfffac" d="M281.33,-925C281.33,-925 96.67,-925 96.67,-925 92.83,-925 89,-921.17 89,-917.33 89,-917.33 89,-909.67 89,-909.67 89,-905.83 92.83,-902 96.67,-902 96.67,-902 281.33,-902 281.33,-902 285.17,-902 289,-905.83 289,-909.67 289,-909.67 289,-917.33 289,-917.33 289,-921.17 285.17,-925 281.33,-925"/>
<text text-anchor="middle" x="189" y="-909.8" font-family="Arial" font-size="14.00" fill="#cfffac">core/store/unique&#45;data.store.ts</text>
</g>
<!-- core/translate/translate&#45;loader&#45;factory.ts -->
<g id="node28" class="node">
<title>core/translate/translate&#45;loader&#45;factory.ts</title>
<path fill="none" stroke="#cfffac" d="M308.33,-966C308.33,-966 69.67,-966 69.67,-966 65.83,-966 62,-962.17 62,-958.33 62,-958.33 62,-950.67 62,-950.67 62,-946.83 65.83,-943 69.67,-943 69.67,-943 308.33,-943 308.33,-943 312.17,-943 316,-946.83 316,-950.67 316,-950.67 316,-958.33 316,-958.33 316,-962.17 312.17,-966 308.33,-966"/>
<text text-anchor="middle" x="189" y="-950.8" font-family="Arial" font-size="14.00" fill="#cfffac">core/translate/translate&#45;loader&#45;factory.ts</text>
</g>
<!-- core/util/icon&#45;util.ts -->
<g id="node29" class="node">
<title>core/util/icon&#45;util.ts</title>
<path fill="none" stroke="#cfffac" d="M245.33,-1007C245.33,-1007 132.67,-1007 132.67,-1007 128.83,-1007 125,-1003.17 125,-999.33 125,-999.33 125,-991.67 125,-991.67 125,-987.83 128.83,-984 132.67,-984 132.67,-984 245.33,-984 245.33,-984 249.17,-984 253,-987.83 253,-991.67 253,-991.67 253,-999.33 253,-999.33 253,-1003.17 249.17,-1007 245.33,-1007"/>
<text text-anchor="middle" x="189" y="-991.8" font-family="Arial" font-size="14.00" fill="#cfffac">core/util/icon&#45;util.ts</text>
</g>
<!-- layout/layout.component.ts -->
<g id="node30" class="node">
<title>layout/layout.component.ts</title>
<path fill="none" stroke="#cfffac" d="M270.33,-1048C270.33,-1048 107.67,-1048 107.67,-1048 103.83,-1048 100,-1044.17 100,-1040.33 100,-1040.33 100,-1032.67 100,-1032.67 100,-1028.83 103.83,-1025 107.67,-1025 107.67,-1025 270.33,-1025 270.33,-1025 274.17,-1025 278,-1028.83 278,-1032.67 278,-1032.67 278,-1040.33 278,-1040.33 278,-1044.17 274.17,-1048 270.33,-1048"/>
<text text-anchor="middle" x="189" y="-1032.8" font-family="Arial" font-size="14.00" fill="#cfffac">layout/layout.component.ts</text>
</g>
<!-- layout/pages/error/bad&#45;request.component.ts -->
<g id="node31" class="node">
<title>layout/pages/error/bad&#45;request.component.ts</title>
<path fill="none" stroke="#cfffac" d="M324.83,-1089C324.83,-1089 53.17,-1089 53.17,-1089 49.33,-1089 45.5,-1085.17 45.5,-1081.33 45.5,-1081.33 45.5,-1073.67 45.5,-1073.67 45.5,-1069.83 49.33,-1066 53.17,-1066 53.17,-1066 324.83,-1066 324.83,-1066 328.67,-1066 332.5,-1069.83 332.5,-1073.67 332.5,-1073.67 332.5,-1081.33 332.5,-1081.33 332.5,-1085.17 328.67,-1089 324.83,-1089"/>
<text text-anchor="middle" x="189" y="-1073.8" font-family="Arial" font-size="14.00" fill="#cfffac">layout/pages/error/bad&#45;request.component.ts</text>
</g>
<!-- layout/pages/error/components/error&#45;details.component.ts -->
<g id="node32" class="node">
<title>layout/pages/error/components/error&#45;details.component.ts</title>
<path fill="none" stroke="#cfffac" d="M363.83,-1130C363.83,-1130 14.17,-1130 14.17,-1130 10.33,-1130 6.5,-1126.17 6.5,-1122.33 6.5,-1122.33 6.5,-1114.67 6.5,-1114.67 6.5,-1110.83 10.33,-1107 14.17,-1107 14.17,-1107 363.83,-1107 363.83,-1107 367.67,-1107 371.5,-1110.83 371.5,-1114.67 371.5,-1114.67 371.5,-1122.33 371.5,-1122.33 371.5,-1126.17 367.67,-1130 363.83,-1130"/>
<text text-anchor="middle" x="189" y="-1114.8" font-family="Arial" font-size="14.00" fill="#cfffac">layout/pages/error/components/error&#45;details.component.ts</text>
</g>
<!-- layout/pages/error/empty&#45;page&#45;layout.component.ts -->
<g id="node33" class="node">
<title>layout/pages/error/empty&#45;page&#45;layout.component.ts</title>
<path fill="none" stroke="#cfffac" d="M344.83,-1171C344.83,-1171 33.17,-1171 33.17,-1171 29.33,-1171 25.5,-1167.17 25.5,-1163.33 25.5,-1163.33 25.5,-1155.67 25.5,-1155.67 25.5,-1151.83 29.33,-1148 33.17,-1148 33.17,-1148 344.83,-1148 344.83,-1148 348.67,-1148 352.5,-1151.83 352.5,-1155.67 352.5,-1155.67 352.5,-1163.33 352.5,-1163.33 352.5,-1167.17 348.67,-1171 344.83,-1171"/>
<text text-anchor="middle" x="189" y="-1155.8" font-family="Arial" font-size="14.00" fill="#cfffac">layout/pages/error/empty&#45;page&#45;layout.component.ts</text>
</g>
<!-- layout/pages/error/page&#45;not&#45;found.component.ts -->
<g id="node34" class="node">
<title>layout/pages/error/page&#45;not&#45;found.component.ts</title>
<path fill="none" stroke="#cfffac" d="M334.33,-1212C334.33,-1212 43.67,-1212 43.67,-1212 39.83,-1212 36,-1208.17 36,-1204.33 36,-1204.33 36,-1196.67 36,-1196.67 36,-1192.83 39.83,-1189 43.67,-1189 43.67,-1189 334.33,-1189 334.33,-1189 338.17,-1189 342,-1192.83 342,-1196.67 342,-1196.67 342,-1204.33 342,-1204.33 342,-1208.17 338.17,-1212 334.33,-1212"/>
<text text-anchor="middle" x="189" y="-1196.8" font-family="Arial" font-size="14.00" fill="#cfffac">layout/pages/error/page&#45;not&#45;found.component.ts</text>
</g>
<!-- models/alterarQuantidade.model.ts -->
<g id="node35" class="node">
<title>models/alterarQuantidade.model.ts</title>
<path fill="none" stroke="#cfffac" d="M295.83,-1253C295.83,-1253 82.17,-1253 82.17,-1253 78.33,-1253 74.5,-1249.17 74.5,-1245.33 74.5,-1245.33 74.5,-1237.67 74.5,-1237.67 74.5,-1233.83 78.33,-1230 82.17,-1230 82.17,-1230 295.83,-1230 295.83,-1230 299.67,-1230 303.5,-1233.83 303.5,-1237.67 303.5,-1237.67 303.5,-1245.33 303.5,-1245.33 303.5,-1249.17 299.67,-1253 295.83,-1253"/>
<text text-anchor="middle" x="189" y="-1237.8" font-family="Arial" font-size="14.00" fill="#cfffac">models/alterarQuantidade.model.ts</text>
</g>
<!-- models/criarPedido.model.ts -->
<g id="node36" class="node">
<title>models/criarPedido.model.ts</title>
<path fill="none" stroke="#cfffac" d="M684.33,-1581C684.33,-1581 511.67,-1581 511.67,-1581 507.83,-1581 504,-1577.17 504,-1573.33 504,-1573.33 504,-1565.67 504,-1565.67 504,-1561.83 507.83,-1558 511.67,-1558 511.67,-1558 684.33,-1558 684.33,-1558 688.17,-1558 692,-1561.83 692,-1565.67 692,-1565.67 692,-1573.33 692,-1573.33 692,-1577.17 688.17,-1581 684.33,-1581"/>
<text text-anchor="middle" x="598" y="-1565.8" font-family="Arial" font-size="14.00" fill="#cfffac">models/criarPedido.model.ts</text>
</g>
<!-- models/itemCarrinho.model.ts -->
<g id="node37" class="node">
<title>models/itemCarrinho.model.ts</title>
<path fill="none" stroke="#c6c5fe" d="M689.33,-1417C689.33,-1417 506.67,-1417 506.67,-1417 502.83,-1417 499,-1413.17 499,-1409.33 499,-1409.33 499,-1401.67 499,-1401.67 499,-1397.83 502.83,-1394 506.67,-1394 506.67,-1394 689.33,-1394 689.33,-1394 693.17,-1394 697,-1397.83 697,-1401.67 697,-1401.67 697,-1409.33 697,-1409.33 697,-1413.17 693.17,-1417 689.33,-1417"/>
<text text-anchor="middle" x="598" y="-1401.8" font-family="Arial" font-size="14.00" fill="#c6c5fe">models/itemCarrinho.model.ts</text>
</g>
<!-- models/produto.model.ts -->
<g id="node38" class="node">
<title>models/produto.model.ts</title>
<path fill="none" stroke="#cfffac" d="M1085.33,-1376C1085.33,-1376 934.67,-1376 934.67,-1376 930.83,-1376 927,-1372.17 927,-1368.33 927,-1368.33 927,-1360.67 927,-1360.67 927,-1356.83 930.83,-1353 934.67,-1353 934.67,-1353 1085.33,-1353 1085.33,-1353 1089.17,-1353 1093,-1356.83 1093,-1360.67 1093,-1360.67 1093,-1368.33 1093,-1368.33 1093,-1372.17 1089.17,-1376 1085.33,-1376"/>
<text text-anchor="middle" x="1010" y="-1360.8" font-family="Arial" font-size="14.00" fill="#cfffac">models/produto.model.ts</text>
</g>
<!-- models/itemCarrinho.model.ts&#45;&gt;models/produto.model.ts -->
<g id="edge5" class="edge">
<title>models/itemCarrinho.model.ts&#45;&gt;models/produto.model.ts</title>
<path fill="none" stroke="#757575" d="M697.21,-1395.68C763.77,-1389.02 851.17,-1380.28 916.5,-1373.75"/>
<polygon fill="#757575" stroke="#757575" points="917.18,-1377.2 926.79,-1372.72 916.49,-1370.23 917.18,-1377.2"/>
</g>
<!-- models/itemPedido.model.ts -->
<g id="node39" class="node">
<title>models/itemPedido.model.ts</title>
<path fill="none" stroke="#cfffac" d="M275.33,-1571C275.33,-1571 102.67,-1571 102.67,-1571 98.83,-1571 95,-1567.17 95,-1563.33 95,-1563.33 95,-1555.67 95,-1555.67 95,-1551.83 98.83,-1548 102.67,-1548 102.67,-1548 275.33,-1548 275.33,-1548 279.17,-1548 283,-1551.83 283,-1555.67 283,-1555.67 283,-1563.33 283,-1563.33 283,-1567.17 279.17,-1571 275.33,-1571"/>
<text text-anchor="middle" x="189" y="-1555.8" font-family="Arial" font-size="14.00" fill="#cfffac">models/itemPedido.model.ts</text>
</g>
<!-- models/pedido.model.ts -->
<g id="node40" class="node">
<title>models/pedido.model.ts</title>
<path fill="none" stroke="#cfffac" d="M670.83,-1540C670.83,-1540 525.17,-1540 525.17,-1540 521.33,-1540 517.5,-1536.17 517.5,-1532.33 517.5,-1532.33 517.5,-1524.67 517.5,-1524.67 517.5,-1520.83 521.33,-1517 525.17,-1517 525.17,-1517 670.83,-1517 670.83,-1517 674.67,-1517 678.5,-1520.83 678.5,-1524.67 678.5,-1524.67 678.5,-1532.33 678.5,-1532.33 678.5,-1536.17 674.67,-1540 670.83,-1540"/>
<text text-anchor="middle" x="598" y="-1524.8" font-family="Arial" font-size="14.00" fill="#cfffac">models/pedido.model.ts</text>
</g>
<!-- modules/cardapio/cardapio.component.ts -->
<g id="node41" class="node">
<title>modules/cardapio/cardapio.component.ts</title>
<path fill="none" stroke="#c6c5fe" d="M722.83,-1294C722.83,-1294 473.17,-1294 473.17,-1294 469.33,-1294 465.5,-1290.17 465.5,-1286.33 465.5,-1286.33 465.5,-1278.67 465.5,-1278.67 465.5,-1274.83 469.33,-1271 473.17,-1271 473.17,-1271 722.83,-1271 722.83,-1271 726.67,-1271 730.5,-1274.83 730.5,-1278.67 730.5,-1278.67 730.5,-1286.33 730.5,-1286.33 730.5,-1290.17 726.67,-1294 722.83,-1294"/>
<text text-anchor="middle" x="598" y="-1278.8" font-family="Arial" font-size="14.00" fill="#c6c5fe">modules/cardapio/cardapio.component.ts</text>
</g>
<!-- modules/cardapio/cardapio.component.ts&#45;&gt;models/produto.model.ts -->
<g id="edge6" class="edge">
<title>modules/cardapio/cardapio.component.ts&#45;&gt;models/produto.model.ts</title>
<path fill="none" stroke="#757575" d="M730.78,-1290.52C748.23,-1293.43 765.71,-1297.32 782,-1302.5 799.44,-1308.05 800.88,-1316.02 818,-1322.5 851.24,-1335.08 889.23,-1344.39 922.52,-1351.01"/>
<polygon fill="#757575" stroke="#757575" points="922.21,-1354.51 932.7,-1352.98 923.54,-1347.64 922.21,-1354.51"/>
</g>
<!-- modules/cardapio/categoria/cardapio&#45;categoria.component.ts -->
<g id="node42" class="node">
<title>modules/cardapio/categoria/cardapio&#45;categoria.component.ts</title>
<path fill="none" stroke="#cfffac" d="M1194.33,-1314C1194.33,-1314 825.67,-1314 825.67,-1314 821.83,-1314 818,-1310.17 818,-1306.33 818,-1306.33 818,-1298.67 818,-1298.67 818,-1294.83 821.83,-1291 825.67,-1291 825.67,-1291 1194.33,-1291 1194.33,-1291 1198.17,-1291 1202,-1294.83 1202,-1298.67 1202,-1298.67 1202,-1306.33 1202,-1306.33 1202,-1310.17 1198.17,-1314 1194.33,-1314"/>
<text text-anchor="middle" x="1010" y="-1298.8" font-family="Arial" font-size="14.00" fill="#cfffac">modules/cardapio/categoria/cardapio&#45;categoria.component.ts</text>
</g>
<!-- modules/cardapio/cardapio.component.ts&#45;&gt;modules/cardapio/categoria/cardapio&#45;categoria.component.ts -->
<g id="edge7" class="edge">
<title>modules/cardapio/cardapio.component.ts&#45;&gt;modules/cardapio/categoria/cardapio&#45;categoria.component.ts</title>
<path fill="none" stroke="#757575" d="M730.7,-1288.92C755.31,-1290.12 781.53,-1291.4 807.68,-1292.68"/>
<polygon fill="#757575" stroke="#757575" points="807.53,-1296.18 817.69,-1293.17 807.88,-1289.18 807.53,-1296.18"/>
</g>
<!-- modules/cardapio/menu/cardapio&#45;menu.component.ts -->
<g id="node43" class="node">
<title>modules/cardapio/menu/cardapio&#45;menu.component.ts</title>
<path fill="none" stroke="#cfffac" d="M1173.33,-1273C1173.33,-1273 846.67,-1273 846.67,-1273 842.83,-1273 839,-1269.17 839,-1265.33 839,-1265.33 839,-1257.67 839,-1257.67 839,-1253.83 842.83,-1250 846.67,-1250 846.67,-1250 1173.33,-1250 1173.33,-1250 1177.17,-1250 1181,-1253.83 1181,-1257.67 1181,-1257.67 1181,-1265.33 1181,-1265.33 1181,-1269.17 1177.17,-1273 1173.33,-1273"/>
<text text-anchor="middle" x="1010" y="-1257.8" font-family="Arial" font-size="14.00" fill="#cfffac">modules/cardapio/menu/cardapio&#45;menu.component.ts</text>
</g>
<!-- modules/cardapio/cardapio.component.ts&#45;&gt;modules/cardapio/menu/cardapio&#45;menu.component.ts -->
<g id="edge8" class="edge">
<title>modules/cardapio/cardapio.component.ts&#45;&gt;modules/cardapio/menu/cardapio&#45;menu.component.ts</title>
<path fill="none" stroke="#757575" d="M730.7,-1275.75C761.9,-1274.16 795.7,-1272.43 828.64,-1270.74"/>
<polygon fill="#757575" stroke="#757575" points="829.02,-1274.22 838.83,-1270.22 828.66,-1267.23 829.02,-1274.22"/>
</g>
<!-- modules/cardapio/cardapio.routes.ts -->
<g id="node44" class="node">
<title>modules/cardapio/cardapio.routes.ts</title>
<path fill="none" stroke="#c6c5fe" d="M298.83,-1294C298.83,-1294 79.17,-1294 79.17,-1294 75.33,-1294 71.5,-1290.17 71.5,-1286.33 71.5,-1286.33 71.5,-1278.67 71.5,-1278.67 71.5,-1274.83 75.33,-1271 79.17,-1271 79.17,-1271 298.83,-1271 298.83,-1271 302.67,-1271 306.5,-1274.83 306.5,-1278.67 306.5,-1278.67 306.5,-1286.33 306.5,-1286.33 306.5,-1290.17 302.67,-1294 298.83,-1294"/>
<text text-anchor="middle" x="189" y="-1278.8" font-family="Arial" font-size="14.00" fill="#c6c5fe">modules/cardapio/cardapio.routes.ts</text>
</g>
<!-- modules/cardapio/cardapio.routes.ts&#45;&gt;modules/cardapio/cardapio.component.ts -->
<g id="edge9" class="edge">
<title>modules/cardapio/cardapio.routes.ts&#45;&gt;modules/cardapio/cardapio.component.ts</title>
<path fill="none" stroke="#757575" d="M306.63,-1282.5C352.9,-1282.5 406.55,-1282.5 455.05,-1282.5"/>
<polygon fill="#757575" stroke="#757575" points="455.32,-1286 465.32,-1282.5 455.32,-1279 455.32,-1286"/>
</g>
<!-- modules/contato/contato.component.ts -->
<g id="node45" class="node">
<title>modules/contato/contato.component.ts</title>
<path fill="none" stroke="#cfffac" d="M715.33,-1622C715.33,-1622 480.67,-1622 480.67,-1622 476.83,-1622 473,-1618.17 473,-1614.33 473,-1614.33 473,-1606.67 473,-1606.67 473,-1602.83 476.83,-1599 480.67,-1599 480.67,-1599 715.33,-1599 715.33,-1599 719.17,-1599 723,-1602.83 723,-1606.67 723,-1606.67 723,-1614.33 723,-1614.33 723,-1618.17 719.17,-1622 715.33,-1622"/>
<text text-anchor="middle" x="598" y="-1606.8" font-family="Arial" font-size="14.00" fill="#cfffac">modules/contato/contato.component.ts</text>
</g>
<!-- modules/contato/contato.routes.ts -->
<g id="node46" class="node">
<title>modules/contato/contato.routes.ts</title>
<path fill="none" stroke="#c6c5fe" d="M291.33,-1622C291.33,-1622 86.67,-1622 86.67,-1622 82.83,-1622 79,-1618.17 79,-1614.33 79,-1614.33 79,-1606.67 79,-1606.67 79,-1602.83 82.83,-1599 86.67,-1599 86.67,-1599 291.33,-1599 291.33,-1599 295.17,-1599 299,-1602.83 299,-1606.67 299,-1606.67 299,-1614.33 299,-1614.33 299,-1618.17 295.17,-1622 291.33,-1622"/>
<text text-anchor="middle" x="189" y="-1606.8" font-family="Arial" font-size="14.00" fill="#c6c5fe">modules/contato/contato.routes.ts</text>
</g>
<!-- modules/contato/contato.routes.ts&#45;&gt;modules/contato/contato.component.ts -->
<g id="edge10" class="edge">
<title>modules/contato/contato.routes.ts&#45;&gt;modules/contato/contato.component.ts</title>
<path fill="none" stroke="#757575" d="M299.07,-1610.5C349.39,-1610.5 409.62,-1610.5 462.71,-1610.5"/>
<polygon fill="#757575" stroke="#757575" points="462.88,-1614 472.88,-1610.5 462.88,-1607 462.88,-1614"/>
</g>
<!-- modules/footer/footer.component.ts -->
<g id="node47" class="node">
<title>modules/footer/footer.component.ts</title>
<path fill="none" stroke="#cfffac" d="M705.33,-1663C705.33,-1663 490.67,-1663 490.67,-1663 486.83,-1663 483,-1659.17 483,-1655.33 483,-1655.33 483,-1647.67 483,-1647.67 483,-1643.83 486.83,-1640 490.67,-1640 490.67,-1640 705.33,-1640 705.33,-1640 709.17,-1640 713,-1643.83 713,-1647.67 713,-1647.67 713,-1655.33 713,-1655.33 713,-1659.17 709.17,-1663 705.33,-1663"/>
<text text-anchor="middle" x="598" y="-1647.8" font-family="Arial" font-size="14.00" fill="#cfffac">modules/footer/footer.component.ts</text>
</g>
<!-- modules/footer/footer.routes.ts -->
<g id="node48" class="node">
<title>modules/footer/footer.routes.ts</title>
<path fill="none" stroke="#c6c5fe" d="M281.33,-1663C281.33,-1663 96.67,-1663 96.67,-1663 92.83,-1663 89,-1659.17 89,-1655.33 89,-1655.33 89,-1647.67 89,-1647.67 89,-1643.83 92.83,-1640 96.67,-1640 96.67,-1640 281.33,-1640 281.33,-1640 285.17,-1640 289,-1643.83 289,-1647.67 289,-1647.67 289,-1655.33 289,-1655.33 289,-1659.17 285.17,-1663 281.33,-1663"/>
<text text-anchor="middle" x="189" y="-1647.8" font-family="Arial" font-size="14.00" fill="#c6c5fe">modules/footer/footer.routes.ts</text>
</g>
<!-- modules/footer/footer.routes.ts&#45;&gt;modules/footer/footer.component.ts -->
<g id="edge11" class="edge">
<title>modules/footer/footer.routes.ts&#45;&gt;modules/footer/footer.component.ts</title>
<path fill="none" stroke="#757575" d="M289.04,-1651.5C344.32,-1651.5 413.7,-1651.5 472.6,-1651.5"/>
<polygon fill="#757575" stroke="#757575" points="472.72,-1655 482.72,-1651.5 472.72,-1648 472.72,-1655"/>
</g>
<!-- modules/header/header.Component.ts -->
<g id="node49" class="node">
<title>modules/header/header.Component.ts</title>
<path fill="none" stroke="#cfffac" d="M305.33,-1704C305.33,-1704 72.67,-1704 72.67,-1704 68.83,-1704 65,-1700.17 65,-1696.33 65,-1696.33 65,-1688.67 65,-1688.67 65,-1684.83 68.83,-1681 72.67,-1681 72.67,-1681 305.33,-1681 305.33,-1681 309.17,-1681 313,-1684.83 313,-1688.67 313,-1688.67 313,-1696.33 313,-1696.33 313,-1700.17 309.17,-1704 305.33,-1704"/>
<text text-anchor="middle" x="189" y="-1688.8" font-family="Arial" font-size="14.00" fill="#cfffac">modules/header/header.Component.ts</text>
</g>
<!-- modules/upload/file&#45;upload.component.ts -->
<g id="node50" class="node">
<title>modules/upload/file&#45;upload.component.ts</title>
<path fill="none" stroke="#cfffac" d="M313.33,-1745C313.33,-1745 64.67,-1745 64.67,-1745 60.83,-1745 57,-1741.17 57,-1737.33 57,-1737.33 57,-1729.67 57,-1729.67 57,-1725.83 60.83,-1722 64.67,-1722 64.67,-1722 313.33,-1722 313.33,-1722 317.17,-1722 321,-1725.83 321,-1729.67 321,-1729.67 321,-1737.33 321,-1737.33 321,-1741.17 317.17,-1745 313.33,-1745"/>
<text text-anchor="middle" x="189" y="-1729.8" font-family="Arial" font-size="14.00" fill="#cfffac">modules/upload/file&#45;upload.component.ts</text>
</g>
<!-- modules/upload/upload&#45;footer.component.ts -->
<g id="node51" class="node">
<title>modules/upload/upload&#45;footer.component.ts</title>
<path fill="none" stroke="#cfffac" d="M321.83,-1786C321.83,-1786 56.17,-1786 56.17,-1786 52.33,-1786 48.5,-1782.17 48.5,-1778.33 48.5,-1778.33 48.5,-1770.67 48.5,-1770.67 48.5,-1766.83 52.33,-1763 56.17,-1763 56.17,-1763 321.83,-1763 321.83,-1763 325.67,-1763 329.5,-1766.83 329.5,-1770.67 329.5,-1770.67 329.5,-1778.33 329.5,-1778.33 329.5,-1782.17 325.67,-1786 321.83,-1786"/>
<text text-anchor="middle" x="189" y="-1770.8" font-family="Arial" font-size="14.00" fill="#cfffac">modules/upload/upload&#45;footer.component.ts</text>
</g>
<!-- modules/upload/upload&#45;header.component.ts -->
<g id="node52" class="node">
<title>modules/upload/upload&#45;header.component.ts</title>
<path fill="none" stroke="#cfffac" d="M325.33,-1827C325.33,-1827 52.67,-1827 52.67,-1827 48.83,-1827 45,-1823.17 45,-1819.33 45,-1819.33 45,-1811.67 45,-1811.67 45,-1807.83 48.83,-1804 52.67,-1804 52.67,-1804 325.33,-1804 325.33,-1804 329.17,-1804 333,-1807.83 333,-1811.67 333,-1811.67 333,-1819.33 333,-1819.33 333,-1823.17 329.17,-1827 325.33,-1827"/>
<text text-anchor="middle" x="189" y="-1811.8" font-family="Arial" font-size="14.00" fill="#cfffac">modules/upload/upload&#45;header.component.ts</text>
</g>
<!-- modules/upload/upload.component.ts -->
<g id="node53" class="node">
<title>modules/upload/upload.component.ts</title>
<path fill="none" stroke="#cfffac" d="M302.33,-1868C302.33,-1868 75.67,-1868 75.67,-1868 71.83,-1868 68,-1864.17 68,-1860.33 68,-1860.33 68,-1852.67 68,-1852.67 68,-1848.83 71.83,-1845 75.67,-1845 75.67,-1845 302.33,-1845 302.33,-1845 306.17,-1845 310,-1848.83 310,-1852.67 310,-1852.67 310,-1860.33 310,-1860.33 310,-1864.17 306.17,-1868 302.33,-1868"/>
<text text-anchor="middle" x="189" y="-1852.8" font-family="Arial" font-size="14.00" fill="#cfffac">modules/upload/upload.component.ts</text>
</g>
<!-- services/cardapio.service.ts -->
<g id="node54" class="node">
<title>services/cardapio.service.ts</title>
<path fill="none" stroke="#c6c5fe" d="M681.33,-1376C681.33,-1376 514.67,-1376 514.67,-1376 510.83,-1376 507,-1372.17 507,-1368.33 507,-1368.33 507,-1360.67 507,-1360.67 507,-1356.83 510.83,-1353 514.67,-1353 514.67,-1353 681.33,-1353 681.33,-1353 685.17,-1353 689,-1356.83 689,-1360.67 689,-1360.67 689,-1368.33 689,-1368.33 689,-1372.17 685.17,-1376 681.33,-1376"/>
<text text-anchor="middle" x="598" y="-1360.8" font-family="Arial" font-size="14.00" fill="#c6c5fe">services/cardapio.service.ts</text>
</g>
<!-- services/cardapio.service.ts&#45;&gt;models/produto.model.ts -->
<g id="edge12" class="edge">
<title>services/cardapio.service.ts&#45;&gt;models/produto.model.ts</title>
<path fill="none" stroke="#757575" d="M689.23,-1364.5C756.73,-1364.5 848.73,-1364.5 916.72,-1364.5"/>
<polygon fill="#757575" stroke="#757575" points="917,-1368 927,-1364.5 917,-1361 917,-1368"/>
</g>
<!-- services/carrinho.service.ts -->
<g id="node55" class="node">
<title>services/carrinho.service.ts</title>
<path fill="none" stroke="#c6c5fe" d="M679.83,-1499C679.83,-1499 516.17,-1499 516.17,-1499 512.33,-1499 508.5,-1495.17 508.5,-1491.33 508.5,-1491.33 508.5,-1483.67 508.5,-1483.67 508.5,-1479.83 512.33,-1476 516.17,-1476 516.17,-1476 679.83,-1476 679.83,-1476 683.67,-1476 687.5,-1479.83 687.5,-1483.67 687.5,-1483.67 687.5,-1491.33 687.5,-1491.33 687.5,-1495.17 683.67,-1499 679.83,-1499"/>
<text text-anchor="middle" x="598" y="-1483.8" font-family="Arial" font-size="14.00" fill="#c6c5fe">services/carrinho.service.ts</text>
</g>
<!-- services/carrinho.service.ts&#45;&gt;models/produto.model.ts -->
<g id="edge13" class="edge">
<title>services/carrinho.service.ts&#45;&gt;models/produto.model.ts</title>
<path fill="none" stroke="#757575" d="M687.56,-1483.51C717.89,-1480.65 751.79,-1475.78 782,-1467.5 856.89,-1446.98 938.32,-1404.63 980.32,-1381.12"/>
<polygon fill="#757575" stroke="#757575" points="982.17,-1384.1 989.16,-1376.13 978.73,-1378 982.17,-1384.1"/>
</g>
<!-- services/checkout.service.ts -->
<g id="node56" class="node">
<title>services/checkout.service.ts</title>
<path fill="none" stroke="#c6c5fe" d="M273.83,-1510C273.83,-1510 104.17,-1510 104.17,-1510 100.33,-1510 96.5,-1506.17 96.5,-1502.33 96.5,-1502.33 96.5,-1494.67 96.5,-1494.67 96.5,-1490.83 100.33,-1487 104.17,-1487 104.17,-1487 273.83,-1487 273.83,-1487 277.67,-1487 281.5,-1490.83 281.5,-1494.67 281.5,-1494.67 281.5,-1502.33 281.5,-1502.33 281.5,-1506.17 277.67,-1510 273.83,-1510"/>
<text text-anchor="middle" x="189" y="-1494.8" font-family="Arial" font-size="14.00" fill="#c6c5fe">services/checkout.service.ts</text>
</g>
<!-- services/checkout.service.ts&#45;&gt;models/criarPedido.model.ts -->
<g id="edge14" class="edge">
<title>services/checkout.service.ts&#45;&gt;models/criarPedido.model.ts</title>
<path fill="none" stroke="#757575" d="M246.96,-1510.05C284.34,-1517.85 334.23,-1528.66 378,-1539.5 394.12,-1543.49 397.69,-1546.37 414,-1549.5 439.74,-1554.45 467.78,-1558.28 493.99,-1561.2"/>
<polygon fill="#757575" stroke="#757575" points="493.62,-1564.68 503.94,-1562.28 494.37,-1557.72 493.62,-1564.68"/>
</g>
<!-- services/checkout.service.ts&#45;&gt;models/pedido.model.ts -->
<g id="edge15" class="edge">
<title>services/checkout.service.ts&#45;&gt;models/pedido.model.ts</title>
<path fill="none" stroke="#757575" d="M281.59,-1505.25C349.04,-1510.22 440.29,-1516.95 507.29,-1521.89"/>
<polygon fill="#757575" stroke="#757575" points="507.18,-1525.39 517.41,-1522.63 507.69,-1518.41 507.18,-1525.39"/>
</g>
<!-- services/checkout.service.ts&#45;&gt;services/carrinho.service.ts -->
<g id="edge16" class="edge">
<title>services/checkout.service.ts&#45;&gt;services/carrinho.service.ts</title>
<path fill="none" stroke="#757575" d="M281.59,-1496.02C346.03,-1494.28 432.19,-1491.95 498.18,-1490.17"/>
<polygon fill="#757575" stroke="#757575" points="498.27,-1493.67 508.17,-1489.9 498.08,-1486.67 498.27,-1493.67"/>
</g>
<!-- services/pedido.service.ts -->
<g id="node57" class="node">
<title>services/pedido.service.ts</title>
<path fill="none" stroke="#cfffac" d="M675.83,-1458C675.83,-1458 520.17,-1458 520.17,-1458 516.33,-1458 512.5,-1454.17 512.5,-1450.33 512.5,-1450.33 512.5,-1442.67 512.5,-1442.67 512.5,-1438.83 516.33,-1435 520.17,-1435 520.17,-1435 675.83,-1435 675.83,-1435 679.67,-1435 683.5,-1438.83 683.5,-1442.67 683.5,-1442.67 683.5,-1450.33 683.5,-1450.33 683.5,-1454.17 679.67,-1458 675.83,-1458"/>
<text text-anchor="middle" x="598" y="-1442.8" font-family="Arial" font-size="14.00" fill="#cfffac">services/pedido.service.ts</text>
</g>
<!-- services/checkout.service.ts&#45;&gt;services/pedido.service.ts -->
<g id="edge17" class="edge">
<title>services/checkout.service.ts&#45;&gt;services/pedido.service.ts</title>
<path fill="none" stroke="#757575" d="M270.03,-1486.96C312.73,-1480.93 366.19,-1473.55 414,-1467.5 442.54,-1463.89 473.62,-1460.22 501.92,-1456.99"/>
<polygon fill="#757575" stroke="#757575" points="502.68,-1460.42 512.22,-1455.81 501.89,-1453.47 502.68,-1460.42"/>
</g>
<!-- services/estoque.service.ts -->
<g id="node58" class="node">
<title>services/estoque.service.ts</title>
<path fill="none" stroke="#c6c5fe" d="M679.83,-1335C679.83,-1335 516.17,-1335 516.17,-1335 512.33,-1335 508.5,-1331.17 508.5,-1327.33 508.5,-1327.33 508.5,-1319.67 508.5,-1319.67 508.5,-1315.83 512.33,-1312 516.17,-1312 516.17,-1312 679.83,-1312 679.83,-1312 683.67,-1312 687.5,-1315.83 687.5,-1319.67 687.5,-1319.67 687.5,-1327.33 687.5,-1327.33 687.5,-1331.17 683.67,-1335 679.83,-1335"/>
<text text-anchor="middle" x="598" y="-1319.8" font-family="Arial" font-size="14.00" fill="#c6c5fe">services/estoque.service.ts</text>
</g>
<!-- services/estoque.service.ts&#45;&gt;models/produto.model.ts -->
<g id="edge18" class="edge">
<title>services/estoque.service.ts&#45;&gt;models/produto.model.ts</title>
<path fill="none" stroke="#757575" d="M687.71,-1332.37C755.24,-1339.12 847.92,-1348.39 916.39,-1355.24"/>
<polygon fill="#757575" stroke="#757575" points="916.43,-1358.76 926.73,-1356.27 917.13,-1351.8 916.43,-1358.76"/>
</g>
<!-- services/usuario.service.ts -->
<g id="node59" class="node">
<title>services/usuario.service.ts</title>
<path fill="none" stroke="#cfffac" d="M268.83,-1909C268.83,-1909 109.17,-1909 109.17,-1909 105.33,-1909 101.5,-1905.17 101.5,-1901.33 101.5,-1901.33 101.5,-1893.67 101.5,-1893.67 101.5,-1889.83 105.33,-1886 109.17,-1886 109.17,-1886 268.83,-1886 268.83,-1886 272.67,-1886 276.5,-1889.83 276.5,-1893.67 276.5,-1893.67 276.5,-1901.33 276.5,-1901.33 276.5,-1905.17 272.67,-1909 268.83,-1909"/>
<text text-anchor="middle" x="189" y="-1893.8" font-family="Arial" font-size="14.00" fill="#cfffac">services/usuario.service.ts</text>
</g>
<!-- shared/components/carrinho/carrinho&#45;modal.component.ts -->
<g id="node60" class="node">
<title>shared/components/carrinho/carrinho&#45;modal.component.ts</title>
<path fill="none" stroke="#cfffac" d="M774.33,-1950C774.33,-1950 421.67,-1950 421.67,-1950 417.83,-1950 414,-1946.17 414,-1942.33 414,-1942.33 414,-1934.67 414,-1934.67 414,-1930.83 417.83,-1927 421.67,-1927 421.67,-1927 774.33,-1927 774.33,-1927 778.17,-1927 782,-1930.83 782,-1934.67 782,-1934.67 782,-1942.33 782,-1942.33 782,-1946.17 778.17,-1950 774.33,-1950"/>
<text text-anchor="middle" x="598" y="-1934.8" font-family="Arial" font-size="14.00" fill="#cfffac">shared/components/carrinho/carrinho&#45;modal.component.ts</text>
</g>
<!-- shared/components/carrinho/carrinho.component.ts -->
<g id="node61" class="node">
<title>shared/components/carrinho/carrinho.component.ts</title>
<path fill="none" stroke="#c6c5fe" d="M344.33,-1950C344.33,-1950 33.67,-1950 33.67,-1950 29.83,-1950 26,-1946.17 26,-1942.33 26,-1942.33 26,-1934.67 26,-1934.67 26,-1930.83 29.83,-1927 33.67,-1927 33.67,-1927 344.33,-1927 344.33,-1927 348.17,-1927 352,-1930.83 352,-1934.67 352,-1934.67 352,-1942.33 352,-1942.33 352,-1946.17 348.17,-1950 344.33,-1950"/>
<text text-anchor="middle" x="189" y="-1934.8" font-family="Arial" font-size="14.00" fill="#c6c5fe">shared/components/carrinho/carrinho.component.ts</text>
</g>
<!-- shared/components/carrinho/carrinho.component.ts&#45;&gt;shared/components/carrinho/carrinho&#45;modal.component.ts -->
<g id="edge19" class="edge">
<title>shared/components/carrinho/carrinho.component.ts&#45;&gt;shared/components/carrinho/carrinho&#45;modal.component.ts</title>
<path fill="none" stroke="#757575" d="M352.03,-1938.5C368.98,-1938.5 386.34,-1938.5 403.6,-1938.5"/>
<polygon fill="#757575" stroke="#757575" points="403.75,-1942 413.75,-1938.5 403.75,-1935 403.75,-1942"/>
</g>
<!-- shared/components/depoimentos/depoimento.component.ts -->
<g id="node62" class="node">
<title>shared/components/depoimentos/depoimento.component.ts</title>
<path fill="none" stroke="#cfffac" d="M370.33,-1991C370.33,-1991 7.67,-1991 7.67,-1991 3.83,-1991 0,-1987.17 0,-1983.33 0,-1983.33 0,-1975.67 0,-1975.67 0,-1971.83 3.83,-1968 7.67,-1968 7.67,-1968 370.33,-1968 370.33,-1968 374.17,-1968 378,-1971.83 378,-1975.67 378,-1975.67 378,-1983.33 378,-1983.33 378,-1987.17 374.17,-1991 370.33,-1991"/>
<text text-anchor="middle" x="189" y="-1975.8" font-family="Arial" font-size="14.00" fill="#cfffac">shared/components/depoimentos/depoimento.component.ts</text>
</g>
<!-- shared/components/newsletter/newsletter.component.ts -->
<g id="node63" class="node">
<title>shared/components/newsletter/newsletter.component.ts</title>
<path fill="none" stroke="#cfffac" d="M356.83,-2032C356.83,-2032 21.17,-2032 21.17,-2032 17.33,-2032 13.5,-2028.17 13.5,-2024.33 13.5,-2024.33 13.5,-2016.67 13.5,-2016.67 13.5,-2012.83 17.33,-2009 21.17,-2009 21.17,-2009 356.83,-2009 356.83,-2009 360.67,-2009 364.5,-2012.83 364.5,-2016.67 364.5,-2016.67 364.5,-2024.33 364.5,-2024.33 364.5,-2028.17 360.67,-2032 356.83,-2032"/>
<text text-anchor="middle" x="189" y="-2016.8" font-family="Arial" font-size="14.00" fill="#cfffac">shared/components/newsletter/newsletter.component.ts</text>
</g>
<!-- shared/components/sobre/sobre.component.ts -->
<g id="node64" class="node">
<title>shared/components/sobre/sobre.component.ts</title>
<path fill="none" stroke="#cfffac" d="M329.33,-2073C329.33,-2073 48.67,-2073 48.67,-2073 44.83,-2073 41,-2069.17 41,-2065.33 41,-2065.33 41,-2057.67 41,-2057.67 41,-2053.83 44.83,-2050 48.67,-2050 48.67,-2050 329.33,-2050 329.33,-2050 333.17,-2050 337,-2053.83 337,-2057.67 337,-2057.67 337,-2065.33 337,-2065.33 337,-2069.17 333.17,-2073 329.33,-2073"/>
<text text-anchor="middle" x="189" y="-2057.8" font-family="Arial" font-size="14.00" fill="#cfffac">shared/components/sobre/sobre.component.ts</text>
</g>
<!-- shared/enums/statusEnum.enum.ts -->
<g id="node65" class="node">
<title>shared/enums/statusEnum.enum.ts</title>
<path fill="none" stroke="#cfffac" d="M296.83,-2114C296.83,-2114 81.17,-2114 81.17,-2114 77.33,-2114 73.5,-2110.17 73.5,-2106.33 73.5,-2106.33 73.5,-2098.67 73.5,-2098.67 73.5,-2094.83 77.33,-2091 81.17,-2091 81.17,-2091 296.83,-2091 296.83,-2091 300.67,-2091 304.5,-2094.83 304.5,-2098.67 304.5,-2098.67 304.5,-2106.33 304.5,-2106.33 304.5,-2110.17 300.67,-2114 296.83,-2114"/>
<text text-anchor="middle" x="189" y="-2098.8" font-family="Arial" font-size="14.00" fill="#cfffac">shared/enums/statusEnum.enum.ts</text>
</g>
<!-- shared/icons.ts -->
<g id="node66" class="node">
<title>shared/icons.ts</title>
<path fill="none" stroke="#cfffac" d="M234.83,-2155C234.83,-2155 143.17,-2155 143.17,-2155 139.33,-2155 135.5,-2151.17 135.5,-2147.33 135.5,-2147.33 135.5,-2139.67 135.5,-2139.67 135.5,-2135.83 139.33,-2132 143.17,-2132 143.17,-2132 234.83,-2132 234.83,-2132 238.67,-2132 242.5,-2135.83 242.5,-2139.67 242.5,-2139.67 242.5,-2147.33 242.5,-2147.33 242.5,-2151.17 238.67,-2155 234.83,-2155"/>
<text text-anchor="middle" x="189" y="-2139.8" font-family="Arial" font-size="14.00" fill="#cfffac">shared/icons.ts</text>
</g>
<!-- shared/shared.module.ts -->
<g id="node67" class="node">
<title>shared/shared.module.ts</title>
<path fill="none" stroke="#cfffac" d="M264.33,-2196C264.33,-2196 113.67,-2196 113.67,-2196 109.83,-2196 106,-2192.17 106,-2188.33 106,-2188.33 106,-2180.67 106,-2180.67 106,-2176.83 109.83,-2173 113.67,-2173 113.67,-2173 264.33,-2173 264.33,-2173 268.17,-2173 272,-2176.83 272,-2180.67 272,-2180.67 272,-2188.33 272,-2188.33 272,-2192.17 268.17,-2196 264.33,-2196"/>
<text text-anchor="middle" x="189" y="-2180.8" font-family="Arial" font-size="14.00" fill="#cfffac">shared/shared.module.ts</text>
</g>
<!-- shared/util/card/card&#45;footer.component.ts -->
<g id="node68" class="node">
<title>shared/util/card/card&#45;footer.component.ts</title>
<path fill="none" stroke="#cfffac" d="M312.83,-2237C312.83,-2237 65.17,-2237 65.17,-2237 61.33,-2237 57.5,-2233.17 57.5,-2229.33 57.5,-2229.33 57.5,-2221.67 57.5,-2221.67 57.5,-2217.83 61.33,-2214 65.17,-2214 65.17,-2214 312.83,-2214 312.83,-2214 316.67,-2214 320.5,-2217.83 320.5,-2221.67 320.5,-2221.67 320.5,-2229.33 320.5,-2229.33 320.5,-2233.17 316.67,-2237 312.83,-2237"/>
<text text-anchor="middle" x="189" y="-2221.8" font-family="Arial" font-size="14.00" fill="#cfffac">shared/util/card/card&#45;footer.component.ts</text>
</g>
<!-- shared/util/card/card.component.ts -->
<g id="node69" class="node">
<title>shared/util/card/card.component.ts</title>
<path fill="none" stroke="#cfffac" d="M293.33,-2278C293.33,-2278 84.67,-2278 84.67,-2278 80.83,-2278 77,-2274.17 77,-2270.33 77,-2270.33 77,-2262.67 77,-2262.67 77,-2258.83 80.83,-2255 84.67,-2255 84.67,-2255 293.33,-2255 293.33,-2255 297.17,-2255 301,-2258.83 301,-2262.67 301,-2262.67 301,-2270.33 301,-2270.33 301,-2274.17 297.17,-2278 293.33,-2278"/>
<text text-anchor="middle" x="189" y="-2262.8" font-family="Arial" font-size="14.00" fill="#cfffac">shared/util/card/card.component.ts</text>
</g>
</g>
</svg>
