<?xml version="1.0" encoding="UTF-8" standalone="no"?>
<!DOCTYPE svg PUBLIC "-//W3C//DTD SVG 1.1//EN"
 "http://www.w3.org/Graphics/SVG/1.1/DTD/svg11.dtd">
<!-- Generated by graphviz version 2.43.0 (0)
 -->
<!-- Title: G Pages: 1 -->
<svg width="2176pt" height="2075pt"
 viewBox="0.00 0.00 2176.20 2075.20" xmlns="http://www.w3.org/2000/svg" xmlns:xlink="http://www.w3.org/1999/xlink">
<g id="graph0" class="graph" transform="scale(1 1) rotate(0) translate(21.6 2053.6)">
<title>G</title>
<polygon fill="#111111" stroke="transparent" points="-21.6,21.6 -21.6,-2053.6 2154.6,-2053.6 2154.6,21.6 -21.6,21.6"/>
<!-- app.component.ts -->
<g id="node1" class="node">
<title>app.component.ts</title>
<path fill="none" stroke="#cfffac" d="M243.83,-23C243.83,-23 134.17,-23 134.17,-23 130.33,-23 126.5,-19.17 126.5,-15.33 126.5,-15.33 126.5,-7.67 126.5,-7.67 126.5,-3.83 130.33,0 134.17,0 134.17,0 243.83,0 243.83,0 247.67,0 251.5,-3.83 251.5,-7.67 251.5,-7.67 251.5,-15.33 251.5,-15.33 251.5,-19.17 247.67,-23 243.83,-23"/>
<text text-anchor="middle" x="189" y="-7.8" font-family="Arial" font-size="14.00" fill="#cfffac">app.component.ts</text>
</g>
<!-- app.routes.ts -->
<g id="node2" class="node">
<title>app.routes.ts</title>
<path fill="none" stroke="#c6c5fe" d="M228.83,-64C228.83,-64 149.17,-64 149.17,-64 145.33,-64 141.5,-60.17 141.5,-56.33 141.5,-56.33 141.5,-48.67 141.5,-48.67 141.5,-44.83 145.33,-41 149.17,-41 149.17,-41 228.83,-41 228.83,-41 232.67,-41 236.5,-44.83 236.5,-48.67 236.5,-48.67 236.5,-56.33 236.5,-56.33 236.5,-60.17 232.67,-64 228.83,-64"/>
<text text-anchor="middle" x="189" y="-48.8" font-family="Arial" font-size="14.00" fill="#c6c5fe">app.routes.ts</text>
</g>
<!-- core/guards/auth.guard.ts -->
<g id="node3" class="node">
<title>core/guards/auth.guard.ts</title>
<path fill="none" stroke="#cfffac" d="M675.33,-105C675.33,-105 520.67,-105 520.67,-105 516.83,-105 513,-101.17 513,-97.33 513,-97.33 513,-89.67 513,-89.67 513,-85.83 516.83,-82 520.67,-82 520.67,-82 675.33,-82 675.33,-82 679.17,-82 683,-85.83 683,-89.67 683,-89.67 683,-97.33 683,-97.33 683,-101.17 679.17,-105 675.33,-105"/>
<text text-anchor="middle" x="598" y="-89.8" font-family="Arial" font-size="14.00" fill="#cfffac">core/guards/auth.guard.ts</text>
</g>
<!-- app.routes.ts&#45;&gt;core/guards/auth.guard.ts -->
<g id="edge1" class="edge">
<title>app.routes.ts&#45;&gt;core/guards/auth.guard.ts</title>
<path fill="none" stroke="#757575" d="M236.69,-57.2C301.3,-63.71 419.41,-75.61 502.76,-84.01"/>
<polygon fill="#757575" stroke="#757575" points="502.45,-87.49 512.75,-85.01 503.15,-80.53 502.45,-87.49"/>
</g>
<!-- core/layout/home/home.routes.ts -->
<g id="node4" class="node">
<title>core/layout/home/home.routes.ts</title>
<path fill="none" stroke="#cfffac" d="M697.83,-64C697.83,-64 498.17,-64 498.17,-64 494.33,-64 490.5,-60.17 490.5,-56.33 490.5,-56.33 490.5,-48.67 490.5,-48.67 490.5,-44.83 494.33,-41 498.17,-41 498.17,-41 697.83,-41 697.83,-41 701.67,-41 705.5,-44.83 705.5,-48.67 705.5,-48.67 705.5,-56.33 705.5,-56.33 705.5,-60.17 701.67,-64 697.83,-64"/>
<text text-anchor="middle" x="598" y="-48.8" font-family="Arial" font-size="14.00" fill="#cfffac">core/layout/home/home.routes.ts</text>
</g>
<!-- app.routes.ts&#45;&gt;core/layout/home/home.routes.ts -->
<g id="edge2" class="edge">
<title>app.routes.ts&#45;&gt;core/layout/home/home.routes.ts</title>
<path fill="none" stroke="#757575" d="M236.69,-52.5C295.66,-52.5 399.2,-52.5 480.2,-52.5"/>
<polygon fill="#757575" stroke="#757575" points="480.47,-56 490.47,-52.5 480.47,-49 480.47,-56"/>
</g>
<!-- modules/upload/file&#45;upload.routes.ts -->
<g id="node5" class="node">
<title>modules/upload/file&#45;upload.routes.ts</title>
<path fill="none" stroke="#cfffac" d="M707.33,-23C707.33,-23 488.67,-23 488.67,-23 484.83,-23 481,-19.17 481,-15.33 481,-15.33 481,-7.67 481,-7.67 481,-3.83 484.83,0 488.67,0 488.67,0 707.33,0 707.33,0 711.17,0 715,-3.83 715,-7.67 715,-7.67 715,-15.33 715,-15.33 715,-19.17 711.17,-23 707.33,-23"/>
<text text-anchor="middle" x="598" y="-7.8" font-family="Arial" font-size="14.00" fill="#cfffac">modules/upload/file&#45;upload.routes.ts</text>
</g>
<!-- app.routes.ts&#45;&gt;modules/upload/file&#45;upload.routes.ts -->
<g id="edge3" class="edge">
<title>app.routes.ts&#45;&gt;modules/upload/file&#45;upload.routes.ts</title>
<path fill="none" stroke="#757575" d="M236.69,-47.8C293.76,-42.05 392.57,-32.09 472.3,-24.06"/>
<polygon fill="#757575" stroke="#757575" points="472.82,-27.53 482.42,-23.04 472.12,-20.56 472.82,-27.53"/>
</g>
<!-- core/auth/auth&#45;config.ts -->
<g id="node6" class="node">
<title>core/auth/auth&#45;config.ts</title>
<path fill="none" stroke="#cfffac" d="M260.33,-105C260.33,-105 117.67,-105 117.67,-105 113.83,-105 110,-101.17 110,-97.33 110,-97.33 110,-89.67 110,-89.67 110,-85.83 113.83,-82 117.67,-82 117.67,-82 260.33,-82 260.33,-82 264.17,-82 268,-85.83 268,-89.67 268,-89.67 268,-97.33 268,-97.33 268,-101.17 264.17,-105 260.33,-105"/>
<text text-anchor="middle" x="189" y="-89.8" font-family="Arial" font-size="14.00" fill="#cfffac">core/auth/auth&#45;config.ts</text>
</g>
<!-- core/auth/auth.service.ts -->
<g id="node7" class="node">
<title>core/auth/auth.service.ts</title>
<path fill="none" stroke="#cfffac" d="M263.33,-146C263.33,-146 114.67,-146 114.67,-146 110.83,-146 107,-142.17 107,-138.33 107,-138.33 107,-130.67 107,-130.67 107,-126.83 110.83,-123 114.67,-123 114.67,-123 263.33,-123 263.33,-123 267.17,-123 271,-126.83 271,-130.67 271,-130.67 271,-138.33 271,-138.33 271,-142.17 267.17,-146 263.33,-146"/>
<text text-anchor="middle" x="189" y="-130.8" font-family="Arial" font-size="14.00" fill="#cfffac">core/auth/auth.service.ts</text>
</g>
<!-- core/auth/seguranca/models/usuario.model.ts -->
<g id="node8" class="node">
<title>core/auth/seguranca/models/usuario.model.ts</title>
<path fill="none" stroke="#cfffac" d="M326.83,-187C326.83,-187 51.17,-187 51.17,-187 47.33,-187 43.5,-183.17 43.5,-179.33 43.5,-179.33 43.5,-171.67 43.5,-171.67 43.5,-167.83 47.33,-164 51.17,-164 51.17,-164 326.83,-164 326.83,-164 330.67,-164 334.5,-167.83 334.5,-171.67 334.5,-171.67 334.5,-179.33 334.5,-179.33 334.5,-183.17 330.67,-187 326.83,-187"/>
<text text-anchor="middle" x="189" y="-171.8" font-family="Arial" font-size="14.00" fill="#cfffac">core/auth/seguranca/models/usuario.model.ts</text>
</g>
<!-- core/components/base.component.ts -->
<g id="node9" class="node">
<title>core/components/base.component.ts</title>
<path fill="none" stroke="#cfffac" d="M300.83,-228C300.83,-228 77.17,-228 77.17,-228 73.33,-228 69.5,-224.17 69.5,-220.33 69.5,-220.33 69.5,-212.67 69.5,-212.67 69.5,-208.83 73.33,-205 77.17,-205 77.17,-205 300.83,-205 300.83,-205 304.67,-205 308.5,-208.83 308.5,-212.67 308.5,-212.67 308.5,-220.33 308.5,-220.33 308.5,-224.17 304.67,-228 300.83,-228"/>
<text text-anchor="middle" x="189" y="-212.8" font-family="Arial" font-size="14.00" fill="#cfffac">core/components/base.component.ts</text>
</g>
<!-- core/components/buttons/action&#45;button.component.ts -->
<g id="node10" class="node">
<title>core/components/buttons/action&#45;button.component.ts</title>
<path fill="none" stroke="#cfffac" d="M349.33,-269C349.33,-269 28.67,-269 28.67,-269 24.83,-269 21,-265.17 21,-261.33 21,-261.33 21,-253.67 21,-253.67 21,-249.83 24.83,-246 28.67,-246 28.67,-246 349.33,-246 349.33,-246 353.17,-246 357,-249.83 357,-253.67 357,-253.67 357,-261.33 357,-261.33 357,-265.17 353.17,-269 349.33,-269"/>
<text text-anchor="middle" x="189" y="-253.8" font-family="Arial" font-size="14.00" fill="#cfffac">core/components/buttons/action&#45;button.component.ts</text>
</g>
<!-- core/components/form/form&#45;data.component.ts -->
<g id="node11" class="node">
<title>core/components/form/form&#45;data.component.ts</title>
<path fill="none" stroke="#cfffac" d="M331.33,-310C331.33,-310 46.67,-310 46.67,-310 42.83,-310 39,-306.17 39,-302.33 39,-302.33 39,-294.67 39,-294.67 39,-290.83 42.83,-287 46.67,-287 46.67,-287 331.33,-287 331.33,-287 335.17,-287 339,-290.83 339,-294.67 339,-294.67 339,-302.33 339,-302.33 339,-306.17 335.17,-310 331.33,-310"/>
<text text-anchor="middle" x="189" y="-294.8" font-family="Arial" font-size="14.00" fill="#cfffac">core/components/form/form&#45;data.component.ts</text>
</g>
<!-- core/components/form/form&#45;header.component.ts -->
<g id="node12" class="node">
<title>core/components/form/form&#45;header.component.ts</title>
<path fill="none" stroke="#cfffac" d="M338.83,-351C338.83,-351 39.17,-351 39.17,-351 35.33,-351 31.5,-347.17 31.5,-343.33 31.5,-343.33 31.5,-335.67 31.5,-335.67 31.5,-331.83 35.33,-328 39.17,-328 39.17,-328 338.83,-328 338.83,-328 342.67,-328 346.5,-331.83 346.5,-335.67 346.5,-335.67 346.5,-343.33 346.5,-343.33 346.5,-347.17 342.67,-351 338.83,-351"/>
<text text-anchor="middle" x="189" y="-335.8" font-family="Arial" font-size="14.00" fill="#cfffac">core/components/form/form&#45;header.component.ts</text>
</g>
<!-- core/components/models/entity.model.ts -->
<g id="node13" class="node">
<title>core/components/models/entity.model.ts</title>
<path fill="none" stroke="#cfffac" d="M2125.33,-560C2125.33,-560 1880.67,-560 1880.67,-560 1876.83,-560 1873,-556.17 1873,-552.33 1873,-552.33 1873,-544.67 1873,-544.67 1873,-540.83 1876.83,-537 1880.67,-537 1880.67,-537 2125.33,-537 2125.33,-537 2129.17,-537 2133,-540.83 2133,-544.67 2133,-544.67 2133,-552.33 2133,-552.33 2133,-556.17 2129.17,-560 2125.33,-560"/>
<text text-anchor="middle" x="2003" y="-544.8" font-family="Arial" font-size="14.00" fill="#cfffac">core/components/models/entity.model.ts</text>
</g>
<!-- core/components/models/menu&#45;item.model.ts -->
<g id="node14" class="node">
<title>core/components/models/menu&#45;item.model.ts</title>
<path fill="none" stroke="#cfffac" d="M327.83,-433C327.83,-433 50.17,-433 50.17,-433 46.33,-433 42.5,-429.17 42.5,-425.33 42.5,-425.33 42.5,-417.67 42.5,-417.67 42.5,-413.83 46.33,-410 50.17,-410 50.17,-410 327.83,-410 327.83,-410 331.67,-410 335.5,-413.83 335.5,-417.67 335.5,-417.67 335.5,-425.33 335.5,-425.33 335.5,-429.17 331.67,-433 327.83,-433"/>
<text text-anchor="middle" x="189" y="-417.8" font-family="Arial" font-size="14.00" fill="#cfffac">core/components/models/menu&#45;item.model.ts</text>
</g>
<!-- core/components/models/user.model.ts -->
<g id="node15" class="node">
<title>core/components/models/user.model.ts</title>
<path fill="none" stroke="#cfffac" d="M308.33,-474C308.33,-474 69.67,-474 69.67,-474 65.83,-474 62,-470.17 62,-466.33 62,-466.33 62,-458.67 62,-458.67 62,-454.83 65.83,-451 69.67,-451 69.67,-451 308.33,-451 308.33,-451 312.17,-451 316,-454.83 316,-458.67 316,-458.67 316,-466.33 316,-466.33 316,-470.17 312.17,-474 308.33,-474"/>
<text text-anchor="middle" x="189" y="-458.8" font-family="Arial" font-size="14.00" fill="#cfffac">core/components/models/user.model.ts</text>
</g>
<!-- core/components/page&#45;layout/empty&#45;page.component.ts -->
<g id="node16" class="node">
<title>core/components/page&#45;layout/empty&#45;page.component.ts</title>
<path fill="none" stroke="#cfffac" d="M359.33,-515C359.33,-515 18.67,-515 18.67,-515 14.83,-515 11,-511.17 11,-507.33 11,-507.33 11,-499.67 11,-499.67 11,-495.83 14.83,-492 18.67,-492 18.67,-492 359.33,-492 359.33,-492 363.17,-492 367,-495.83 367,-499.67 367,-499.67 367,-507.33 367,-507.33 367,-511.17 363.17,-515 359.33,-515"/>
<text text-anchor="middle" x="189" y="-499.8" font-family="Arial" font-size="14.00" fill="#cfffac">core/components/page&#45;layout/empty&#45;page.component.ts</text>
</g>
<!-- core/components/refreshable.component.ts -->
<g id="node17" class="node">
<title>core/components/refreshable.component.ts</title>
<path fill="none" stroke="#cfffac" d="M320.33,-556C320.33,-556 57.67,-556 57.67,-556 53.83,-556 50,-552.17 50,-548.33 50,-548.33 50,-540.67 50,-540.67 50,-536.83 53.83,-533 57.67,-533 57.67,-533 320.33,-533 320.33,-533 324.17,-533 328,-536.83 328,-540.67 328,-540.67 328,-548.33 328,-548.33 328,-552.17 324.17,-556 320.33,-556"/>
<text text-anchor="middle" x="189" y="-540.8" font-family="Arial" font-size="14.00" fill="#cfffac">core/components/refreshable.component.ts</text>
</g>
<!-- core/constants/app.constants.ts -->
<g id="node18" class="node">
<title>core/constants/app.constants.ts</title>
<path fill="none" stroke="#cfffac" d="M693.33,-597C693.33,-597 502.67,-597 502.67,-597 498.83,-597 495,-593.17 495,-589.33 495,-589.33 495,-581.67 495,-581.67 495,-577.83 498.83,-574 502.67,-574 502.67,-574 693.33,-574 693.33,-574 697.17,-574 701,-577.83 701,-581.67 701,-581.67 701,-589.33 701,-589.33 701,-593.17 697.17,-597 693.33,-597"/>
<text text-anchor="middle" x="598" y="-581.8" font-family="Arial" font-size="14.00" fill="#cfffac">core/constants/app.constants.ts</text>
</g>
<!-- core/filters/produto&#45;filter.ts -->
<g id="node19" class="node">
<title>core/filters/produto&#45;filter.ts</title>
<path fill="none" stroke="#c6c5fe" d="M1362.83,-262C1362.83,-262 1206.17,-262 1206.17,-262 1202.33,-262 1198.5,-258.17 1198.5,-254.33 1198.5,-254.33 1198.5,-246.67 1198.5,-246.67 1198.5,-242.83 1202.33,-239 1206.17,-239 1206.17,-239 1362.83,-239 1362.83,-239 1366.67,-239 1370.5,-242.83 1370.5,-246.67 1370.5,-246.67 1370.5,-254.33 1370.5,-254.33 1370.5,-258.17 1366.67,-262 1362.83,-262"/>
<text text-anchor="middle" x="1284.5" y="-246.8" font-family="Arial" font-size="14.00" fill="#c6c5fe">core/filters/produto&#45;filter.ts</text>
</g>
<!-- models/produto.model.ts -->
<g id="node20" class="node">
<title>models/produto.model.ts</title>
<path fill="none" stroke="#cfffac" d="M1720.33,-262C1720.33,-262 1569.67,-262 1569.67,-262 1565.83,-262 1562,-258.17 1562,-254.33 1562,-254.33 1562,-246.67 1562,-246.67 1562,-242.83 1565.83,-239 1569.67,-239 1569.67,-239 1720.33,-239 1720.33,-239 1724.17,-239 1728,-242.83 1728,-246.67 1728,-246.67 1728,-254.33 1728,-254.33 1728,-258.17 1724.17,-262 1720.33,-262"/>
<text text-anchor="middle" x="1645" y="-246.8" font-family="Arial" font-size="14.00" fill="#cfffac">models/produto.model.ts</text>
</g>
<!-- core/filters/produto&#45;filter.ts&#45;&gt;models/produto.model.ts -->
<g id="edge4" class="edge">
<title>core/filters/produto&#45;filter.ts&#45;&gt;models/produto.model.ts</title>
<path fill="none" stroke="#757575" d="M1370.91,-250.5C1425.31,-250.5 1495.76,-250.5 1551.48,-250.5"/>
<polygon fill="#757575" stroke="#757575" points="1551.71,-254 1561.71,-250.5 1551.71,-247 1551.71,-254"/>
</g>
<!-- core/interceptors/auth.interceptor.ts -->
<g id="node21" class="node">
<title>core/interceptors/auth.interceptor.ts</title>
<path fill="none" stroke="#cfffac" d="M295.33,-638C295.33,-638 82.67,-638 82.67,-638 78.83,-638 75,-634.17 75,-630.33 75,-630.33 75,-622.67 75,-622.67 75,-618.83 78.83,-615 82.67,-615 82.67,-615 295.33,-615 295.33,-615 299.17,-615 303,-618.83 303,-622.67 303,-622.67 303,-630.33 303,-630.33 303,-634.17 299.17,-638 295.33,-638"/>
<text text-anchor="middle" x="189" y="-622.8" font-family="Arial" font-size="14.00" fill="#cfffac">core/interceptors/auth.interceptor.ts</text>
</g>
<!-- core/layout/home/home.component.ts -->
<g id="node22" class="node">
<title>core/layout/home/home.component.ts</title>
<path fill="none" stroke="#cfffac" d="M303.83,-679C303.83,-679 74.17,-679 74.17,-679 70.33,-679 66.5,-675.17 66.5,-671.33 66.5,-671.33 66.5,-663.67 66.5,-663.67 66.5,-659.83 70.33,-656 74.17,-656 74.17,-656 303.83,-656 303.83,-656 307.67,-656 311.5,-659.83 311.5,-663.67 311.5,-663.67 311.5,-671.33 311.5,-671.33 311.5,-675.17 307.67,-679 303.83,-679"/>
<text text-anchor="middle" x="189" y="-663.8" font-family="Arial" font-size="14.00" fill="#cfffac">core/layout/home/home.component.ts</text>
</g>
<!-- core/layout/menu&#45;item/menu&#45;item.component.ts -->
<g id="node23" class="node">
<title>core/layout/menu&#45;item/menu&#45;item.component.ts</title>
<path fill="none" stroke="#cfffac" d="M334.33,-720C334.33,-720 43.67,-720 43.67,-720 39.83,-720 36,-716.17 36,-712.33 36,-712.33 36,-704.67 36,-704.67 36,-700.83 39.83,-697 43.67,-697 43.67,-697 334.33,-697 334.33,-697 338.17,-697 342,-700.83 342,-704.67 342,-704.67 342,-712.33 342,-712.33 342,-716.17 338.17,-720 334.33,-720"/>
<text text-anchor="middle" x="189" y="-704.8" font-family="Arial" font-size="14.00" fill="#cfffac">core/layout/menu&#45;item/menu&#45;item.component.ts</text>
</g>
<!-- core/layout/menu/menu.component.ts -->
<g id="node24" class="node">
<title>core/layout/menu/menu.component.ts</title>
<path fill="none" stroke="#cfffac" d="M303.83,-761C303.83,-761 74.17,-761 74.17,-761 70.33,-761 66.5,-757.17 66.5,-753.33 66.5,-753.33 66.5,-745.67 66.5,-745.67 66.5,-741.83 70.33,-738 74.17,-738 74.17,-738 303.83,-738 303.83,-738 307.67,-738 311.5,-741.83 311.5,-745.67 311.5,-745.67 311.5,-753.33 311.5,-753.33 311.5,-757.17 307.67,-761 303.83,-761"/>
<text text-anchor="middle" x="189" y="-745.8" font-family="Arial" font-size="14.00" fill="#cfffac">core/layout/menu/menu.component.ts</text>
</g>
<!-- core/services/config.service.ts -->
<g id="node25" class="node">
<title>core/services/config.service.ts</title>
<path fill="none" stroke="#c6c5fe" d="M279.83,-597C279.83,-597 98.17,-597 98.17,-597 94.33,-597 90.5,-593.17 90.5,-589.33 90.5,-589.33 90.5,-581.67 90.5,-581.67 90.5,-577.83 94.33,-574 98.17,-574 98.17,-574 279.83,-574 279.83,-574 283.67,-574 287.5,-577.83 287.5,-581.67 287.5,-581.67 287.5,-589.33 287.5,-589.33 287.5,-593.17 283.67,-597 279.83,-597"/>
<text text-anchor="middle" x="189" y="-581.8" font-family="Arial" font-size="14.00" fill="#c6c5fe">core/services/config.service.ts</text>
</g>
<!-- core/services/config.service.ts&#45;&gt;core/constants/app.constants.ts -->
<g id="edge5" class="edge">
<title>core/services/config.service.ts&#45;&gt;core/constants/app.constants.ts</title>
<path fill="none" stroke="#757575" d="M287.75,-585.5C347.01,-585.5 422.84,-585.5 484.58,-585.5"/>
<polygon fill="#757575" stroke="#757575" points="484.76,-589 494.76,-585.5 484.76,-582 484.76,-589"/>
</g>
<!-- core/services/crud.service.ts -->
<g id="node26" class="node">
<title>core/services/crud.service.ts</title>
<path fill="none" stroke="#cfffac" d="M274.83,-802C274.83,-802 103.17,-802 103.17,-802 99.33,-802 95.5,-798.17 95.5,-794.33 95.5,-794.33 95.5,-786.67 95.5,-786.67 95.5,-782.83 99.33,-779 103.17,-779 103.17,-779 274.83,-779 274.83,-779 278.67,-779 282.5,-782.83 282.5,-786.67 282.5,-786.67 282.5,-794.33 282.5,-794.33 282.5,-798.17 278.67,-802 274.83,-802"/>
<text text-anchor="middle" x="189" y="-786.8" font-family="Arial" font-size="14.00" fill="#cfffac">core/services/crud.service.ts</text>
</g>
<!-- core/services/query.service.ts -->
<g id="node27" class="node">
<title>core/services/query.service.ts</title>
<path fill="none" stroke="#cfffac" d="M278.33,-843C278.33,-843 99.67,-843 99.67,-843 95.83,-843 92,-839.17 92,-835.33 92,-835.33 92,-827.67 92,-827.67 92,-823.83 95.83,-820 99.67,-820 99.67,-820 278.33,-820 278.33,-820 282.17,-820 286,-823.83 286,-827.67 286,-827.67 286,-835.33 286,-835.33 286,-839.17 282.17,-843 278.33,-843"/>
<text text-anchor="middle" x="189" y="-827.8" font-family="Arial" font-size="14.00" fill="#cfffac">core/services/query.service.ts</text>
</g>
<!-- core/services/storage.service.ts -->
<g id="node28" class="node">
<title>core/services/storage.service.ts</title>
<path fill="none" stroke="#cfffac" d="M1379.83,-383C1379.83,-383 1189.17,-383 1189.17,-383 1185.33,-383 1181.5,-379.17 1181.5,-375.33 1181.5,-375.33 1181.5,-367.67 1181.5,-367.67 1181.5,-363.83 1185.33,-360 1189.17,-360 1189.17,-360 1379.83,-360 1379.83,-360 1383.67,-360 1387.5,-363.83 1387.5,-367.67 1387.5,-367.67 1387.5,-375.33 1387.5,-375.33 1387.5,-379.17 1383.67,-383 1379.83,-383"/>
<text text-anchor="middle" x="1284.5" y="-367.8" font-family="Arial" font-size="14.00" fill="#cfffac">core/services/storage.service.ts</text>
</g>
<!-- core/state/carrinho&#45;state&#45;manager.ts -->
<g id="node29" class="node">
<title>core/state/carrinho&#45;state&#45;manager.ts</title>
<path fill="none" stroke="#c6c5fe" d="M1076.33,-465C1076.33,-465 857.67,-465 857.67,-465 853.83,-465 850,-461.17 850,-457.33 850,-457.33 850,-449.67 850,-449.67 850,-445.83 853.83,-442 857.67,-442 857.67,-442 1076.33,-442 1076.33,-442 1080.17,-442 1084,-445.83 1084,-449.67 1084,-449.67 1084,-457.33 1084,-457.33 1084,-461.17 1080.17,-465 1076.33,-465"/>
<text text-anchor="middle" x="967" y="-449.8" font-family="Arial" font-size="14.00" fill="#c6c5fe">core/state/carrinho&#45;state&#45;manager.ts</text>
</g>
<!-- core/state/carrinho&#45;state&#45;manager.ts&#45;&gt;models/produto.model.ts -->
<g id="edge8" class="edge">
<title>core/state/carrinho&#45;state&#45;manager.ts&#45;&gt;models/produto.model.ts</title>
<path fill="none" stroke="#757575" d="M1084.15,-458.62C1197.5,-461.75 1360.83,-460.74 1417,-432.5 1439.57,-421.15 1434.61,-405.82 1453,-388.5 1505.8,-338.78 1577.07,-291.74 1615.91,-267.51"/>
<polygon fill="#757575" stroke="#757575" points="1617.93,-270.38 1624.6,-262.14 1614.25,-264.42 1617.93,-270.38"/>
</g>
<!-- core/state/state&#45;manager.ts -->
<g id="node30" class="node">
<title>core/state/state&#45;manager.ts</title>
<path fill="none" stroke="#cfffac" d="M1727.83,-421C1727.83,-421 1562.17,-421 1562.17,-421 1558.33,-421 1554.5,-417.17 1554.5,-413.33 1554.5,-413.33 1554.5,-405.67 1554.5,-405.67 1554.5,-401.83 1558.33,-398 1562.17,-398 1562.17,-398 1727.83,-398 1727.83,-398 1731.67,-398 1735.5,-401.83 1735.5,-405.67 1735.5,-405.67 1735.5,-413.33 1735.5,-413.33 1735.5,-417.17 1731.67,-421 1727.83,-421"/>
<text text-anchor="middle" x="1645" y="-405.8" font-family="Arial" font-size="14.00" fill="#cfffac">core/state/state&#45;manager.ts</text>
</g>
<!-- core/state/carrinho&#45;state&#45;manager.ts&#45;&gt;core/state/state&#45;manager.ts -->
<g id="edge6" class="edge">
<title>core/state/carrinho&#45;state&#45;manager.ts&#45;&gt;core/state/state&#45;manager.ts</title>
<path fill="none" stroke="#757575" d="M1084.25,-462.96C1106.71,-464.44 1130.08,-465.73 1152,-466.5 1269.7,-470.65 1300.11,-480.95 1417,-466.5 1481.48,-458.53 1553.98,-438.28 1599.32,-424.19"/>
<polygon fill="#757575" stroke="#757575" points="1600.63,-427.45 1609.12,-421.11 1598.53,-420.77 1600.63,-427.45"/>
</g>
<!-- models/itemCarrinho.model.ts -->
<g id="node31" class="node">
<title>models/itemCarrinho.model.ts</title>
<path fill="none" stroke="#c6c5fe" d="M1375.83,-424C1375.83,-424 1193.17,-424 1193.17,-424 1189.33,-424 1185.5,-420.17 1185.5,-416.33 1185.5,-416.33 1185.5,-408.67 1185.5,-408.67 1185.5,-404.83 1189.33,-401 1193.17,-401 1193.17,-401 1375.83,-401 1375.83,-401 1379.67,-401 1383.5,-404.83 1383.5,-408.67 1383.5,-408.67 1383.5,-416.33 1383.5,-416.33 1383.5,-420.17 1379.67,-424 1375.83,-424"/>
<text text-anchor="middle" x="1284.5" y="-408.8" font-family="Arial" font-size="14.00" fill="#c6c5fe">models/itemCarrinho.model.ts</text>
</g>
<!-- core/state/carrinho&#45;state&#45;manager.ts&#45;&gt;models/itemCarrinho.model.ts -->
<g id="edge7" class="edge">
<title>core/state/carrinho&#45;state&#45;manager.ts&#45;&gt;models/itemCarrinho.model.ts</title>
<path fill="none" stroke="#757575" d="M1056.72,-441.97C1096.63,-436.78 1143.88,-430.64 1184.89,-425.32"/>
<polygon fill="#757575" stroke="#757575" points="1185.43,-428.77 1194.9,-424.01 1184.53,-421.83 1185.43,-428.77"/>
</g>
<!-- models/itemCarrinho.model.ts&#45;&gt;models/produto.model.ts -->
<g id="edge10" class="edge">
<title>models/itemCarrinho.model.ts&#45;&gt;models/produto.model.ts</title>
<path fill="none" stroke="#757575" d="M1383.57,-401.28C1395.02,-398.67 1406.39,-395.46 1417,-391.5 1498.83,-360.97 1583.07,-299.09 1621.92,-268.48"/>
<polygon fill="#757575" stroke="#757575" points="1624.29,-271.06 1629.93,-262.1 1619.93,-265.59 1624.29,-271.06"/>
</g>
<!-- core/state/categoria&#45;state&#45;manager.ts -->
<g id="node32" class="node">
<title>core/state/categoria&#45;state&#45;manager.ts</title>
<path fill="none" stroke="#c6c5fe" d="M1397.33,-342C1397.33,-342 1171.67,-342 1171.67,-342 1167.83,-342 1164,-338.17 1164,-334.33 1164,-334.33 1164,-326.67 1164,-326.67 1164,-322.83 1167.83,-319 1171.67,-319 1171.67,-319 1397.33,-319 1397.33,-319 1401.17,-319 1405,-322.83 1405,-326.67 1405,-326.67 1405,-334.33 1405,-334.33 1405,-338.17 1401.17,-342 1397.33,-342"/>
<text text-anchor="middle" x="1284.5" y="-326.8" font-family="Arial" font-size="14.00" fill="#c6c5fe">core/state/categoria&#45;state&#45;manager.ts</text>
</g>
<!-- core/state/categoria&#45;state&#45;manager.ts&#45;&gt;core/state/state&#45;manager.ts -->
<g id="edge9" class="edge">
<title>core/state/categoria&#45;state&#45;manager.ts&#45;&gt;core/state/state&#45;manager.ts</title>
<path fill="none" stroke="#757575" d="M1369.91,-342.02C1385.61,-344.53 1401.84,-347.39 1417,-350.5 1478.87,-363.21 1549.11,-382.18 1594.85,-395.16"/>
<polygon fill="#757575" stroke="#757575" points="1593.94,-398.53 1604.52,-397.91 1595.86,-391.8 1593.94,-398.53"/>
</g>
<!-- core/store/data&#45;store.ts -->
<g id="node33" class="node">
<title>core/store/data&#45;store.ts</title>
<path fill="none" stroke="#cfffac" d="M258.83,-884C258.83,-884 119.17,-884 119.17,-884 115.33,-884 111.5,-880.17 111.5,-876.33 111.5,-876.33 111.5,-868.67 111.5,-868.67 111.5,-864.83 115.33,-861 119.17,-861 119.17,-861 258.83,-861 258.83,-861 262.67,-861 266.5,-864.83 266.5,-868.67 266.5,-868.67 266.5,-876.33 266.5,-876.33 266.5,-880.17 262.67,-884 258.83,-884"/>
<text text-anchor="middle" x="189" y="-868.8" font-family="Arial" font-size="14.00" fill="#cfffac">core/store/data&#45;store.ts</text>
</g>
<!-- core/store/unique&#45;data.store.ts -->
<g id="node34" class="node">
<title>core/store/unique&#45;data.store.ts</title>
<path fill="none" stroke="#cfffac" d="M281.33,-925C281.33,-925 96.67,-925 96.67,-925 92.83,-925 89,-921.17 89,-917.33 89,-917.33 89,-909.67 89,-909.67 89,-905.83 92.83,-902 96.67,-902 96.67,-902 281.33,-902 281.33,-902 285.17,-902 289,-905.83 289,-909.67 289,-909.67 289,-917.33 289,-917.33 289,-921.17 285.17,-925 281.33,-925"/>
<text text-anchor="middle" x="189" y="-909.8" font-family="Arial" font-size="14.00" fill="#cfffac">core/store/unique&#45;data.store.ts</text>
</g>
<!-- core/translate/translate&#45;loader&#45;factory.ts -->
<g id="node35" class="node">
<title>core/translate/translate&#45;loader&#45;factory.ts</title>
<path fill="none" stroke="#cfffac" d="M308.33,-966C308.33,-966 69.67,-966 69.67,-966 65.83,-966 62,-962.17 62,-958.33 62,-958.33 62,-950.67 62,-950.67 62,-946.83 65.83,-943 69.67,-943 69.67,-943 308.33,-943 308.33,-943 312.17,-943 316,-946.83 316,-950.67 316,-950.67 316,-958.33 316,-958.33 316,-962.17 312.17,-966 308.33,-966"/>
<text text-anchor="middle" x="189" y="-950.8" font-family="Arial" font-size="14.00" fill="#cfffac">core/translate/translate&#45;loader&#45;factory.ts</text>
</g>
<!-- core/util/icon&#45;util.ts -->
<g id="node36" class="node">
<title>core/util/icon&#45;util.ts</title>
<path fill="none" stroke="#cfffac" d="M245.33,-1007C245.33,-1007 132.67,-1007 132.67,-1007 128.83,-1007 125,-1003.17 125,-999.33 125,-999.33 125,-991.67 125,-991.67 125,-987.83 128.83,-984 132.67,-984 132.67,-984 245.33,-984 245.33,-984 249.17,-984 253,-987.83 253,-991.67 253,-991.67 253,-999.33 253,-999.33 253,-1003.17 249.17,-1007 245.33,-1007"/>
<text text-anchor="middle" x="189" y="-991.8" font-family="Arial" font-size="14.00" fill="#cfffac">core/util/icon&#45;util.ts</text>
</g>
<!-- core/util/unsubscribe.ts -->
<g id="node37" class="node">
<title>core/util/unsubscribe.ts</title>
<path fill="none" stroke="#cfffac" d="M1714.83,-621C1714.83,-621 1575.17,-621 1575.17,-621 1571.33,-621 1567.5,-617.17 1567.5,-613.33 1567.5,-613.33 1567.5,-605.67 1567.5,-605.67 1567.5,-601.83 1571.33,-598 1575.17,-598 1575.17,-598 1714.83,-598 1714.83,-598 1718.67,-598 1722.5,-601.83 1722.5,-605.67 1722.5,-605.67 1722.5,-613.33 1722.5,-613.33 1722.5,-617.17 1718.67,-621 1714.83,-621"/>
<text text-anchor="middle" x="1645" y="-605.8" font-family="Arial" font-size="14.00" fill="#cfffac">core/util/unsubscribe.ts</text>
</g>
<!-- layout/layout.component.ts -->
<g id="node38" class="node">
<title>layout/layout.component.ts</title>
<path fill="none" stroke="#cfffac" d="M270.33,-1048C270.33,-1048 107.67,-1048 107.67,-1048 103.83,-1048 100,-1044.17 100,-1040.33 100,-1040.33 100,-1032.67 100,-1032.67 100,-1028.83 103.83,-1025 107.67,-1025 107.67,-1025 270.33,-1025 270.33,-1025 274.17,-1025 278,-1028.83 278,-1032.67 278,-1032.67 278,-1040.33 278,-1040.33 278,-1044.17 274.17,-1048 270.33,-1048"/>
<text text-anchor="middle" x="189" y="-1032.8" font-family="Arial" font-size="14.00" fill="#cfffac">layout/layout.component.ts</text>
</g>
<!-- layout/pages/error/bad&#45;request.component.ts -->
<g id="node39" class="node">
<title>layout/pages/error/bad&#45;request.component.ts</title>
<path fill="none" stroke="#cfffac" d="M324.83,-1089C324.83,-1089 53.17,-1089 53.17,-1089 49.33,-1089 45.5,-1085.17 45.5,-1081.33 45.5,-1081.33 45.5,-1073.67 45.5,-1073.67 45.5,-1069.83 49.33,-1066 53.17,-1066 53.17,-1066 324.83,-1066 324.83,-1066 328.67,-1066 332.5,-1069.83 332.5,-1073.67 332.5,-1073.67 332.5,-1081.33 332.5,-1081.33 332.5,-1085.17 328.67,-1089 324.83,-1089"/>
<text text-anchor="middle" x="189" y="-1073.8" font-family="Arial" font-size="14.00" fill="#cfffac">layout/pages/error/bad&#45;request.component.ts</text>
</g>
<!-- layout/pages/error/components/error&#45;details.component.ts -->
<g id="node40" class="node">
<title>layout/pages/error/components/error&#45;details.component.ts</title>
<path fill="none" stroke="#cfffac" d="M363.83,-1130C363.83,-1130 14.17,-1130 14.17,-1130 10.33,-1130 6.5,-1126.17 6.5,-1122.33 6.5,-1122.33 6.5,-1114.67 6.5,-1114.67 6.5,-1110.83 10.33,-1107 14.17,-1107 14.17,-1107 363.83,-1107 363.83,-1107 367.67,-1107 371.5,-1110.83 371.5,-1114.67 371.5,-1114.67 371.5,-1122.33 371.5,-1122.33 371.5,-1126.17 367.67,-1130 363.83,-1130"/>
<text text-anchor="middle" x="189" y="-1114.8" font-family="Arial" font-size="14.00" fill="#cfffac">layout/pages/error/components/error&#45;details.component.ts</text>
</g>
<!-- layout/pages/error/empty&#45;page&#45;layout.component.ts -->
<g id="node41" class="node">
<title>layout/pages/error/empty&#45;page&#45;layout.component.ts</title>
<path fill="none" stroke="#cfffac" d="M344.83,-1171C344.83,-1171 33.17,-1171 33.17,-1171 29.33,-1171 25.5,-1167.17 25.5,-1163.33 25.5,-1163.33 25.5,-1155.67 25.5,-1155.67 25.5,-1151.83 29.33,-1148 33.17,-1148 33.17,-1148 344.83,-1148 344.83,-1148 348.67,-1148 352.5,-1151.83 352.5,-1155.67 352.5,-1155.67 352.5,-1163.33 352.5,-1163.33 352.5,-1167.17 348.67,-1171 344.83,-1171"/>
<text text-anchor="middle" x="189" y="-1155.8" font-family="Arial" font-size="14.00" fill="#cfffac">layout/pages/error/empty&#45;page&#45;layout.component.ts</text>
</g>
<!-- layout/pages/error/page&#45;not&#45;found.component.ts -->
<g id="node42" class="node">
<title>layout/pages/error/page&#45;not&#45;found.component.ts</title>
<path fill="none" stroke="#cfffac" d="M334.33,-1212C334.33,-1212 43.67,-1212 43.67,-1212 39.83,-1212 36,-1208.17 36,-1204.33 36,-1204.33 36,-1196.67 36,-1196.67 36,-1192.83 39.83,-1189 43.67,-1189 43.67,-1189 334.33,-1189 334.33,-1189 338.17,-1189 342,-1192.83 342,-1196.67 342,-1196.67 342,-1204.33 342,-1204.33 342,-1208.17 338.17,-1212 334.33,-1212"/>
<text text-anchor="middle" x="189" y="-1196.8" font-family="Arial" font-size="14.00" fill="#cfffac">layout/pages/error/page&#45;not&#45;found.component.ts</text>
</g>
<!-- models/alterarQuantidade.model.ts -->
<g id="node43" class="node">
<title>models/alterarQuantidade.model.ts</title>
<path fill="none" stroke="#cfffac" d="M295.83,-1253C295.83,-1253 82.17,-1253 82.17,-1253 78.33,-1253 74.5,-1249.17 74.5,-1245.33 74.5,-1245.33 74.5,-1237.67 74.5,-1237.67 74.5,-1233.83 78.33,-1230 82.17,-1230 82.17,-1230 295.83,-1230 295.83,-1230 299.67,-1230 303.5,-1233.83 303.5,-1237.67 303.5,-1237.67 303.5,-1245.33 303.5,-1245.33 303.5,-1249.17 299.67,-1253 295.83,-1253"/>
<text text-anchor="middle" x="189" y="-1237.8" font-family="Arial" font-size="14.00" fill="#cfffac">models/alterarQuantidade.model.ts</text>
</g>
<!-- models/criarPedido.model.ts -->
<g id="node44" class="node">
<title>models/criarPedido.model.ts</title>
<path fill="none" stroke="#cfffac" d="M684.33,-412C684.33,-412 511.67,-412 511.67,-412 507.83,-412 504,-408.17 504,-404.33 504,-404.33 504,-396.67 504,-396.67 504,-392.83 507.83,-389 511.67,-389 511.67,-389 684.33,-389 684.33,-389 688.17,-389 692,-392.83 692,-396.67 692,-396.67 692,-404.33 692,-404.33 692,-408.17 688.17,-412 684.33,-412"/>
<text text-anchor="middle" x="598" y="-396.8" font-family="Arial" font-size="14.00" fill="#cfffac">models/criarPedido.model.ts</text>
</g>
<!-- models/itemPedido.model.ts -->
<g id="node45" class="node">
<title>models/itemPedido.model.ts</title>
<path fill="none" stroke="#cfffac" d="M275.33,-1294C275.33,-1294 102.67,-1294 102.67,-1294 98.83,-1294 95,-1290.17 95,-1286.33 95,-1286.33 95,-1278.67 95,-1278.67 95,-1274.83 98.83,-1271 102.67,-1271 102.67,-1271 275.33,-1271 275.33,-1271 279.17,-1271 283,-1274.83 283,-1278.67 283,-1278.67 283,-1286.33 283,-1286.33 283,-1290.17 279.17,-1294 275.33,-1294"/>
<text text-anchor="middle" x="189" y="-1278.8" font-family="Arial" font-size="14.00" fill="#cfffac">models/itemPedido.model.ts</text>
</g>
<!-- models/pedido.model.ts -->
<g id="node46" class="node">
<title>models/pedido.model.ts</title>
<path fill="none" stroke="#cfffac" d="M670.83,-371C670.83,-371 525.17,-371 525.17,-371 521.33,-371 517.5,-367.17 517.5,-363.33 517.5,-363.33 517.5,-355.67 517.5,-355.67 517.5,-351.83 521.33,-348 525.17,-348 525.17,-348 670.83,-348 670.83,-348 674.67,-348 678.5,-351.83 678.5,-355.67 678.5,-355.67 678.5,-363.33 678.5,-363.33 678.5,-367.17 674.67,-371 670.83,-371"/>
<text text-anchor="middle" x="598" y="-355.8" font-family="Arial" font-size="14.00" fill="#cfffac">models/pedido.model.ts</text>
</g>
<!-- modules/cardapio/cardapio.component.ts -->
<g id="node47" class="node">
<title>modules/cardapio/cardapio.component.ts</title>
<path fill="none" stroke="#c6c5fe" d="M1409.33,-100C1409.33,-100 1159.67,-100 1159.67,-100 1155.83,-100 1152,-96.17 1152,-92.33 1152,-92.33 1152,-84.67 1152,-84.67 1152,-80.83 1155.83,-77 1159.67,-77 1159.67,-77 1409.33,-77 1409.33,-77 1413.17,-77 1417,-80.83 1417,-84.67 1417,-84.67 1417,-92.33 1417,-92.33 1417,-96.17 1413.17,-100 1409.33,-100"/>
<text text-anchor="middle" x="1284.5" y="-84.8" font-family="Arial" font-size="14.00" fill="#c6c5fe">modules/cardapio/cardapio.component.ts</text>
</g>
<!-- modules/cardapio/cardapio.component.ts&#45;&gt;models/produto.model.ts -->
<g id="edge11" class="edge">
<title>modules/cardapio/cardapio.component.ts&#45;&gt;models/produto.model.ts</title>
<path fill="none" stroke="#757575" d="M1388.83,-100.08C1398.49,-102.39 1408.01,-105.17 1417,-108.5 1427.86,-112.53 1559.44,-196.38 1617.16,-233.3"/>
<polygon fill="#757575" stroke="#757575" points="1615.44,-236.36 1625.75,-238.8 1619.22,-230.47 1615.44,-236.36"/>
</g>
<!-- modules/cardapio/categoria/cardapio&#45;categoria.component.ts -->
<g id="node48" class="node">
<title>modules/cardapio/categoria/cardapio&#45;categoria.component.ts</title>
<path fill="none" stroke="#cfffac" d="M1829.33,-80C1829.33,-80 1460.67,-80 1460.67,-80 1456.83,-80 1453,-76.17 1453,-72.33 1453,-72.33 1453,-64.67 1453,-64.67 1453,-60.83 1456.83,-57 1460.67,-57 1460.67,-57 1829.33,-57 1829.33,-57 1833.17,-57 1837,-60.83 1837,-64.67 1837,-64.67 1837,-72.33 1837,-72.33 1837,-76.17 1833.17,-80 1829.33,-80"/>
<text text-anchor="middle" x="1645" y="-64.8" font-family="Arial" font-size="14.00" fill="#cfffac">modules/cardapio/categoria/cardapio&#45;categoria.component.ts</text>
</g>
<!-- modules/cardapio/cardapio.component.ts&#45;&gt;modules/cardapio/categoria/cardapio&#45;categoria.component.ts -->
<g id="edge12" class="edge">
<title>modules/cardapio/cardapio.component.ts&#45;&gt;modules/cardapio/categoria/cardapio&#45;categoria.component.ts</title>
<path fill="none" stroke="#757575" d="M1417.21,-81.15C1425.61,-80.68 1434.16,-80.21 1442.78,-79.73"/>
<polygon fill="#757575" stroke="#757575" points="1443.13,-83.21 1452.92,-79.16 1442.74,-76.22 1443.13,-83.21"/>
</g>
<!-- modules/cardapio/menu/cardapio&#45;menu.component.ts -->
<g id="node49" class="node">
<title>modules/cardapio/menu/cardapio&#45;menu.component.ts</title>
<path fill="none" stroke="#cfffac" d="M1808.33,-121C1808.33,-121 1481.67,-121 1481.67,-121 1477.83,-121 1474,-117.17 1474,-113.33 1474,-113.33 1474,-105.67 1474,-105.67 1474,-101.83 1477.83,-98 1481.67,-98 1481.67,-98 1808.33,-98 1808.33,-98 1812.17,-98 1816,-101.83 1816,-105.67 1816,-105.67 1816,-113.33 1816,-113.33 1816,-117.17 1812.17,-121 1808.33,-121"/>
<text text-anchor="middle" x="1645" y="-105.8" font-family="Arial" font-size="14.00" fill="#cfffac">modules/cardapio/menu/cardapio&#45;menu.component.ts</text>
</g>
<!-- modules/cardapio/cardapio.component.ts&#45;&gt;modules/cardapio/menu/cardapio&#45;menu.component.ts -->
<g id="edge13" class="edge">
<title>modules/cardapio/cardapio.component.ts&#45;&gt;modules/cardapio/menu/cardapio&#45;menu.component.ts</title>
<path fill="none" stroke="#757575" d="M1417.21,-96.22C1432.37,-97.1 1448.01,-98.02 1463.67,-98.94"/>
<polygon fill="#757575" stroke="#757575" points="1463.77,-102.45 1473.95,-99.54 1464.17,-95.46 1463.77,-102.45"/>
</g>
<!-- modules/cardapio/cardapio.routes.ts -->
<g id="node50" class="node">
<title>modules/cardapio/cardapio.routes.ts</title>
<path fill="none" stroke="#c6c5fe" d="M1076.83,-100C1076.83,-100 857.17,-100 857.17,-100 853.33,-100 849.5,-96.17 849.5,-92.33 849.5,-92.33 849.5,-84.67 849.5,-84.67 849.5,-80.83 853.33,-77 857.17,-77 857.17,-77 1076.83,-77 1076.83,-77 1080.67,-77 1084.5,-80.83 1084.5,-84.67 1084.5,-84.67 1084.5,-92.33 1084.5,-92.33 1084.5,-96.17 1080.67,-100 1076.83,-100"/>
<text text-anchor="middle" x="967" y="-84.8" font-family="Arial" font-size="14.00" fill="#c6c5fe">modules/cardapio/cardapio.routes.ts</text>
</g>
<!-- modules/cardapio/cardapio.routes.ts&#45;&gt;modules/cardapio/cardapio.component.ts -->
<g id="edge14" class="edge">
<title>modules/cardapio/cardapio.routes.ts&#45;&gt;modules/cardapio/cardapio.component.ts</title>
<path fill="none" stroke="#757575" d="M1084.58,-88.5C1103.18,-88.5 1122.6,-88.5 1141.71,-88.5"/>
<polygon fill="#757575" stroke="#757575" points="1141.97,-92 1151.97,-88.5 1141.97,-85 1141.97,-92"/>
</g>
<!-- modules/contato/contato.component.ts -->
<g id="node51" class="node">
<title>modules/contato/contato.component.ts</title>
<path fill="none" stroke="#cfffac" d="M715.33,-1335C715.33,-1335 480.67,-1335 480.67,-1335 476.83,-1335 473,-1331.17 473,-1327.33 473,-1327.33 473,-1319.67 473,-1319.67 473,-1315.83 476.83,-1312 480.67,-1312 480.67,-1312 715.33,-1312 715.33,-1312 719.17,-1312 723,-1315.83 723,-1319.67 723,-1319.67 723,-1327.33 723,-1327.33 723,-1331.17 719.17,-1335 715.33,-1335"/>
<text text-anchor="middle" x="598" y="-1319.8" font-family="Arial" font-size="14.00" fill="#cfffac">modules/contato/contato.component.ts</text>
</g>
<!-- modules/contato/contato.routes.ts -->
<g id="node52" class="node">
<title>modules/contato/contato.routes.ts</title>
<path fill="none" stroke="#c6c5fe" d="M291.33,-1335C291.33,-1335 86.67,-1335 86.67,-1335 82.83,-1335 79,-1331.17 79,-1327.33 79,-1327.33 79,-1319.67 79,-1319.67 79,-1315.83 82.83,-1312 86.67,-1312 86.67,-1312 291.33,-1312 291.33,-1312 295.17,-1312 299,-1315.83 299,-1319.67 299,-1319.67 299,-1327.33 299,-1327.33 299,-1331.17 295.17,-1335 291.33,-1335"/>
<text text-anchor="middle" x="189" y="-1319.8" font-family="Arial" font-size="14.00" fill="#c6c5fe">modules/contato/contato.routes.ts</text>
</g>
<!-- modules/contato/contato.routes.ts&#45;&gt;modules/contato/contato.component.ts -->
<g id="edge15" class="edge">
<title>modules/contato/contato.routes.ts&#45;&gt;modules/contato/contato.component.ts</title>
<path fill="none" stroke="#757575" d="M299.07,-1323.5C349.39,-1323.5 409.62,-1323.5 462.71,-1323.5"/>
<polygon fill="#757575" stroke="#757575" points="462.88,-1327 472.88,-1323.5 462.88,-1320 462.88,-1327"/>
</g>
<!-- modules/footer/footer.component.ts -->
<g id="node53" class="node">
<title>modules/footer/footer.component.ts</title>
<path fill="none" stroke="#cfffac" d="M705.33,-1376C705.33,-1376 490.67,-1376 490.67,-1376 486.83,-1376 483,-1372.17 483,-1368.33 483,-1368.33 483,-1360.67 483,-1360.67 483,-1356.83 486.83,-1353 490.67,-1353 490.67,-1353 705.33,-1353 705.33,-1353 709.17,-1353 713,-1356.83 713,-1360.67 713,-1360.67 713,-1368.33 713,-1368.33 713,-1372.17 709.17,-1376 705.33,-1376"/>
<text text-anchor="middle" x="598" y="-1360.8" font-family="Arial" font-size="14.00" fill="#cfffac">modules/footer/footer.component.ts</text>
</g>
<!-- modules/footer/footer.routes.ts -->
<g id="node54" class="node">
<title>modules/footer/footer.routes.ts</title>
<path fill="none" stroke="#c6c5fe" d="M281.33,-1376C281.33,-1376 96.67,-1376 96.67,-1376 92.83,-1376 89,-1372.17 89,-1368.33 89,-1368.33 89,-1360.67 89,-1360.67 89,-1356.83 92.83,-1353 96.67,-1353 96.67,-1353 281.33,-1353 281.33,-1353 285.17,-1353 289,-1356.83 289,-1360.67 289,-1360.67 289,-1368.33 289,-1368.33 289,-1372.17 285.17,-1376 281.33,-1376"/>
<text text-anchor="middle" x="189" y="-1360.8" font-family="Arial" font-size="14.00" fill="#c6c5fe">modules/footer/footer.routes.ts</text>
</g>
<!-- modules/footer/footer.routes.ts&#45;&gt;modules/footer/footer.component.ts -->
<g id="edge16" class="edge">
<title>modules/footer/footer.routes.ts&#45;&gt;modules/footer/footer.component.ts</title>
<path fill="none" stroke="#757575" d="M289.04,-1364.5C344.32,-1364.5 413.7,-1364.5 472.6,-1364.5"/>
<polygon fill="#757575" stroke="#757575" points="472.72,-1368 482.72,-1364.5 472.72,-1361 472.72,-1368"/>
</g>
<!-- modules/header/header.Component.ts -->
<g id="node55" class="node">
<title>modules/header/header.Component.ts</title>
<path fill="none" stroke="#cfffac" d="M305.33,-1417C305.33,-1417 72.67,-1417 72.67,-1417 68.83,-1417 65,-1413.17 65,-1409.33 65,-1409.33 65,-1401.67 65,-1401.67 65,-1397.83 68.83,-1394 72.67,-1394 72.67,-1394 305.33,-1394 305.33,-1394 309.17,-1394 313,-1397.83 313,-1401.67 313,-1401.67 313,-1409.33 313,-1409.33 313,-1413.17 309.17,-1417 305.33,-1417"/>
<text text-anchor="middle" x="189" y="-1401.8" font-family="Arial" font-size="14.00" fill="#cfffac">modules/header/header.Component.ts</text>
</g>
<!-- modules/upload/file&#45;upload.component.ts -->
<g id="node56" class="node">
<title>modules/upload/file&#45;upload.component.ts</title>
<path fill="none" stroke="#cfffac" d="M313.33,-1458C313.33,-1458 64.67,-1458 64.67,-1458 60.83,-1458 57,-1454.17 57,-1450.33 57,-1450.33 57,-1442.67 57,-1442.67 57,-1438.83 60.83,-1435 64.67,-1435 64.67,-1435 313.33,-1435 313.33,-1435 317.17,-1435 321,-1438.83 321,-1442.67 321,-1442.67 321,-1450.33 321,-1450.33 321,-1454.17 317.17,-1458 313.33,-1458"/>
<text text-anchor="middle" x="189" y="-1442.8" font-family="Arial" font-size="14.00" fill="#cfffac">modules/upload/file&#45;upload.component.ts</text>
</g>
<!-- modules/upload/upload&#45;footer.component.ts -->
<g id="node57" class="node">
<title>modules/upload/upload&#45;footer.component.ts</title>
<path fill="none" stroke="#cfffac" d="M321.83,-1499C321.83,-1499 56.17,-1499 56.17,-1499 52.33,-1499 48.5,-1495.17 48.5,-1491.33 48.5,-1491.33 48.5,-1483.67 48.5,-1483.67 48.5,-1479.83 52.33,-1476 56.17,-1476 56.17,-1476 321.83,-1476 321.83,-1476 325.67,-1476 329.5,-1479.83 329.5,-1483.67 329.5,-1483.67 329.5,-1491.33 329.5,-1491.33 329.5,-1495.17 325.67,-1499 321.83,-1499"/>
<text text-anchor="middle" x="189" y="-1483.8" font-family="Arial" font-size="14.00" fill="#cfffac">modules/upload/upload&#45;footer.component.ts</text>
</g>
<!-- modules/upload/upload&#45;header.component.ts -->
<g id="node58" class="node">
<title>modules/upload/upload&#45;header.component.ts</title>
<path fill="none" stroke="#cfffac" d="M325.33,-1540C325.33,-1540 52.67,-1540 52.67,-1540 48.83,-1540 45,-1536.17 45,-1532.33 45,-1532.33 45,-1524.67 45,-1524.67 45,-1520.83 48.83,-1517 52.67,-1517 52.67,-1517 325.33,-1517 325.33,-1517 329.17,-1517 333,-1520.83 333,-1524.67 333,-1524.67 333,-1532.33 333,-1532.33 333,-1536.17 329.17,-1540 325.33,-1540"/>
<text text-anchor="middle" x="189" y="-1524.8" font-family="Arial" font-size="14.00" fill="#cfffac">modules/upload/upload&#45;header.component.ts</text>
</g>
<!-- modules/upload/upload.component.ts -->
<g id="node59" class="node">
<title>modules/upload/upload.component.ts</title>
<path fill="none" stroke="#cfffac" d="M302.33,-1581C302.33,-1581 75.67,-1581 75.67,-1581 71.83,-1581 68,-1577.17 68,-1573.33 68,-1573.33 68,-1565.67 68,-1565.67 68,-1561.83 71.83,-1558 75.67,-1558 75.67,-1558 302.33,-1558 302.33,-1558 306.17,-1558 310,-1561.83 310,-1565.67 310,-1565.67 310,-1573.33 310,-1573.33 310,-1577.17 306.17,-1581 302.33,-1581"/>
<text text-anchor="middle" x="189" y="-1565.8" font-family="Arial" font-size="14.00" fill="#cfffac">modules/upload/upload.component.ts</text>
</g>
<!-- services/adapters/produto&#45;repository.adapter.ts -->
<g id="node60" class="node">
<title>services/adapters/produto&#45;repository.adapter.ts</title>
<path fill="none" stroke="#c6c5fe" d="M1108.33,-181C1108.33,-181 825.67,-181 825.67,-181 821.83,-181 818,-177.17 818,-173.33 818,-173.33 818,-165.67 818,-165.67 818,-161.83 821.83,-158 825.67,-158 825.67,-158 1108.33,-158 1108.33,-158 1112.17,-158 1116,-161.83 1116,-165.67 1116,-165.67 1116,-173.33 1116,-173.33 1116,-177.17 1112.17,-181 1108.33,-181"/>
<text text-anchor="middle" x="967" y="-165.8" font-family="Arial" font-size="14.00" fill="#c6c5fe">services/adapters/produto&#45;repository.adapter.ts</text>
</g>
<!-- services/adapters/produto&#45;repository.adapter.ts&#45;&gt;models/produto.model.ts -->
<g id="edge17" class="edge">
<title>services/adapters/produto&#45;repository.adapter.ts&#45;&gt;models/produto.model.ts</title>
<path fill="none" stroke="#757575" d="M1116.19,-167.45C1204.1,-168.3 1317.45,-173 1417,-188.5 1482.49,-198.7 1556.14,-220.87 1601.3,-235.74"/>
<polygon fill="#757575" stroke="#757575" points="1600.45,-239.15 1611.05,-238.98 1602.66,-232.51 1600.45,-239.15"/>
</g>
<!-- services/estoque.service.ts -->
<g id="node61" class="node">
<title>services/estoque.service.ts</title>
<path fill="none" stroke="#c6c5fe" d="M1366.33,-141C1366.33,-141 1202.67,-141 1202.67,-141 1198.83,-141 1195,-137.17 1195,-133.33 1195,-133.33 1195,-125.67 1195,-125.67 1195,-121.83 1198.83,-118 1202.67,-118 1202.67,-118 1366.33,-118 1366.33,-118 1370.17,-118 1374,-121.83 1374,-125.67 1374,-125.67 1374,-133.33 1374,-133.33 1374,-137.17 1370.17,-141 1366.33,-141"/>
<text text-anchor="middle" x="1284.5" y="-125.8" font-family="Arial" font-size="14.00" fill="#c6c5fe">services/estoque.service.ts</text>
</g>
<!-- services/adapters/produto&#45;repository.adapter.ts&#45;&gt;services/estoque.service.ts -->
<g id="edge18" class="edge">
<title>services/adapters/produto&#45;repository.adapter.ts&#45;&gt;services/estoque.service.ts</title>
<path fill="none" stroke="#757575" d="M1058.83,-157.98C1098.27,-152.98 1144.56,-147.12 1184.84,-142.01"/>
<polygon fill="#757575" stroke="#757575" points="1185.46,-145.46 1194.94,-140.73 1184.58,-138.51 1185.46,-145.46"/>
</g>
<!-- services/interfaces/cardapio.interfaces.ts -->
<g id="node62" class="node">
<title>services/interfaces/cardapio.interfaces.ts</title>
<path fill="none" stroke="#c6c5fe" d="M1406.83,-221C1406.83,-221 1162.17,-221 1162.17,-221 1158.33,-221 1154.5,-217.17 1154.5,-213.33 1154.5,-213.33 1154.5,-205.67 1154.5,-205.67 1154.5,-201.83 1158.33,-198 1162.17,-198 1162.17,-198 1406.83,-198 1406.83,-198 1410.67,-198 1414.5,-201.83 1414.5,-205.67 1414.5,-205.67 1414.5,-213.33 1414.5,-213.33 1414.5,-217.17 1410.67,-221 1406.83,-221"/>
<text text-anchor="middle" x="1284.5" y="-205.8" font-family="Arial" font-size="14.00" fill="#c6c5fe">services/interfaces/cardapio.interfaces.ts</text>
</g>
<!-- services/adapters/produto&#45;repository.adapter.ts&#45;&gt;services/interfaces/cardapio.interfaces.ts -->
<g id="edge19" class="edge">
<title>services/adapters/produto&#45;repository.adapter.ts&#45;&gt;services/interfaces/cardapio.interfaces.ts</title>
<path fill="none" stroke="#757575" d="M1058.83,-181.02C1097.6,-185.93 1142.98,-191.68 1182.77,-196.73"/>
<polygon fill="#757575" stroke="#757575" points="1182.4,-200.21 1192.76,-198 1183.28,-193.27 1182.4,-200.21"/>
</g>
<!-- services/estoque.service.ts&#45;&gt;models/produto.model.ts -->
<g id="edge30" class="edge">
<title>services/estoque.service.ts&#45;&gt;models/produto.model.ts</title>
<path fill="none" stroke="#757575" d="M1357.46,-141.02C1376.98,-144.87 1397.97,-149.7 1417,-155.5 1488.43,-177.26 1568.13,-213.59 1611.52,-234.45"/>
<polygon fill="#757575" stroke="#757575" points="1610.2,-237.7 1620.72,-238.91 1613.25,-231.4 1610.2,-237.7"/>
</g>
<!-- services/interfaces/cardapio.interfaces.ts&#45;&gt;models/produto.model.ts -->
<g id="edge31" class="edge">
<title>services/interfaces/cardapio.interfaces.ts&#45;&gt;models/produto.model.ts</title>
<path fill="none" stroke="#757575" d="M1386.32,-221.03C1438.25,-226.97 1501.13,-234.16 1551.78,-239.95"/>
<polygon fill="#757575" stroke="#757575" points="1551.4,-243.43 1561.73,-241.09 1552.2,-236.48 1551.4,-243.43"/>
</g>
<!-- services/cardapio.service.ts -->
<g id="node63" class="node">
<title>services/cardapio.service.ts</title>
<path fill="none" stroke="#c6c5fe" d="M1050.33,-282C1050.33,-282 883.67,-282 883.67,-282 879.83,-282 876,-278.17 876,-274.33 876,-274.33 876,-266.67 876,-266.67 876,-262.83 879.83,-259 883.67,-259 883.67,-259 1050.33,-259 1050.33,-259 1054.17,-259 1058,-262.83 1058,-266.67 1058,-266.67 1058,-274.33 1058,-274.33 1058,-278.17 1054.17,-282 1050.33,-282"/>
<text text-anchor="middle" x="967" y="-266.8" font-family="Arial" font-size="14.00" fill="#c6c5fe">services/cardapio.service.ts</text>
</g>
<!-- services/cardapio.service.ts&#45;&gt;core/filters/produto&#45;filter.ts -->
<g id="edge20" class="edge">
<title>services/cardapio.service.ts&#45;&gt;core/filters/produto&#45;filter.ts</title>
<path fill="none" stroke="#757575" d="M1058.41,-264.77C1099.12,-262.19 1147.19,-259.14 1188.44,-256.53"/>
<polygon fill="#757575" stroke="#757575" points="1188.74,-260.01 1198.49,-255.89 1188.29,-253.03 1188.74,-260.01"/>
</g>
<!-- services/cardapio.service.ts&#45;&gt;models/produto.model.ts -->
<g id="edge22" class="edge">
<title>services/cardapio.service.ts&#45;&gt;models/produto.model.ts</title>
<path fill="none" stroke="#757575" d="M1058.35,-272.83C1149.06,-274.62 1292.79,-275.96 1417,-270.5 1461.46,-268.55 1510.67,-264.45 1551.87,-260.47"/>
<polygon fill="#757575" stroke="#757575" points="1552.28,-263.94 1561.89,-259.49 1551.6,-256.98 1552.28,-263.94"/>
</g>
<!-- services/cardapio.service.ts&#45;&gt;core/state/categoria&#45;state&#45;manager.ts -->
<g id="edge21" class="edge">
<title>services/cardapio.service.ts&#45;&gt;core/state/categoria&#45;state&#45;manager.ts</title>
<path fill="none" stroke="#757575" d="M1028.83,-282.07C1081.43,-292.07 1157.49,-306.54 1212.78,-317.05"/>
<polygon fill="#757575" stroke="#757575" points="1212.38,-320.54 1222.86,-318.97 1213.69,-313.66 1212.38,-320.54"/>
</g>
<!-- services/cardapio.service.ts&#45;&gt;services/interfaces/cardapio.interfaces.ts -->
<g id="edge23" class="edge">
<title>services/cardapio.service.ts&#45;&gt;services/interfaces/cardapio.interfaces.ts</title>
<path fill="none" stroke="#757575" d="M1015.47,-258.99C1052.52,-250.23 1105.36,-238.23 1152,-229.5 1164.84,-227.1 1178.43,-224.78 1191.81,-222.62"/>
<polygon fill="#757575" stroke="#757575" points="1192.65,-226.03 1201.98,-221.01 1191.56,-219.12 1192.65,-226.03"/>
</g>
<!-- services/carrinho.service.ts -->
<g id="node64" class="node">
<title>services/carrinho.service.ts</title>
<path fill="none" stroke="#c6c5fe" d="M679.83,-453C679.83,-453 516.17,-453 516.17,-453 512.33,-453 508.5,-449.17 508.5,-445.33 508.5,-445.33 508.5,-437.67 508.5,-437.67 508.5,-433.83 512.33,-430 516.17,-430 516.17,-430 679.83,-430 679.83,-430 683.67,-430 687.5,-433.83 687.5,-437.67 687.5,-437.67 687.5,-445.33 687.5,-445.33 687.5,-449.17 683.67,-453 679.83,-453"/>
<text text-anchor="middle" x="598" y="-437.8" font-family="Arial" font-size="14.00" fill="#c6c5fe">services/carrinho.service.ts</text>
</g>
<!-- services/storage/carrinho&#45;storage.service.ts -->
<g id="node65" class="node">
<title>services/storage/carrinho&#45;storage.service.ts</title>
<path fill="none" stroke="#c6c5fe" d="M1098.33,-383C1098.33,-383 835.67,-383 835.67,-383 831.83,-383 828,-379.17 828,-375.33 828,-375.33 828,-367.67 828,-367.67 828,-363.83 831.83,-360 835.67,-360 835.67,-360 1098.33,-360 1098.33,-360 1102.17,-360 1106,-363.83 1106,-367.67 1106,-367.67 1106,-375.33 1106,-375.33 1106,-379.17 1102.17,-383 1098.33,-383"/>
<text text-anchor="middle" x="967" y="-367.8" font-family="Arial" font-size="14.00" fill="#c6c5fe">services/storage/carrinho&#45;storage.service.ts</text>
</g>
<!-- services/carrinho.service.ts&#45;&gt;services/storage/carrinho&#45;storage.service.ts -->
<g id="edge24" class="edge">
<title>services/carrinho.service.ts&#45;&gt;services/storage/carrinho&#45;storage.service.ts</title>
<path fill="none" stroke="#757575" d="M687.64,-441.32C718.46,-438.69 752.65,-432.78 782,-420.5 800.95,-412.57 799.13,-399.62 818,-391.5 822.72,-389.47 827.59,-387.64 832.57,-385.98"/>
<polygon fill="#757575" stroke="#757575" points="833.72,-389.28 842.25,-383 831.66,-382.59 833.72,-389.28"/>
</g>
<!-- shared/state/carrinhoLogic.service.ts -->
<g id="node66" class="node">
<title>shared/state/carrinhoLogic.service.ts</title>
<path fill="none" stroke="#c6c5fe" d="M1077.33,-523C1077.33,-523 856.67,-523 856.67,-523 852.83,-523 849,-519.17 849,-515.33 849,-515.33 849,-507.67 849,-507.67 849,-503.83 852.83,-500 856.67,-500 856.67,-500 1077.33,-500 1077.33,-500 1081.17,-500 1085,-503.83 1085,-507.67 1085,-507.67 1085,-515.33 1085,-515.33 1085,-519.17 1081.17,-523 1077.33,-523"/>
<text text-anchor="middle" x="967" y="-507.8" font-family="Arial" font-size="14.00" fill="#c6c5fe">shared/state/carrinhoLogic.service.ts</text>
</g>
<!-- services/carrinho.service.ts&#45;&gt;shared/state/carrinhoLogic.service.ts -->
<g id="edge25" class="edge">
<title>services/carrinho.service.ts&#45;&gt;shared/state/carrinhoLogic.service.ts</title>
<path fill="none" stroke="#757575" d="M659.6,-453.06C724.51,-465.44 827.39,-485.06 895.78,-498.11"/>
<polygon fill="#757575" stroke="#757575" points="895.13,-501.55 905.61,-499.98 896.45,-494.67 895.13,-501.55"/>
</g>
<!-- services/storage/carrinho&#45;storage.service.ts&#45;&gt;core/services/storage.service.ts -->
<g id="edge33" class="edge">
<title>services/storage/carrinho&#45;storage.service.ts&#45;&gt;core/services/storage.service.ts</title>
<path fill="none" stroke="#757575" d="M1106.38,-371.5C1128.01,-371.5 1150.13,-371.5 1171.08,-371.5"/>
<polygon fill="#757575" stroke="#757575" points="1171.27,-375 1181.27,-371.5 1171.27,-368 1171.27,-375"/>
</g>
<!-- services/storage/carrinho&#45;storage.service.ts&#45;&gt;models/itemCarrinho.model.ts -->
<g id="edge34" class="edge">
<title>services/storage/carrinho&#45;storage.service.ts&#45;&gt;models/itemCarrinho.model.ts</title>
<path fill="none" stroke="#757575" d="M1056.72,-383.03C1096.63,-388.22 1143.88,-394.36 1184.89,-399.68"/>
<polygon fill="#757575" stroke="#757575" points="1184.53,-403.17 1194.9,-400.99 1185.43,-396.23 1184.53,-403.17"/>
</g>
<!-- shared/state/carrinhoLogic.service.ts&#45;&gt;models/produto.model.ts -->
<g id="edge41" class="edge">
<title>shared/state/carrinhoLogic.service.ts&#45;&gt;models/produto.model.ts</title>
<path fill="none" stroke="#757575" d="M1040.61,-523.04C1135.98,-534.11 1304.48,-539.16 1417,-460.5 1446.32,-440 1429.83,-415.76 1453,-388.5 1499.2,-334.13 1571.11,-289.79 1612.25,-267.05"/>
<polygon fill="#757575" stroke="#757575" points="1614.16,-269.99 1621.27,-262.13 1610.82,-263.84 1614.16,-269.99"/>
</g>
<!-- shared/state/carrinhoLogic.service.ts&#45;&gt;models/itemCarrinho.model.ts -->
<g id="edge40" class="edge">
<title>shared/state/carrinhoLogic.service.ts&#45;&gt;models/itemCarrinho.model.ts</title>
<path fill="none" stroke="#757575" d="M1018.01,-499.95C1046.85,-492.97 1083.69,-483.5 1116,-473.5 1160.8,-459.63 1211.26,-440.8 1244.97,-427.75"/>
<polygon fill="#757575" stroke="#757575" points="1246.39,-430.95 1254.45,-424.07 1243.86,-424.43 1246.39,-430.95"/>
</g>
<!-- shared/state/carrinhoBase.service.ts -->
<g id="node81" class="node">
<title>shared/state/carrinhoBase.service.ts</title>
<path fill="none" stroke="#c6c5fe" d="M1394.33,-580C1394.33,-580 1174.67,-580 1174.67,-580 1170.83,-580 1167,-576.17 1167,-572.33 1167,-572.33 1167,-564.67 1167,-564.67 1167,-560.83 1170.83,-557 1174.67,-557 1174.67,-557 1394.33,-557 1394.33,-557 1398.17,-557 1402,-560.83 1402,-564.67 1402,-564.67 1402,-572.33 1402,-572.33 1402,-576.17 1398.17,-580 1394.33,-580"/>
<text text-anchor="middle" x="1284.5" y="-564.8" font-family="Arial" font-size="14.00" fill="#c6c5fe">shared/state/carrinhoBase.service.ts</text>
</g>
<!-- shared/state/carrinhoLogic.service.ts&#45;&gt;shared/state/carrinhoBase.service.ts -->
<g id="edge42" class="edge">
<title>shared/state/carrinhoLogic.service.ts&#45;&gt;shared/state/carrinhoBase.service.ts</title>
<path fill="none" stroke="#757575" d="M1031.85,-523.03C1083.38,-532.34 1155.93,-545.45 1209.9,-555.2"/>
<polygon fill="#757575" stroke="#757575" points="1209.29,-558.65 1219.75,-556.98 1210.53,-551.76 1209.29,-558.65"/>
</g>
<!-- services/checkout.service.ts -->
<g id="node67" class="node">
<title>services/checkout.service.ts</title>
<path fill="none" stroke="#c6c5fe" d="M273.83,-392C273.83,-392 104.17,-392 104.17,-392 100.33,-392 96.5,-388.17 96.5,-384.33 96.5,-384.33 96.5,-376.67 96.5,-376.67 96.5,-372.83 100.33,-369 104.17,-369 104.17,-369 273.83,-369 273.83,-369 277.67,-369 281.5,-372.83 281.5,-376.67 281.5,-376.67 281.5,-384.33 281.5,-384.33 281.5,-388.17 277.67,-392 273.83,-392"/>
<text text-anchor="middle" x="189" y="-376.8" font-family="Arial" font-size="14.00" fill="#c6c5fe">services/checkout.service.ts</text>
</g>
<!-- services/checkout.service.ts&#45;&gt;models/criarPedido.model.ts -->
<g id="edge26" class="edge">
<title>services/checkout.service.ts&#45;&gt;models/criarPedido.model.ts</title>
<path fill="none" stroke="#757575" d="M281.59,-385C344.56,-388.1 428.28,-392.21 493.64,-395.42"/>
<polygon fill="#757575" stroke="#757575" points="493.81,-398.93 503.97,-395.93 494.15,-391.94 493.81,-398.93"/>
</g>
<!-- services/checkout.service.ts&#45;&gt;models/pedido.model.ts -->
<g id="edge27" class="edge">
<title>services/checkout.service.ts&#45;&gt;models/pedido.model.ts</title>
<path fill="none" stroke="#757575" d="M281.59,-375.77C349.04,-372.29 440.29,-367.59 507.29,-364.13"/>
<polygon fill="#757575" stroke="#757575" points="507.6,-367.62 517.41,-363.61 507.24,-360.63 507.6,-367.62"/>
</g>
<!-- services/checkout.service.ts&#45;&gt;services/carrinho.service.ts -->
<g id="edge28" class="edge">
<title>services/checkout.service.ts&#45;&gt;services/carrinho.service.ts</title>
<path fill="none" stroke="#757575" d="M281.87,-382.9C312.95,-385.64 347.49,-390.84 378,-400.5 395.45,-406.02 396.57,-414.9 414,-420.5 440.71,-429.08 470.61,-434.24 498.36,-437.32"/>
<polygon fill="#757575" stroke="#757575" points="498.18,-440.82 508.48,-438.37 498.9,-433.86 498.18,-440.82"/>
</g>
<!-- services/pedido.service.ts -->
<g id="node68" class="node">
<title>services/pedido.service.ts</title>
<path fill="none" stroke="#cfffac" d="M675.83,-330C675.83,-330 520.17,-330 520.17,-330 516.33,-330 512.5,-326.17 512.5,-322.33 512.5,-322.33 512.5,-314.67 512.5,-314.67 512.5,-310.83 516.33,-307 520.17,-307 520.17,-307 675.83,-307 675.83,-307 679.67,-307 683.5,-310.83 683.5,-314.67 683.5,-314.67 683.5,-322.33 683.5,-322.33 683.5,-326.17 679.67,-330 675.83,-330"/>
<text text-anchor="middle" x="598" y="-314.8" font-family="Arial" font-size="14.00" fill="#cfffac">services/pedido.service.ts</text>
</g>
<!-- services/checkout.service.ts&#45;&gt;services/pedido.service.ts -->
<g id="edge29" class="edge">
<title>services/checkout.service.ts&#45;&gt;services/pedido.service.ts</title>
<path fill="none" stroke="#757575" d="M281.53,-377.93C312.73,-375.06 347.45,-369.61 378,-359.5 395.58,-353.68 396.41,-344.3 414,-338.5 441.83,-329.32 473.2,-324.16 502,-321.3"/>
<polygon fill="#757575" stroke="#757575" points="502.43,-324.78 512.08,-320.39 501.8,-317.81 502.43,-324.78"/>
</g>
<!-- services/interfaces/carrinho.interface.ts -->
<g id="node69" class="node">
<title>services/interfaces/carrinho.interface.ts</title>
<path fill="none" stroke="#c6c5fe" d="M1084.83,-424C1084.83,-424 849.17,-424 849.17,-424 845.33,-424 841.5,-420.17 841.5,-416.33 841.5,-416.33 841.5,-408.67 841.5,-408.67 841.5,-404.83 845.33,-401 849.17,-401 849.17,-401 1084.83,-401 1084.83,-401 1088.67,-401 1092.5,-404.83 1092.5,-408.67 1092.5,-408.67 1092.5,-416.33 1092.5,-416.33 1092.5,-420.17 1088.67,-424 1084.83,-424"/>
<text text-anchor="middle" x="967" y="-408.8" font-family="Arial" font-size="14.00" fill="#c6c5fe">services/interfaces/carrinho.interface.ts</text>
</g>
<!-- services/interfaces/carrinho.interface.ts&#45;&gt;models/itemCarrinho.model.ts -->
<g id="edge32" class="edge">
<title>services/interfaces/carrinho.interface.ts&#45;&gt;models/itemCarrinho.model.ts</title>
<path fill="none" stroke="#757575" d="M1092.69,-412.5C1120.03,-412.5 1148.76,-412.5 1175.38,-412.5"/>
<polygon fill="#757575" stroke="#757575" points="1175.48,-416 1185.48,-412.5 1175.48,-409 1175.48,-416"/>
</g>
<!-- services/interfaces/pedido.interface.ts -->
<g id="node70" class="node">
<title>services/interfaces/pedido.interface.ts</title>
<path fill="none" stroke="#cfffac" d="M302.33,-1622C302.33,-1622 75.67,-1622 75.67,-1622 71.83,-1622 68,-1618.17 68,-1614.33 68,-1614.33 68,-1606.67 68,-1606.67 68,-1602.83 71.83,-1599 75.67,-1599 75.67,-1599 302.33,-1599 302.33,-1599 306.17,-1599 310,-1602.83 310,-1606.67 310,-1606.67 310,-1614.33 310,-1614.33 310,-1618.17 306.17,-1622 302.33,-1622"/>
<text text-anchor="middle" x="189" y="-1606.8" font-family="Arial" font-size="14.00" fill="#cfffac">services/interfaces/pedido.interface.ts</text>
</g>
<!-- services/usuario.service.ts -->
<g id="node71" class="node">
<title>services/usuario.service.ts</title>
<path fill="none" stroke="#cfffac" d="M268.83,-1663C268.83,-1663 109.17,-1663 109.17,-1663 105.33,-1663 101.5,-1659.17 101.5,-1655.33 101.5,-1655.33 101.5,-1647.67 101.5,-1647.67 101.5,-1643.83 105.33,-1640 109.17,-1640 109.17,-1640 268.83,-1640 268.83,-1640 272.67,-1640 276.5,-1643.83 276.5,-1647.67 276.5,-1647.67 276.5,-1655.33 276.5,-1655.33 276.5,-1659.17 272.67,-1663 268.83,-1663"/>
<text text-anchor="middle" x="189" y="-1647.8" font-family="Arial" font-size="14.00" fill="#cfffac">services/usuario.service.ts</text>
</g>
<!-- shared/components/carrinho/carrinho&#45;modal.component.ts -->
<g id="node72" class="node">
<title>shared/components/carrinho/carrinho&#45;modal.component.ts</title>
<path fill="none" stroke="#cfffac" d="M774.33,-1704C774.33,-1704 421.67,-1704 421.67,-1704 417.83,-1704 414,-1700.17 414,-1696.33 414,-1696.33 414,-1688.67 414,-1688.67 414,-1684.83 417.83,-1681 421.67,-1681 421.67,-1681 774.33,-1681 774.33,-1681 778.17,-1681 782,-1684.83 782,-1688.67 782,-1688.67 782,-1696.33 782,-1696.33 782,-1700.17 778.17,-1704 774.33,-1704"/>
<text text-anchor="middle" x="598" y="-1688.8" font-family="Arial" font-size="14.00" fill="#cfffac">shared/components/carrinho/carrinho&#45;modal.component.ts</text>
</g>
<!-- shared/components/carrinho/carrinho.component.ts -->
<g id="node73" class="node">
<title>shared/components/carrinho/carrinho.component.ts</title>
<path fill="none" stroke="#c6c5fe" d="M344.33,-1704C344.33,-1704 33.67,-1704 33.67,-1704 29.83,-1704 26,-1700.17 26,-1696.33 26,-1696.33 26,-1688.67 26,-1688.67 26,-1684.83 29.83,-1681 33.67,-1681 33.67,-1681 344.33,-1681 344.33,-1681 348.17,-1681 352,-1684.83 352,-1688.67 352,-1688.67 352,-1696.33 352,-1696.33 352,-1700.17 348.17,-1704 344.33,-1704"/>
<text text-anchor="middle" x="189" y="-1688.8" font-family="Arial" font-size="14.00" fill="#c6c5fe">shared/components/carrinho/carrinho.component.ts</text>
</g>
<!-- shared/components/carrinho/carrinho.component.ts&#45;&gt;shared/components/carrinho/carrinho&#45;modal.component.ts -->
<g id="edge35" class="edge">
<title>shared/components/carrinho/carrinho.component.ts&#45;&gt;shared/components/carrinho/carrinho&#45;modal.component.ts</title>
<path fill="none" stroke="#757575" d="M352.03,-1692.5C368.98,-1692.5 386.34,-1692.5 403.6,-1692.5"/>
<polygon fill="#757575" stroke="#757575" points="403.75,-1696 413.75,-1692.5 403.75,-1689 403.75,-1696"/>
</g>
<!-- shared/components/depoimentos/depoimento.component.ts -->
<g id="node74" class="node">
<title>shared/components/depoimentos/depoimento.component.ts</title>
<path fill="none" stroke="#cfffac" d="M370.33,-1745C370.33,-1745 7.67,-1745 7.67,-1745 3.83,-1745 0,-1741.17 0,-1737.33 0,-1737.33 0,-1729.67 0,-1729.67 0,-1725.83 3.83,-1722 7.67,-1722 7.67,-1722 370.33,-1722 370.33,-1722 374.17,-1722 378,-1725.83 378,-1729.67 378,-1729.67 378,-1737.33 378,-1737.33 378,-1741.17 374.17,-1745 370.33,-1745"/>
<text text-anchor="middle" x="189" y="-1729.8" font-family="Arial" font-size="14.00" fill="#cfffac">shared/components/depoimentos/depoimento.component.ts</text>
</g>
<!-- shared/components/newsletter/newsletter.component.ts -->
<g id="node75" class="node">
<title>shared/components/newsletter/newsletter.component.ts</title>
<path fill="none" stroke="#cfffac" d="M356.83,-1786C356.83,-1786 21.17,-1786 21.17,-1786 17.33,-1786 13.5,-1782.17 13.5,-1778.33 13.5,-1778.33 13.5,-1770.67 13.5,-1770.67 13.5,-1766.83 17.33,-1763 21.17,-1763 21.17,-1763 356.83,-1763 356.83,-1763 360.67,-1763 364.5,-1766.83 364.5,-1770.67 364.5,-1770.67 364.5,-1778.33 364.5,-1778.33 364.5,-1782.17 360.67,-1786 356.83,-1786"/>
<text text-anchor="middle" x="189" y="-1770.8" font-family="Arial" font-size="14.00" fill="#cfffac">shared/components/newsletter/newsletter.component.ts</text>
</g>
<!-- shared/components/sobre/sobre.component.ts -->
<g id="node76" class="node">
<title>shared/components/sobre/sobre.component.ts</title>
<path fill="none" stroke="#cfffac" d="M329.33,-1827C329.33,-1827 48.67,-1827 48.67,-1827 44.83,-1827 41,-1823.17 41,-1819.33 41,-1819.33 41,-1811.67 41,-1811.67 41,-1807.83 44.83,-1804 48.67,-1804 48.67,-1804 329.33,-1804 329.33,-1804 333.17,-1804 337,-1807.83 337,-1811.67 337,-1811.67 337,-1819.33 337,-1819.33 337,-1823.17 333.17,-1827 329.33,-1827"/>
<text text-anchor="middle" x="189" y="-1811.8" font-family="Arial" font-size="14.00" fill="#cfffac">shared/components/sobre/sobre.component.ts</text>
</g>
<!-- shared/enums/statusEnum.enum.ts -->
<g id="node77" class="node">
<title>shared/enums/statusEnum.enum.ts</title>
<path fill="none" stroke="#cfffac" d="M296.83,-1868C296.83,-1868 81.17,-1868 81.17,-1868 77.33,-1868 73.5,-1864.17 73.5,-1860.33 73.5,-1860.33 73.5,-1852.67 73.5,-1852.67 73.5,-1848.83 77.33,-1845 81.17,-1845 81.17,-1845 296.83,-1845 296.83,-1845 300.67,-1845 304.5,-1848.83 304.5,-1852.67 304.5,-1852.67 304.5,-1860.33 304.5,-1860.33 304.5,-1864.17 300.67,-1868 296.83,-1868"/>
<text text-anchor="middle" x="189" y="-1852.8" font-family="Arial" font-size="14.00" fill="#cfffac">shared/enums/statusEnum.enum.ts</text>
</g>
<!-- shared/icons.ts -->
<g id="node78" class="node">
<title>shared/icons.ts</title>
<path fill="none" stroke="#cfffac" d="M234.83,-1909C234.83,-1909 143.17,-1909 143.17,-1909 139.33,-1909 135.5,-1905.17 135.5,-1901.33 135.5,-1901.33 135.5,-1893.67 135.5,-1893.67 135.5,-1889.83 139.33,-1886 143.17,-1886 143.17,-1886 234.83,-1886 234.83,-1886 238.67,-1886 242.5,-1889.83 242.5,-1893.67 242.5,-1893.67 242.5,-1901.33 242.5,-1901.33 242.5,-1905.17 238.67,-1909 234.83,-1909"/>
<text text-anchor="middle" x="189" y="-1893.8" font-family="Arial" font-size="14.00" fill="#cfffac">shared/icons.ts</text>
</g>
<!-- shared/shared.module.ts -->
<g id="node79" class="node">
<title>shared/shared.module.ts</title>
<path fill="none" stroke="#cfffac" d="M264.33,-1950C264.33,-1950 113.67,-1950 113.67,-1950 109.83,-1950 106,-1946.17 106,-1942.33 106,-1942.33 106,-1934.67 106,-1934.67 106,-1930.83 109.83,-1927 113.67,-1927 113.67,-1927 264.33,-1927 264.33,-1927 268.17,-1927 272,-1930.83 272,-1934.67 272,-1934.67 272,-1942.33 272,-1942.33 272,-1946.17 268.17,-1950 264.33,-1950"/>
<text text-anchor="middle" x="189" y="-1934.8" font-family="Arial" font-size="14.00" fill="#cfffac">shared/shared.module.ts</text>
</g>
<!-- shared/state/StateUtil.ts -->
<g id="node80" class="node">
<title>shared/state/StateUtil.ts</title>
<path fill="none" stroke="#c6c5fe" d="M1717.33,-580C1717.33,-580 1572.67,-580 1572.67,-580 1568.83,-580 1565,-576.17 1565,-572.33 1565,-572.33 1565,-564.67 1565,-564.67 1565,-560.83 1568.83,-557 1572.67,-557 1572.67,-557 1717.33,-557 1717.33,-557 1721.17,-557 1725,-560.83 1725,-564.67 1725,-564.67 1725,-572.33 1725,-572.33 1725,-576.17 1721.17,-580 1717.33,-580"/>
<text text-anchor="middle" x="1645" y="-564.8" font-family="Arial" font-size="14.00" fill="#c6c5fe">shared/state/StateUtil.ts</text>
</g>
<!-- shared/state/StateUtil.ts&#45;&gt;core/components/models/entity.model.ts -->
<g id="edge36" class="edge">
<title>shared/state/StateUtil.ts&#45;&gt;core/components/models/entity.model.ts</title>
<path fill="none" stroke="#757575" d="M1725.01,-564.06C1765.47,-561.79 1815.93,-558.95 1862.66,-556.33"/>
<polygon fill="#757575" stroke="#757575" points="1863.09,-559.81 1872.88,-555.75 1862.7,-552.82 1863.09,-559.81"/>
</g>
<!-- shared/state/carrinhoBase.service.ts&#45;&gt;core/components/models/entity.model.ts -->
<g id="edge37" class="edge">
<title>shared/state/carrinhoBase.service.ts&#45;&gt;core/components/models/entity.model.ts</title>
<path fill="none" stroke="#757575" d="M1361.19,-556.98C1389.87,-553.15 1422.87,-549.38 1453,-547.5 1592.18,-538.81 1751.59,-540.38 1862.65,-543.32"/>
<polygon fill="#757575" stroke="#757575" points="1862.82,-546.83 1872.91,-543.6 1863.01,-539.83 1862.82,-546.83"/>
</g>
<!-- shared/state/carrinhoBase.service.ts&#45;&gt;core/util/unsubscribe.ts -->
<g id="edge38" class="edge">
<title>shared/state/carrinhoBase.service.ts&#45;&gt;core/util/unsubscribe.ts</title>
<path fill="none" stroke="#757575" d="M1380.71,-580.02C1404.32,-582.84 1429.58,-585.81 1453,-588.5 1487.09,-592.41 1524.62,-596.57 1557.32,-600.14"/>
<polygon fill="#757575" stroke="#757575" points="1556.99,-603.63 1567.31,-601.23 1557.75,-596.67 1556.99,-603.63"/>
</g>
<!-- shared/state/carrinhoBase.service.ts&#45;&gt;shared/state/StateUtil.ts -->
<g id="edge39" class="edge">
<title>shared/state/carrinhoBase.service.ts&#45;&gt;shared/state/StateUtil.ts</title>
<path fill="none" stroke="#757575" d="M1402.39,-568.5C1451.88,-568.5 1508.61,-568.5 1554.65,-568.5"/>
<polygon fill="#757575" stroke="#757575" points="1554.91,-572 1564.91,-568.5 1554.91,-565 1554.91,-572"/>
</g>
<!-- shared/util/card/card&#45;footer.component.ts -->
<g id="node82" class="node">
<title>shared/util/card/card&#45;footer.component.ts</title>
<path fill="none" stroke="#cfffac" d="M312.83,-1991C312.83,-1991 65.17,-1991 65.17,-1991 61.33,-1991 57.5,-1987.17 57.5,-1983.33 57.5,-1983.33 57.5,-1975.67 57.5,-1975.67 57.5,-1971.83 61.33,-1968 65.17,-1968 65.17,-1968 312.83,-1968 312.83,-1968 316.67,-1968 320.5,-1971.83 320.5,-1975.67 320.5,-1975.67 320.5,-1983.33 320.5,-1983.33 320.5,-1987.17 316.67,-1991 312.83,-1991"/>
<text text-anchor="middle" x="189" y="-1975.8" font-family="Arial" font-size="14.00" fill="#cfffac">shared/util/card/card&#45;footer.component.ts</text>
</g>
<!-- shared/util/card/card.component.ts -->
<g id="node83" class="node">
<title>shared/util/card/card.component.ts</title>
<path fill="none" stroke="#cfffac" d="M293.33,-2032C293.33,-2032 84.67,-2032 84.67,-2032 80.83,-2032 77,-2028.17 77,-2024.33 77,-2024.33 77,-2016.67 77,-2016.67 77,-2012.83 80.83,-2009 84.67,-2009 84.67,-2009 293.33,-2009 293.33,-2009 297.17,-2009 301,-2012.83 301,-2016.67 301,-2016.67 301,-2024.33 301,-2024.33 301,-2028.17 297.17,-2032 293.33,-2032"/>
<text text-anchor="middle" x="189" y="-2016.8" font-family="Arial" font-size="14.00" fill="#cfffac">shared/util/card/card.component.ts</text>
</g>
</g>
</svg>
